<svg width="242" height="54" viewBox="0 0 242 54" fill="none" xmlns="http://www.w3.org/2000/svg">
<g clip-path="url(#clip0_162_328)">
<path d="M3.17725 52.4877L16.6698 15.8065H21.8513L35.3952 52.4877H30.3675L26.4685 41.3037H11.8474L7.89707 52.4877H3.17725ZM17.5419 25.2461L13.1812 37.5586H25.1859L20.9792 25.2461L19.3375 20.0646H19.2349C18.5851 22.1167 18.0207 23.8439 17.5419 25.2461ZM39.368 52.4877V15.8065H52.7064C58.0762 15.8065 62.129 17.4653 64.8653 20.7828C67.6015 24.1003 68.9693 28.5979 68.9693 34.2754C68.9693 39.9187 67.55 44.3648 64.7112 47.614C61.8724 50.8633 57.7512 52.4877 52.3474 52.4877H39.368ZM43.985 48.4348H52.1934C60.2308 48.4348 64.2497 43.7149 64.2497 34.2754C64.2497 24.6305 60.3505 19.8081 52.5526 19.8081H43.985V48.4348ZM69.71 52.4877L83.2024 15.8065H88.3839L101.928 52.4877H96.9003L93.0012 41.3037H78.3799L74.4296 52.4877H69.71ZM84.0746 25.2461L79.714 37.5586H91.7185L87.5119 25.2461L85.87 20.0646H85.7674C85.1178 22.1167 84.5533 23.8439 84.0746 25.2461ZM105.9 52.4877V15.8065H111.8L123.702 46.2799H123.805L135.605 15.8065H141.607V52.4877H137.195V22.3219H137.092C136.443 24.2372 135.895 25.7763 135.451 26.9391L125.395 52.4877H121.856L111.8 26.9391L110.159 22.3219H110.056V52.4877H105.9ZM145.561 52.4877L159.054 15.8065H164.235L177.779 52.4877H172.752L168.852 41.3037H154.231L150.281 52.4877H145.561ZM159.926 25.2461L155.565 37.5586H167.57L163.363 25.2461L161.722 20.0646H161.619C160.969 22.1167 160.405 23.8439 159.926 25.2461ZM194.59 53.2059C189.665 53.2059 185.868 51.9919 183.201 49.5634C180.567 47.135 179.148 43.9716 178.942 40.0725H183.457C184.073 46.3654 187.852 49.512 194.795 49.512C197.428 49.512 199.532 48.9307 201.105 47.7678C202.712 46.5706 203.516 44.8607 203.516 42.6375C203.516 41.6458 203.328 40.7735 202.952 40.0213C202.576 39.2688 202.114 38.6532 201.567 38.1742C201.054 37.6955 200.267 37.2508 199.207 36.8404C198.146 36.43 197.155 36.1051 196.231 35.8656C195.342 35.6264 194.111 35.3354 192.537 34.9936C190.656 34.5832 189.1 34.1728 187.869 33.7624C186.638 33.3177 185.407 32.7189 184.175 31.9668C182.944 31.2144 182.02 30.2566 181.405 29.0938C180.823 27.8967 180.533 26.4602 180.533 24.7844C180.533 21.7747 181.662 19.4148 183.919 17.7047C186.21 15.9604 189.237 15.0883 192.999 15.0883C201.242 15.0883 205.876 18.9017 206.902 26.5287H202.541C202.199 23.9294 201.224 21.9799 199.617 20.6802C198.01 19.3463 195.838 18.6794 193.102 18.6794C190.571 18.6794 188.553 19.1924 187.048 20.2185C185.577 21.2445 184.842 22.6981 184.842 24.5792C184.842 25.4 184.996 26.1355 185.304 26.7852C185.646 27.4008 186.073 27.931 186.586 28.3756C187.134 28.786 187.835 29.1623 188.69 29.5042C189.579 29.8462 190.451 30.137 191.306 30.3764C192.161 30.5816 193.205 30.8039 194.436 31.0433C196.146 31.3852 197.548 31.7102 198.643 32.0179C199.737 32.2917 200.951 32.7189 202.285 33.3006C203.619 33.8822 204.645 34.5489 205.363 35.3014C206.116 36.0536 206.748 37.0456 207.261 38.2768C207.808 39.474 208.082 40.8761 208.082 42.4837C208.082 45.8355 206.834 48.4688 204.337 50.3842C201.875 52.2654 198.625 53.2059 194.59 53.2059ZM226.704 53.2059C221.778 53.2059 217.982 51.9919 215.314 49.5634C212.681 47.135 211.261 43.9716 211.056 40.0725H215.571C216.187 46.3654 219.966 49.512 226.909 49.512C229.541 49.512 231.645 48.9307 233.22 47.7678C234.825 46.5706 235.631 44.8607 235.631 42.6375C235.631 41.6458 235.441 40.7735 235.067 40.0213C234.69 39.2688 234.228 38.6532 233.681 38.1742C233.168 37.6955 232.381 37.2508 231.322 36.8404C230.26 36.43 229.269 36.1051 228.346 35.8656C227.456 35.6264 226.225 35.3354 224.652 34.9936C222.77 34.5832 221.214 34.1728 219.983 33.7624C218.752 33.3177 217.52 32.7189 216.289 31.9668C215.058 31.2144 214.135 30.2566 213.519 29.0938C212.938 27.8967 212.647 26.4602 212.647 24.7844C212.647 21.7747 213.775 19.4148 216.033 17.7047C218.324 15.9604 221.351 15.0883 225.114 15.0883C233.356 15.0883 237.991 18.9017 239.017 26.5287H234.656C234.312 23.9294 233.338 21.9799 231.732 20.6802C230.124 19.3463 227.951 18.6794 225.216 18.6794C222.685 18.6794 220.667 19.1924 219.162 20.2185C217.692 21.2445 216.956 22.6981 216.956 24.5792C216.956 25.4 217.11 26.1355 217.418 26.7852C217.76 27.4008 218.187 27.931 218.7 28.3756C219.248 28.786 219.949 29.1623 220.804 29.5042C221.693 29.8462 222.565 30.137 223.42 30.3764C224.275 30.5816 225.319 30.8039 226.55 31.0433C228.259 31.3852 229.662 31.7102 230.757 32.0179C231.85 32.2917 233.066 32.7189 234.4 33.3006C235.733 33.8822 236.759 34.5489 237.478 35.3014C238.229 36.0536 238.863 37.0456 239.376 38.2768C239.922 39.474 240.197 40.8761 240.197 42.4837C240.197 45.8355 238.948 48.4688 236.452 50.3842C233.989 52.2654 230.739 53.2059 226.704 53.2059Z" fill="black"/>
<path d="M108.886 8.73529V7.14705C108.886 5.39272 110.782 3.97058 113.121 3.97058H133.238C135.578 3.97058 137.474 5.39272 137.474 7.14705V8.73529" stroke="#1C8DEB" stroke-width="2.97" stroke-linecap="square"/>
</g>
<defs>
<clipPath id="clip0_162_328">
<rect width="241.412" height="54" fill="white"/>
</clipPath>
</defs>
</svg>
