<svg width="216" height="60" viewBox="0 0 216 60" fill="none" xmlns="http://www.w3.org/2000/svg">
<g clip-path="url(#clip0_162_357)">
<path d="M54.0515 8.91864C53.5237 8.91864 53.0284 8.80195 52.5671 8.56992C52.1058 8.3379 51.7353 8.00276 51.4585 7.56585C51.1804 7.12895 51.042 6.61334 51.042 6.02176C51.042 5.43017 51.1804 4.91457 51.4585 4.47766C51.7353 4.04075 52.1058 3.70561 52.5671 3.47359C53.0284 3.24157 53.5237 3.12488 54.0515 3.12488C54.5793 3.12488 55.0732 3.24157 55.5318 3.47359C55.9904 3.70561 56.3608 4.04075 56.6404 4.47766C56.9199 4.91457 57.061 5.43017 57.061 6.02176C57.061 6.61334 56.9212 7.12895 56.6404 7.56585C56.3608 8.00412 55.9904 8.3379 55.5318 8.56992C55.0732 8.80195 54.5793 8.91864 54.0515 8.91864ZM54.0515 8.31891C54.4626 8.31891 54.8439 8.21579 55.1953 8.0109C55.5481 7.80602 55.8263 7.52651 56.0311 7.17508C56.236 6.8223 56.3391 6.43831 56.3391 6.02311C56.3391 5.60792 56.236 5.22257 56.0311 4.87115C55.8263 4.51836 55.5467 4.24021 55.1953 4.03533C54.8425 3.83044 54.4613 3.72732 54.0515 3.72732C53.6417 3.72732 53.2591 3.83044 52.9063 4.03533C52.5535 4.24021 52.2754 4.51972 52.0705 4.87115C51.8656 5.22393 51.7625 5.60792 51.7625 6.02311C51.7625 6.43831 51.8656 6.82366 52.0705 7.17508C52.2754 7.52786 52.5549 7.80602 52.9063 8.0109C53.2591 8.21579 53.6404 8.31891 54.0515 8.31891ZM52.8819 7.50208V4.48444H54.2102C54.5087 4.48444 54.7625 4.55229 54.9701 4.68797C55.1777 4.82366 55.2822 5.03397 55.2822 5.31619C55.2822 5.55093 55.194 5.73953 55.0176 5.88064C54.8412 6.02176 54.6417 6.09774 54.4178 6.1086V6.06789C54.6743 6.0896 54.8602 6.1683 54.9782 6.30398C55.0949 6.43967 55.1777 6.63098 55.2265 6.87657L55.3541 7.50073H54.5942L54.4816 6.82908C54.4545 6.68526 54.4111 6.57535 54.35 6.50073C54.2889 6.4261 54.1994 6.38811 54.0813 6.38811H53.6173V7.50073H52.8805L52.8819 7.50208ZM54.0515 5.82908C54.1953 5.83451 54.312 5.79923 54.4002 5.72461C54.4884 5.64998 54.5318 5.5455 54.5318 5.41253C54.5318 5.27956 54.4898 5.17915 54.4043 5.11267C54.3188 5.04618 54.2007 5.00955 54.0515 5.00412H53.6187V5.82908H54.0515Z" fill="black"/>
<path d="M118.961 26.0503C118.145 24.0475 116.953 22.4994 115.415 21.4505C113.873 20.399 112.072 19.8657 110.063 19.8657C108.357 19.8657 106.814 20.2144 105.476 20.901C104.666 21.3176 103.942 21.8372 103.311 22.4573V21.4844C103.311 20.8549 102.801 20.3447 102.171 20.3447H94.9025C94.2729 20.3447 93.7627 20.8549 93.7627 21.4844V53.9078C93.7627 54.5374 94.2729 55.0475 94.9025 55.0475H102.315C102.945 55.0475 103.455 54.5374 103.455 53.9078V44.2416C103.969 44.7246 104.543 45.1466 105.174 45.5034C106.442 46.2199 107.942 46.5835 109.632 46.5835C111.75 46.5835 113.632 45.996 115.228 44.8359C116.795 43.6948 118.026 42.0679 118.886 40C119.722 37.9878 120.145 35.6215 120.145 32.9634C120.145 30.3053 119.746 27.9838 118.961 26.0543V26.0503ZM110.358 33.2456C110.358 34.6418 110.194 35.8291 109.87 36.7735C109.575 37.6323 109.164 38.2796 108.65 38.6988C108.17 39.0896 107.615 39.2796 106.954 39.2796C106.229 39.2796 105.637 39.0828 105.14 38.6771C104.609 38.2429 104.19 37.5808 103.896 36.707C103.571 35.7463 103.406 34.5659 103.406 33.1982C103.406 31.8304 103.57 30.6988 103.896 29.7368C104.191 28.863 104.609 28.2009 105.14 27.7667C105.637 27.361 106.229 27.1629 106.954 27.1629C107.679 27.1629 108.216 27.3528 108.698 27.745C109.206 28.1588 109.607 28.8087 109.888 29.6744C110.2 30.6405 110.358 31.8413 110.358 33.2443V33.2456Z" fill="black"/>
<path d="M143.599 22.6092C142.135 20.7883 140.034 19.8643 137.356 19.8643C135.63 19.8643 134.07 20.2618 132.718 21.0461C131.915 21.5129 131.192 22.1031 130.555 22.81V11.966C130.555 11.3365 130.045 10.8263 129.416 10.8263H122.003C121.373 10.8263 120.863 11.3365 120.863 11.966V44.9145C120.863 45.5441 121.373 46.0542 122.003 46.0542H129.416C130.045 46.0542 130.555 45.5441 130.555 44.9145V33.5332C130.555 32.2686 130.71 31.2008 131.014 30.3568C131.283 29.6119 131.649 29.0909 132.133 28.7639C132.631 28.4274 133.228 28.2646 133.96 28.2646C134.866 28.2646 135.211 28.5983 135.409 28.8901C135.668 29.2713 135.977 30.061 135.977 31.6675V44.9131C135.977 45.5427 136.487 46.0529 137.117 46.0529H144.577C145.207 46.0529 145.717 45.5427 145.717 44.9131V29.658C145.717 26.7272 145.004 24.3555 143.6 22.6078L143.599 22.6092Z" fill="black"/>
<path d="M172.088 34.6812V33.4858C172.088 30.783 171.61 28.3705 170.668 26.3162C169.701 24.205 168.25 22.5428 166.358 21.3746C164.477 20.2145 162.192 19.627 159.567 19.627C156.941 19.627 154.795 20.1643 152.833 21.2226C150.838 22.3 149.265 23.9051 148.158 25.996C147.071 28.0503 146.521 30.4899 146.521 33.247C146.521 36.0042 147.028 38.2552 148.029 40.2402C149.054 42.2715 150.568 43.8576 152.531 44.954C154.465 46.034 156.816 46.5808 159.518 46.5808C162.742 46.5808 165.442 45.8264 167.541 44.3393C169.644 42.8495 171.135 40.8508 171.976 38.399C172.077 38.1059 172.054 37.7843 171.913 37.5089C171.772 37.2335 171.523 37.0272 171.226 36.9377L167.504 35.821H170.948C171.577 35.821 172.088 35.3108 172.088 34.6812ZM162.215 29.19H156.477C156.563 28.9024 156.664 28.6378 156.784 28.399C157.052 27.8617 157.393 27.4763 157.826 27.2213C158.274 26.9567 158.812 26.8291 159.472 26.8291C160.402 26.8291 161.062 27.1113 161.546 27.7165C161.839 28.0829 162.063 28.5767 162.215 29.19ZM163.587 35.8535C163.297 36.8807 162.838 37.6812 162.225 38.2335C161.655 38.745 160.879 38.9933 159.854 38.9933C157.953 38.9933 157.31 38.0924 157.099 37.7966C156.709 37.2525 156.435 36.5917 156.276 35.8196H163.596C163.592 35.8305 163.59 35.8413 163.587 35.8535Z" fill="black"/>
<path d="M190.819 19.6255H190.149C188.259 19.6255 186.549 20.0733 185.069 20.9579C184.07 21.5549 183.191 22.3473 182.44 23.3229V21.4817C182.44 20.8521 181.93 20.3419 181.301 20.3419H173.984C173.355 20.3419 172.845 20.8521 172.845 21.4817V44.9145C172.845 45.5441 173.355 46.0543 173.984 46.0543H181.397C182.027 46.0543 182.537 45.5441 182.537 44.9145V35.6363C182.537 34.1913 182.805 33.0027 183.336 32.1017C183.856 31.2184 184.577 30.5807 185.544 30.1492C186.571 29.6906 187.831 29.4586 189.288 29.4586C189.516 29.4586 189.74 29.4654 189.953 29.4803C190.17 29.4952 190.42 29.5183 190.694 29.5481C190.736 29.5522 190.777 29.5549 190.819 29.5549C191.098 29.5549 191.37 29.4518 191.579 29.2646C191.82 29.0488 191.957 28.7395 191.957 28.4165V20.7652C191.957 20.1357 191.447 19.6255 190.818 19.6255H190.819Z" fill="black"/>
<path d="M215.995 34.6812V33.4858C215.995 30.783 215.517 28.3705 214.576 26.3162C213.608 24.205 212.158 22.5428 210.265 21.3746C208.384 20.2145 206.099 19.627 203.474 19.627C200.848 19.627 198.702 20.1643 196.74 21.2226C194.745 22.3 193.173 23.9051 192.065 25.996C190.979 28.0503 190.428 30.4899 190.428 33.247C190.428 36.0042 190.935 38.2565 191.937 40.2402C192.961 42.2715 194.475 43.8576 196.439 44.954C198.372 46.034 200.724 46.5808 203.425 46.5808C206.649 46.5808 209.349 45.8264 211.448 44.3393C213.55 42.8495 215.042 40.8508 215.884 38.399C215.984 38.1059 215.961 37.7843 215.82 37.5089C215.679 37.2335 215.43 37.0272 215.133 36.9377L211.411 35.821H214.855C215.485 35.821 215.995 35.3108 215.995 34.6812ZM200.691 28.4004C200.96 27.863 201.3 27.4777 201.733 27.2226C202.181 26.958 202.719 26.8305 203.379 26.8305C204.31 26.8305 204.969 27.1127 205.454 27.7179C205.747 28.0842 205.97 28.5781 206.122 29.1914H200.384C200.47 28.9038 200.572 28.6392 200.691 28.4004ZM207.494 35.8535C207.204 36.8807 206.745 37.6812 206.132 38.2335C205.562 38.745 204.786 38.9933 203.762 38.9933C201.861 38.9933 201.217 38.0924 201.006 37.7966C200.616 37.2525 200.342 36.5917 200.184 35.8196H207.504C207.5 35.8305 207.497 35.8413 207.494 35.8522V35.8535Z" fill="black"/>
<path d="M41.7141 30.0002C41.7141 35.8537 44.3966 38.9432 49.0316 38.5375C52.3654 38.2119 54.1538 36.4236 54.7223 32.6841C55.0479 35.3666 55.9421 36.6678 57.3234 36.505C59.0303 36.2607 60.0059 33.9039 60.0059 30.0002C60.0059 26.0966 59.0303 23.7397 57.3234 23.4955C55.9407 23.3327 55.0466 24.6339 54.7223 27.3164C54.1538 23.5769 52.3641 21.7872 49.0316 21.4629C44.398 21.0559 41.7141 24.1454 41.7141 30.0002ZM37.0791 1.22004C36.3478 2.43985 39.1117 4.95952 42.9326 6.09792L43.7453 6.34216C41.7942 6.26075 40.0059 6.91068 40.0059 9.75735C40.0059 12.604 40.9 15.2051 42.9326 17.0749C44.8023 19.1074 47.4848 20.0016 50.2501 20.0016C53.0154 20.0016 53.7467 18.2133 53.6653 16.2621L53.9095 17.0749C55.1293 20.8958 57.5676 23.6597 58.7874 22.9283C60.3315 22.0342 59.113 17.6434 58.2989 15.448C57.4862 13.2526 55.4536 9.59453 53.4211 10.3259C52.7711 10.5701 52.6083 11.3014 52.6897 12.1956C52.2012 11.0572 51.5513 10.0816 50.7386 9.26889C49.9258 8.45613 48.9502 7.80484 47.8118 7.31773C48.706 7.39914 49.4373 7.23632 49.6816 6.58639C50.4129 4.55383 46.7548 2.52126 44.5595 1.70851C42.3641 0.895752 37.9747 -0.324058 37.0791 1.22004ZM37.0791 58.7818C37.9733 60.3259 42.3641 59.1074 44.5595 58.2933C46.7548 57.4806 50.4129 55.448 49.6816 53.4154C49.4373 52.7655 48.706 52.6027 47.8118 52.6841C48.9502 52.1956 49.9258 51.5457 50.7386 50.7329C51.5513 49.9202 52.2026 48.9446 52.6897 47.8062C52.6083 48.7004 52.7711 49.4317 53.4211 49.6759C55.4536 50.4073 57.4862 46.7492 58.2989 44.5538C59.1117 42.3584 60.3315 37.969 58.7874 37.0735C57.5676 36.3422 55.1293 39.1061 53.9095 42.927L53.6653 43.7397C53.7467 41.7886 53.0968 40.0002 50.2501 40.0002C47.4034 40.0002 44.8023 40.8944 42.9326 42.927C40.9 44.7967 40.0059 47.4792 40.0059 50.2445C40.0059 53.0097 41.7942 53.7411 43.7453 53.6597L42.9326 53.9039C39.1117 55.0423 36.3478 57.562 37.0791 58.7818ZM21.4699 10.9758C21.0628 15.6095 24.1524 18.2933 30.0072 18.2933C35.862 18.2933 38.9502 15.6108 38.5445 10.9758C38.2189 7.64202 36.4306 5.85369 32.6911 5.28517C35.3736 4.95952 36.6748 4.06536 36.512 2.68408C36.2677 0.977164 33.9109 0.00158691 30.0072 0.00158691C26.1036 0.00158691 23.7467 0.977164 23.5025 2.68408C23.3396 4.06672 24.6409 4.96088 27.3234 5.28517C23.5839 5.85369 21.7942 7.64338 21.4699 10.9758ZM21.4699 49.0247C21.7955 52.3584 23.5839 54.1468 27.3234 54.7153C24.6409 55.0409 23.3396 55.9351 23.5025 57.3164C23.7467 59.0233 26.1036 59.9989 30.0072 59.9989C33.9109 59.9989 36.2677 59.0233 36.512 57.3164C36.6748 55.9337 35.3736 55.0396 32.6911 54.7153C36.4306 54.1468 38.2202 52.3571 38.5445 49.0247C38.9516 44.391 35.862 41.7071 30.0072 41.7071C24.1524 41.7071 21.0642 44.3896 21.4699 49.0247ZM20.4943 30.0002C20.4943 33.0898 21.3071 35.448 22.9339 37.0735C24.5595 38.699 26.9177 39.5131 30.0072 39.5131C33.0968 39.5131 35.455 38.7004 37.0805 37.0735C38.706 35.448 39.5201 33.0898 39.5201 30.0002C39.5201 26.9107 38.7073 24.5525 37.0805 22.927C35.455 21.3015 33.0968 20.4873 30.0072 20.4873C26.9177 20.4873 24.5595 21.3001 22.9339 22.927C21.3084 24.5525 20.4943 26.9107 20.4943 30.0002ZM1.22567 37.0735C-0.318428 37.9677 0.900025 42.3584 1.71414 44.5538C2.52689 46.7492 4.55945 50.4073 6.59202 49.6759C7.24195 49.4317 7.40477 48.7004 7.32336 47.8062C7.81183 48.9446 8.46176 49.9202 9.27452 50.7329C10.0873 51.5457 11.0628 52.197 12.2012 52.6841C11.3071 52.6027 10.5757 52.7655 10.3315 53.4154C9.60016 55.448 13.2582 57.4806 15.4536 58.2933C17.649 59.1061 22.0384 60.3259 22.9339 58.7818C23.6653 57.562 20.9014 55.0423 17.0805 53.9039L16.2677 53.6597C18.2189 53.7411 20.0072 53.0911 20.0072 50.2445C20.0072 47.3978 19.113 44.7967 17.0805 42.927C15.2107 40.8944 12.5282 40.0002 9.76298 40.0002C6.99772 40.0002 6.26638 41.7886 6.34779 43.7397L6.10355 42.927C4.96515 39.1061 2.44548 36.3422 1.22567 37.0735ZM0.00585938 30.0002C0.00585938 33.9025 0.981436 36.2607 2.68836 36.505C4.07099 36.6678 4.96515 35.3666 5.28944 32.6841C5.85796 36.4236 7.64765 38.2133 10.9801 38.5375C15.6137 38.9446 18.2976 35.855 18.2976 30.0002C18.2976 24.1454 15.6151 21.0572 10.9801 21.4629C7.64629 21.7886 5.85796 23.5769 5.28944 27.3164C4.9638 24.6339 4.06963 23.3327 2.68836 23.4955C0.981436 23.7397 0.00585938 26.0966 0.00585938 30.0002ZM9.27452 9.26889C8.46176 10.0816 7.81047 11.0572 7.32336 12.1956C7.40477 11.3014 7.24195 10.5701 6.59202 10.3259C4.55945 9.59453 2.52689 13.2526 1.71414 15.448C0.901382 17.6434 -0.318428 22.0328 1.22567 22.9283C2.44548 23.6597 4.96515 20.8958 6.10355 17.0749L6.34779 16.2621C6.26638 18.2133 6.91631 20.0016 9.76298 20.0016C12.6097 20.0016 15.2107 19.1074 17.0805 17.0749C19.113 15.2051 20.0072 12.5226 20.0072 9.75735C20.0072 6.99209 18.2189 6.26075 16.2677 6.34216L17.0805 6.09792C20.9014 4.95952 23.6653 2.43985 22.9339 1.22004C22.0398 -0.324058 17.649 0.894396 15.4536 1.70851C13.2582 2.52126 9.60016 4.55383 10.3315 6.58639C10.5757 7.23632 11.3071 7.39914 12.2012 7.31773C11.0628 7.8062 10.0873 8.45613 9.27452 9.26889Z" fill="black"/>
<path d="M91.9008 30.2021C91.0867 28.7503 89.9903 27.5386 88.6416 26.597C87.3458 25.6933 85.7855 24.9294 84.0039 24.3243C83.9917 24.3202 83.9795 24.3161 83.9673 24.3121L78.4272 22.6404C77.377 22.308 76.5833 21.9118 76.069 21.4613C75.681 21.1221 75.5005 20.7042 75.5005 20.1424C75.5005 19.6893 75.6131 19.3188 75.8465 19.0095C76.103 18.6675 76.4652 18.407 76.9551 18.2144C77.5046 17.9973 78.1599 17.8874 78.9035 17.8874C80.1464 17.8874 81.0962 18.2103 81.8099 18.8738C82.5399 19.5536 83.0012 20.5102 83.221 21.7992L83.2631 22.5712C83.2753 22.7897 83.3391 23.004 83.4652 23.1832C83.6891 23.502 84.0419 23.673 84.4028 23.673C84.4992 23.673 84.5955 23.6608 84.6905 23.6363L91.2902 21.9145C91.894 21.7571 92.259 21.1424 92.1084 20.5359L91.9754 20.0027C91.4449 16.9484 90.0636 14.502 87.8696 12.7286C85.6783 10.9579 82.7108 10.061 79.0487 10.061C76.7068 10.061 74.5304 10.4776 72.5806 11.2971C70.5806 12.1397 68.9415 13.4057 67.7095 15.0624C66.449 16.7544 65.8112 18.8331 65.8112 21.2415C65.8112 24.1357 66.7434 26.4898 68.5806 28.2361C70.3119 29.8806 72.6416 31.1601 75.5059 32.0366L79.8424 33.4192C80.7285 33.715 81.4625 34.0176 82.0243 34.3202C82.4598 34.5549 82.7705 34.8249 82.9496 35.1221C83.1301 35.4233 83.2183 35.7951 83.2183 36.2578C83.2183 36.7897 83.1138 37.2252 82.8967 37.5929C82.7 37.9267 82.3947 38.1818 81.9619 38.3718C81.4557 38.5929 80.7814 38.7055 79.9578 38.7055C78.4476 38.7055 77.24 38.2836 76.2685 37.4165C75.2821 36.5373 74.5833 35.2062 74.1912 33.4613L74.0568 32.6173C74.0202 32.3853 73.9225 32.1628 73.761 31.9905C73.5358 31.7517 73.2332 31.6268 72.9266 31.6268C72.8004 31.6268 72.6742 31.6472 72.5521 31.6906L66.2929 33.867C65.5575 34.1221 65.1301 34.8887 65.2997 35.6486C66.7692 42.2442 71.2726 46.8168 79.6688 46.8168C82.3798 46.8168 84.7665 46.3283 86.7624 45.365C88.7963 44.3826 90.3852 43.0135 91.4829 41.2944C92.586 39.5685 93.145 37.5997 93.145 35.445C93.145 33.4382 92.7258 31.6743 91.8994 30.2008L91.9008 30.2021Z" fill="black"/>
</g>
<defs>
<clipPath id="clip0_162_357">
<rect width="215.989" height="60" fill="white" transform="translate(0.00585938)"/>
</clipPath>
</defs>
</svg>
