<svg width="79" height="30" viewBox="0 0 79 30" fill="none" xmlns="http://www.w3.org/2000/svg">
<g clip-path="url(#clip0_201_1842)">
<path d="M24.6303 10.8534C20.418 10.8534 16.9286 13.8013 16.9286 18.1942C16.9286 22.6146 20.418 25.5625 24.6303 25.5625C28.7572 25.5625 32.2497 22.6146 32.2497 18.1942C32.2466 13.8013 28.7572 10.8534 24.6303 10.8534ZM24.6303 21.8095C22.8307 21.8095 21.1958 20.3921 21.1958 18.1942C21.1958 16.0268 22.8307 14.5789 24.6303 14.5789C26.3476 14.5789 27.9825 16.0238 27.9825 18.1942C27.9825 20.3921 26.3476 21.8095 24.6303 21.8095Z" fill="#666666"/>
<path d="M48.6933 11.2146H43.3463L38.9418 15.9687H38.3318L38.2921 11.2054H33.8602L33.8999 25.1738H38.3318V20.1411H39.137L43.6513 25.1738H49.3308L42.599 17.8605L48.6933 11.2146Z" fill="#666666"/>
<path d="M58.4203 16.6911L55.1505 16.0238C54.2629 15.8278 54.0982 15.4391 54.0982 15.0503C54.0982 14.5483 54.4856 13.9666 55.6782 13.9666C57.0356 13.9666 57.8683 14.7442 58.0055 15.6074L62.0501 14.8023C61.4949 12.384 59.1951 10.7983 55.7331 10.7983C52.2132 10.7983 49.7486 12.6625 49.7486 15.5248C49.7486 17.7227 51.2158 19.1125 53.7932 19.584L56.6177 20.1411C57.6425 20.337 58.0025 20.6983 58.0025 21.1697C58.0025 21.7819 57.365 22.2809 56.2028 22.2809C55.0102 22.2809 53.9305 21.837 53.7383 20.6401L49.4162 21.5309C49.8859 24.3962 52.686 25.5901 55.9558 25.5901C59.613 25.5901 62.2727 23.9768 62.2727 20.8911C62.2697 18.834 61.0496 17.2483 58.4203 16.6911Z" fill="#666666"/>
<path d="M74.138 11.187L70.6181 19.3329L67.3208 11.187H62.5564L68.3182 24.6993L66.0733 29.9003H70.8682L78.9024 11.187H74.138Z" fill="#666666"/>
<path d="M8.75405 10.8013C8.19587 10.8013 7.68039 10.8595 7.19235 10.9636C9.5227 8.91254 10.6452 4.0054 7.77189 1.46153C6.00888 -0.0996945 3.83104 0.00132635 3.83104 0.00132635C3.30641 0.00132635 2.80923 0.0870407 2.3395 0.255408C1.86977 0.423774 1.46104 0.665611 1.11637 0.974795C0.768649 1.28398 0.497181 1.64826 0.301968 2.06153C0.103706 2.4748 0.00610054 2.92786 0.00610054 3.41764C0.00610054 3.8707 0.0823546 4.29009 0.231814 4.67275C0.381274 5.05846 0.582587 5.39825 0.835753 5.68907C1.08892 5.97989 1.37869 6.20642 1.70811 6.36866C2.03753 6.52785 2.3883 6.60744 2.76347 6.60744C3.12035 6.60744 3.40707 6.56152 3.62058 6.46662C3.83714 6.37172 4.0232 6.27377 4.18181 6.16968C4.34042 6.0656 4.7156 5.70438 5.20668 5.73499C5.4751 5.7503 5.71301 5.88805 5.87162 6.2003C6.03023 6.50948 6.10954 6.86458 6.10954 7.25948C6.10954 7.95744 5.95093 8.63703 5.63066 9.30744C5.31039 9.97479 4.88031 10.5932 4.33737 11.1564C3.79444 11.7197 3.14475 12.2248 2.3944 12.6656C1.64405 13.1064 0.847954 13.4523 0.00304968 13.6972V14.6646L0 14.6676V25.1768H4.43193V24.0656C5.5117 25.0391 6.95139 25.5932 8.75405 25.5932C12.4387 25.5932 15.5407 22.6176 15.5407 18.1972C15.5407 13.8044 12.4387 10.8013 8.75405 10.8013ZM7.839 21.8125C6.03938 21.8125 4.43193 20.3676 4.43193 18.1972C4.43193 16.0574 6.03938 14.5819 7.839 14.5819C9.77892 14.5819 11.1912 16.0544 11.1912 18.1972C11.1912 20.3676 9.77892 21.8125 7.839 21.8125Z" fill="#666666"/>
</g>
<defs>
<clipPath id="clip0_201_1842">
<rect width="79" height="30" fill="white"/>
</clipPath>
</defs>
</svg>
