<svg width="2280" height="812" viewBox="0 0 2280 812" fill="none" xmlns="http://www.w3.org/2000/svg">
<path fill-rule="evenodd" clip-rule="evenodd" d="M0.294922 811.331V0.656006H2279.71V811.331H0.294922Z" fill="#737373"/>
<path fill-rule="evenodd" clip-rule="evenodd" d="M1143.19 778.219C1447.4 778.219 1755.14 743.318 2038.2 626.11C2128.88 588.653 2249.64 517.32 2249.64 405.987C2249.64 294.395 2128.63 223.321 2038.2 185.864C1755.14 68.6694 1447.38 33.7678 1143.19 33.7678C839.763 33.7678 527.931 66.3738 246.396 185.864C162.832 221.272 30.3588 300.763 30.3588 405.987C30.3588 510.951 162.586 590.689 246.396 626.11C527.918 745.6 840.009 778.219 1143.19 778.219Z" fill="white"/>
<path fill-rule="evenodd" clip-rule="evenodd" d="M1464.21 444.987C1458.33 441.161 1451.97 438.359 1444.83 438.359H1339.1V455.687H1478.73C1485.59 455.687 1491.97 452.873 1497.84 449.319V555.035H1144.46C1150.57 549.938 1156.17 543.57 1156.17 535.412V266.64C1156.17 258.248 1150.57 251.867 1144.46 246.77H1497.82V342.305C1491.97 338.492 1485.59 335.678 1478.72 335.678H1339.09V355.807H1444.82C1451.96 355.807 1458.32 353.252 1464.19 349.192L1464.21 444.987ZM1801.74 493.39H1723.55L1708 539.498C1707.48 541.146 1707.22 542.866 1707.23 544.595C1707.23 548.421 1708.5 551.741 1710.29 555.048H1530.16C1534.23 550.976 1537.04 546.657 1539.08 541.287L1635.13 282.178C1637.44 275.809 1639.47 268.935 1639.47 262.308C1639.47 256.705 1637.44 251.608 1635.13 246.77H1926.32C1924.04 251.867 1921.75 256.964 1921.75 262.567C1921.75 269.441 1923.78 276.069 1926.32 282.178L2032.31 541.287C2034.36 546.903 2037.43 550.963 2042.01 555.048H1817.05C1818.57 551.235 1819.6 547.409 1819.6 543.337C1819.6 541.041 1819.33 539.005 1818.57 536.969L1801.74 493.39ZM814.783 441.913V535.153C814.783 543.557 820.14 549.679 826.248 555.022H613.013C618.875 549.679 624.478 543.557 624.478 535.153V266.899C624.478 258.248 618.875 252.373 613.013 246.77H826.261C820.14 252.127 814.796 258.235 814.796 266.899V359.633L876.701 266.899C878.491 264.098 880.008 260.79 880.008 257.211C880.008 253.644 878.231 250.077 876.701 246.77H1087.15C1078.1 251.488 1070.39 258.411 1064.72 266.899L990.835 374.159L1092.74 535.166C1098.09 543.83 1105.47 550.198 1114.64 555.035H869.568C871.344 552.493 873.64 549.692 873.64 546.644C873.64 542.572 871.604 538.486 869.568 535.166L814.783 441.913ZM318.755 246.77H537.088C530.979 252.127 525.622 257.976 525.622 266.64V535.166C525.622 543.57 530.979 549.692 537.088 555.035H318.755C324.617 549.692 329.96 543.57 329.96 535.166V266.64C329.96 257.976 324.617 252.127 318.755 246.77Z" fill="#737373"/>
<path fill-rule="evenodd" clip-rule="evenodd" d="M1743.66 431.226H1778.57L1760.49 382.058L1743.66 431.226Z" fill="white"/>
</svg>
