<svg width="19" height="34" viewBox="0 0 19 34" fill="none" xmlns="http://www.w3.org/2000/svg">
<path d="M12.3023 25.9061C12.4694 25.9408 12.4631 25.9502 12.5466 25.9912C12.6569 26.0416 12.7656 26.1314 12.8066 26.2512C12.8665 26.2606 12.9216 26.226 12.9673 26.196C13.1312 26.0652 13.2872 25.8919 13.2415 25.676C13.2257 25.6161 13.1974 25.5799 13.1359 25.5153C12.8806 25.3152 12.5166 25.3215 12.2078 25.3467C12.2078 25.3467 12.1968 25.3467 12.1621 25.3467C11.9068 25.3561 11.6468 25.3514 11.4435 25.2112C11.1741 25.0016 11.1331 24.6517 10.9944 24.3713C10.955 24.2389 10.9172 24.1049 10.8825 23.971C10.6304 23.0303 10.4602 22.0737 10.3862 21.0841C10.3862 21.0652 10.3862 21.0353 10.4114 21.0448C10.6509 21.2244 10.9156 21.3347 11.2103 21.3804C11.3553 21.4009 11.5302 21.4056 11.6247 21.2906C11.4892 21.1661 11.3143 21.0558 11.1851 20.9266C10.9897 20.7217 10.829 20.4901 10.7013 20.2411C10.3625 19.5824 10.2617 18.8024 10.4067 18.0602C10.0978 17.8112 9.82676 17.5717 9.54312 17.3117C9.28153 17.0548 9.01837 16.7901 8.7757 16.5096C8.29666 15.9581 7.89641 15.3498 7.74828 14.6423C7.7341 14.5777 7.72307 14.5131 7.71519 14.4485C7.71992 14.3429 7.66949 14.2042 7.75459 14.1144C7.77034 14.1097 7.79871 14.1049 7.80974 14.1191C7.8712 14.2956 7.93896 14.4705 8.01459 14.6439C8.10441 14.8487 8.20369 15.0488 8.31399 15.2442C8.56927 15.7201 8.92855 16.1267 9.31935 16.5096C9.94337 17.1226 10.6493 17.6757 11.1552 18.3596C11.3506 18.6149 11.4892 18.9048 11.6137 19.1995C11.7193 19.5273 11.7918 19.8834 11.806 20.2411C11.8123 20.4113 11.806 20.5815 11.7839 20.7517C11.8044 20.7769 11.8233 20.8021 11.8595 20.7926C11.9446 20.7375 11.9541 20.6429 11.9887 20.5578C12.0155 20.4601 12.036 20.3624 12.0549 20.2647C12.0549 20.2647 12.0549 20.26 12.0549 20.2569C12.0549 20.2521 12.0565 20.2474 12.0581 20.2427C12.222 19.2546 11.9383 18.2446 11.3695 17.4472C11.0937 17.0974 10.7801 16.7948 10.4555 16.5096C9.7716 15.9077 9.03886 15.3829 8.52042 14.6439C8.44636 14.5383 8.37703 14.4296 8.31242 14.3145C8.28248 14.2405 8.20684 14.1396 8.29193 14.0656C8.31242 14.0608 8.34236 14.0545 8.36284 14.0703L8.62285 14.3492C8.72843 14.4516 8.83873 14.5493 8.95062 14.6439C9.69124 15.2632 10.5548 15.6886 11.5743 15.6587C12.1684 15.5783 12.7026 15.2742 13.1328 14.8487L13.1485 14.7888C13.1391 14.7636 13.1186 14.7494 13.0981 14.7447C12.6002 14.7652 12.1211 14.7274 11.6578 14.6439C11.3033 14.5808 10.9582 14.4894 10.6257 14.3791C10.3216 14.2594 10.0159 14.1538 9.74167 13.9694C9.73694 13.9442 9.73694 13.9095 9.75112 13.8906C10.331 13.8702 10.9645 13.67 11.2891 13.1358C11.2844 13.1012 11.3143 13.046 11.2639 13.0318C10.8038 13.0665 10.3042 13.0712 9.85985 12.9767C9.82518 12.9767 9.81415 12.9467 9.81415 12.9168C9.81888 12.8963 9.84409 12.8869 9.85985 12.8711C10.0868 12.8585 10.3074 12.8286 10.5185 12.7781C10.8778 12.6915 11.2103 12.5418 11.5034 12.3022C11.5932 12.2329 11.6184 12.1226 11.7035 12.0564C11.7492 11.9666 11.8233 11.8768 11.7729 11.7665C11.2639 11.8516 10.7644 11.9808 10.2601 12.006C10.1356 12.0107 9.98119 12.017 9.85512 11.9965C9.82991 11.9666 9.85512 11.9319 9.87561 11.9114C10.1656 11.8311 10.4602 11.7822 10.7344 11.6719C11.1236 11.5269 11.5129 11.3772 11.7981 11.0369C11.8627 10.8966 11.9982 10.7627 11.9383 10.5972C11.9131 10.572 11.8879 10.5515 11.8485 10.5626C11.2891 10.7974 10.6997 10.977 10.0852 11.0826C10.0048 11.0778 9.91973 11.1377 9.85985 11.0668C9.82045 11.0274 9.89452 11.0369 9.88506 11.0022C10.5296 10.7832 11.1741 10.5736 11.6988 10.0977C11.8832 9.89757 12.0439 9.63284 11.9935 9.35865C11.9777 9.31926 11.9431 9.27986 11.8942 9.28459C11.4451 9.4989 10.9944 9.70848 10.5154 9.85818C10.4555 9.85818 10.4003 9.92279 10.3405 9.87394C10.3247 9.85345 10.3247 9.81878 10.3452 9.8046C10.7187 9.54302 11.1016 9.29562 11.4829 9.04664C11.8438 8.81027 12.2046 8.5739 12.556 8.32178C12.8003 8.13741 13.0556 7.93256 13.3045 7.74819C14.4391 6.85471 15.4571 5.73432 16.2859 4.52096C16.3962 4.36023 16.4908 4.19162 16.6058 4.03561C17.0407 3.23668 17.5151 2.43303 17.6853 1.52379C17.7499 1.01481 17.5797 0.490072 17.2409 0.0945477C17.1968 0.0551529 17.1558 0.00472739 17.0912 0C17.0549 0.00945477 17.0502 0.0504255 17.0407 0.0787898C17.0612 0.359281 16.9903 0.594075 16.9651 0.833596C16.9194 1.15821 16.8012 1.46864 16.7209 1.78222C16.3112 3.12638 15.6667 4.35865 14.7685 5.50425C13.678 6.96974 12.1952 8.0208 10.7013 9.04507C10.4697 9.20265 10.2396 9.36023 10.0096 9.51938C9.59984 9.83927 9.17123 10.1529 8.91595 10.6177C8.74576 10.9329 8.61182 11.2922 8.48576 11.6278C8.36284 12.0265 8.18163 12.4425 7.90901 12.7781C7.68052 13.0602 7.39058 13.284 7.02184 13.3911C6.9462 13.3864 6.83275 13.4463 6.78232 13.3612C6.76656 13.3107 6.79178 13.2714 6.82802 13.2414C7.06596 13.1406 7.25821 12.9767 7.40949 12.7781C7.54185 12.6048 7.64271 12.4031 7.71204 12.1967C7.95629 11.4671 8.12647 10.7028 8.50624 10.0284C8.69691 9.66751 8.93013 9.34447 9.19014 9.04507C9.79997 8.34384 10.5595 7.77182 11.2623 7.15726C11.4467 7.02647 11.6216 6.84683 11.8012 6.70659C12.6506 5.94863 13.4542 5.08352 14.0294 4.10968C14.25 3.70942 14.4391 3.29026 14.4943 2.8317C14.5888 2.29751 14.5069 1.68453 14.0546 1.393C13.9002 1.29373 13.7458 1.1393 13.5504 1.16294C13.511 1.17239 13.4905 1.20864 13.5062 1.24803C13.7505 1.59786 13.8151 2.11157 13.6906 2.52127C13.4007 3.55972 12.7924 4.47368 12.0817 5.31358C11.163 6.45761 9.94967 7.31169 8.87498 8.31547C8.73473 8.46517 8.55982 8.59912 8.45109 8.7693C8.37545 8.84967 8.28721 8.95525 8.21787 9.04507C8.21787 9.04507 8.21157 9.05452 8.20842 9.05925C8.20369 9.06398 8.20054 9.0687 8.19581 9.07501C7.91374 9.45477 7.71204 9.88339 7.55289 10.3136C7.35276 10.9171 7.22354 11.5474 7.05809 12.162C7.03287 12.3117 6.94778 12.4315 6.89893 12.567C6.84535 12.6458 6.77917 12.7403 6.6925 12.7781C6.65626 12.7939 6.61844 12.8002 6.57432 12.7907C6.56486 12.786 6.55541 12.7829 6.54595 12.7781C6.41359 12.7104 6.33795 12.5622 6.30958 12.4267C6.04012 11.2228 6.61371 10.1497 7.35276 9.27041C7.41579 9.19477 7.47882 9.11913 7.54343 9.04664C7.98938 8.53293 8.47315 8.04444 8.8214 7.47715C9.07668 7.05326 9.1665 6.44343 8.88128 6.01796C8.79619 5.82414 8.61182 5.6839 8.43218 5.5988C8.41642 5.57832 8.41642 5.55468 8.43218 5.53419C8.59133 5.4948 8.73631 5.56886 8.88601 5.57517C9.24529 5.61929 9.64081 5.56413 9.95913 5.43492C10.1687 5.32934 10.4035 5.17491 10.4634 4.93539C10.4791 4.8503 10.5233 4.72581 10.4287 4.6612C10.3531 4.63126 10.3736 4.73054 10.3389 4.76048C10.1734 4.93539 9.91973 5.0063 9.67391 5.0063C9.07983 4.94642 8.53933 4.76048 7.99568 4.58084C7.60016 4.46108 7.22197 4.32556 6.81699 4.2515C6.3868 4.2058 5.80375 4.1018 5.51853 4.50678C5.45865 4.60605 5.48387 4.71636 5.53429 4.81721C5.29477 4.84242 5.04422 4.83297 4.79524 4.8566C4.73536 4.67696 4.68021 4.50205 4.60142 4.33659C4.46117 4.36653 4.32723 4.41538 4.17123 4.39647C4.29099 4.5509 4.38554 4.72108 4.41548 4.91018C4.07038 5.01576 3.68588 5.13552 3.48103 5.45068C3.44163 5.55468 3.35024 5.65553 3.37545 5.77056C3.70952 5.62559 4.05935 5.51056 4.44857 5.49165L4.46905 5.50741C4.46905 5.6965 4.41863 5.89663 4.35875 6.07627C4.19959 6.12039 4.03886 6.09675 3.88443 6.11094C3.89389 6.13615 3.85922 6.16136 3.86867 6.18973C3.89389 6.36937 4.11292 6.35518 4.20747 6.43397C4.11292 6.62307 3.99316 6.8232 3.84346 6.9792C3.69849 6.84368 3.50309 6.72865 3.30454 6.73968C2.92005 6.70501 2.6301 6.99968 2.285 7.09423C2.20463 7.12417 2.11481 7.06902 2.04548 7.05484C2.01554 7.14939 2.08015 7.24866 2.16051 7.30854C2.22512 7.33375 2.28027 7.39836 2.34961 7.3826C2.44416 7.43303 2.57967 7.4283 2.69943 7.42357C2.96417 7.39836 3.15799 7.20927 3.40382 7.12417C3.50939 7.10999 3.61812 7.03908 3.7237 7.10369C3.70322 7.17302 3.61812 7.21399 3.56455 7.26915C3.23048 7.51339 2.81604 7.62843 2.59543 8.01292C2.54028 8.16262 2.53555 8.34226 2.60016 8.49196C2.71047 8.66688 2.89956 8.76773 3.10441 8.73779C3.10441 8.71257 3.09023 8.69209 3.0792 8.67318C2.99411 8.39899 3.28878 8.21935 3.45897 8.05862C3.57873 7.9231 3.66382 7.72297 3.574 7.54491C3.68903 7.45036 3.79776 7.36054 3.92383 7.27072C3.99474 7.45036 4.08929 7.62055 4.24371 7.76552C4.42336 7.91995 4.69912 7.98456 4.92288 7.88055C5.19234 7.76079 5.4618 7.48188 5.44289 7.16672C5.3121 7.30224 5.14349 7.39679 4.95282 7.43145C4.87246 7.3369 4.80312 7.28175 4.70857 7.19666C4.54469 7.07217 4.32408 7.03278 4.1145 7.07217C4.29414 6.86259 4.42966 6.63725 4.5636 6.40403C4.87876 6.37409 5.19234 6.30949 5.5075 6.23385C5.90145 6.15348 6.37577 6.17397 6.63104 6.51434C6.68147 6.56949 6.72087 6.64986 6.76184 6.73338C6.93202 7.21872 6.63104 7.66309 6.30801 8.00662C5.93769 8.38323 5.52956 8.72045 5.11355 9.05137C4.23268 9.7526 3.3203 10.427 2.68683 11.3835C2.52767 11.5931 2.3827 11.8437 2.27712 12.1037C2.16366 12.3164 2.07069 12.5449 1.99821 12.7844C1.81857 13.3738 1.76499 14.0277 1.85008 14.6502C1.91154 15.0898 2.04233 15.5169 2.24718 15.8951C2.35276 16.1157 2.48355 16.3221 2.63325 16.5175C3.26042 17.3306 4.23111 17.9199 5.13404 18.2777C6.15831 18.7031 7.2267 18.982 8.33606 19.1176L8.35654 19.138C8.49363 19.4847 8.58503 19.8661 8.60867 20.2506C8.63073 20.6098 8.59449 20.9723 8.48103 21.3158C8.46527 21.3568 8.4306 21.4009 8.44636 21.4513C8.61655 21.3914 8.78516 21.2717 8.91122 21.1472C9.00577 21.0826 9.05147 20.9833 9.13183 20.9029C9.15074 20.8982 9.16177 20.9077 9.17123 20.9234C9.3162 21.9729 9.56675 23.0113 9.94337 23.9852C9.94337 23.9852 9.94652 23.9899 9.94652 23.9931C9.94652 23.9946 9.94652 23.9978 9.94967 23.9994C10.0363 24.22 10.1293 24.439 10.2302 24.6549C10.2853 24.8298 10.4555 24.9638 10.4098 25.1544C10.3751 25.1985 10.32 25.2584 10.2554 25.2537C10.1813 25.249 10.0962 25.2442 10.0316 25.2238C9.82676 25.1686 9.62663 25.0741 9.42651 25.0189C9.1271 24.9685 8.69691 24.7983 8.44794 25.0741C8.40854 25.1497 8.40854 25.2442 8.44321 25.323C8.35339 25.3435 8.25411 25.3183 8.15326 25.3278C7.93896 25.323 7.75459 25.4523 7.65846 25.6382C7.62852 25.728 7.62852 25.8635 7.68368 25.9423C7.71834 26.0022 7.78295 26.0369 7.84913 26.0416C7.86962 26.0258 7.87435 26.0022 7.87907 25.9723C8.00829 25.7217 8.30296 25.6823 8.5677 25.6776C8.58818 25.6823 8.6134 25.7028 8.60236 25.728C8.5283 25.7926 8.43218 25.8273 8.3723 25.9077C8.29666 26.0132 8.25727 26.1377 8.32187 26.2669C8.37703 26.3725 8.4826 26.4513 8.61182 26.4513C8.65909 26.4513 8.65594 26.4718 8.67643 26.4513C8.66067 26.3568 8.72213 26.2559 8.79619 26.1818C9.11607 25.9329 9.52105 25.8824 9.93076 25.843C10.6903 25.7784 11.5664 25.7627 12.3039 25.9171M4.73379 6.0353C4.75742 5.96754 4.79367 5.8462 4.8173 5.72171C4.83621 5.62402 4.84409 5.60668 4.8504 5.46959C5.3515 5.46959 5.5989 5.4885 5.5989 5.64608C5.5989 5.86196 5.13877 5.97699 4.73221 6.0353M6.34425 5.31831C6.27019 5.31831 6.19928 5.30886 6.1394 5.26316C6.05903 5.1891 6.0543 5.06303 6.08424 4.96848C6.11418 4.91333 6.19455 4.95273 6.2497 4.95273C6.52862 5.00315 6.81384 5.04727 7.07857 5.12764C7.09433 5.13709 7.0833 5.15758 7.07857 5.17176C6.82487 5.2017 6.59953 5.29625 6.34425 5.31673M6.91311 16.9603C6.56801 16.85 6.23079 16.6987 5.91406 16.508C5.43502 16.2197 5.00482 15.8415 4.67075 15.3813C4.50372 15.156 4.36505 14.907 4.25632 14.6407C4.0168 14.0577 3.92383 13.4021 4.00892 12.775C4.04674 12.4945 4.1208 12.2187 4.23268 11.9587C4.38711 11.6042 4.58724 11.2543 4.8173 10.9502C5.03161 10.706 5.24277 10.4459 5.52641 10.2553C5.55162 10.2553 5.57684 10.2553 5.58629 10.2805V10.3309C5.42083 10.5752 5.28689 10.8194 5.16713 11.0904C4.93234 11.6183 4.76845 12.1982 4.74797 12.775C4.74324 12.8947 4.74482 13.0176 4.75427 13.1374C4.78264 13.6748 4.90397 14.1727 5.10252 14.6407C5.22071 14.9181 5.3641 15.1844 5.53429 15.4396C5.59417 15.5106 5.63357 15.6004 5.70448 15.654C5.94557 15.9801 6.24182 16.2591 6.55541 16.5065C6.72874 16.6436 6.90838 16.7696 7.08645 16.8878C7.12584 16.924 7.20621 16.9524 7.19676 17.0076C7.10693 17.0674 7.00766 16.9776 6.91784 16.9587" fill="#666666"/>
<path d="M13.8462 5.0536C12.7069 6.67194 10.994 7.69621 9.61514 9.06873C9.53478 9.1743 9.40556 9.24837 9.39453 9.38861C9.41029 9.40437 9.41974 9.42328 9.44496 9.43904C9.48435 9.44849 9.50956 9.43904 9.55526 9.42958C9.96024 9.08448 10.3652 8.77563 10.808 8.46992C11.1531 8.22095 11.4966 7.98143 11.8465 7.74033C13.0646 6.8311 14.2039 5.76271 14.9429 4.40437C15.2833 3.84969 15.5023 3.04131 15.132 2.4362C15.0926 2.36687 15.0469 2.29596 14.9918 2.2408C14.9524 2.22505 14.9067 2.24553 14.8972 2.27547C14.8972 2.39051 14.9114 2.50081 14.9114 2.61427C14.7964 3.51405 14.3725 4.33346 13.843 5.05202" fill="#666666"/>
<path d="M5.97441 26.2148C6.03902 26.2353 6.0989 26.1943 6.15405 26.1644C6.16351 26.1549 6.16981 26.1518 6.19345 26.1297C6.34315 26.0099 6.39358 25.8445 6.39358 25.6696C6.38885 25.501 6.22812 25.3859 6.09417 25.3355C6.06423 25.3229 6.05478 25.3197 6.02326 25.3103C5.69392 25.2094 5.32834 25.2504 4.97378 25.2551C4.87451 25.2394 4.74372 25.2599 4.69802 25.1511C4.67911 25.0865 4.70747 25.0109 4.73899 24.9557C4.96748 24.6248 5.20543 24.297 5.44495 23.9709C5.83574 23.4367 6.22969 22.9056 6.59213 22.3635C6.87577 21.9381 7.06171 21.4149 7.0759 20.9154C7.27602 21.1155 7.51554 21.2794 7.77555 21.385C7.84016 21.4007 7.92052 21.4196 7.9804 21.4007C7.74876 21.0493 7.5896 20.6554 7.49348 20.2409C7.42257 19.9337 7.38475 19.6138 7.37687 19.2939C7.24293 19.2545 7.09323 19.2482 6.95771 19.2135C6.444 19.0938 5.9492 18.8889 5.48434 18.6636C5.46543 19.1867 5.37246 19.7335 5.21961 20.2472C5.14082 20.5136 5.04312 20.7767 4.92966 21.0304C5.37088 21.0304 5.73332 20.731 6.04375 20.4757C5.92399 20.9705 5.7538 21.355 5.52374 21.9003C5.17549 22.7276 4.80517 23.3642 4.42698 23.9866C4.29934 24.1962 4.17013 24.4058 4.03461 24.6264C3.94479 24.7808 3.83448 24.9652 3.65012 25.0503C3.13641 25.1905 2.77082 24.7761 2.27129 24.8202C2.03492 24.8612 1.95614 24.9053 1.87735 24.9904C1.83165 25.0597 1.83795 25.1448 1.86789 25.2205C1.5874 25.1952 1.28327 25.1952 1.06423 25.3607C0.969687 25.4505 0.923989 25.586 0.963384 25.72C0.993324 25.8051 1.04848 25.8791 1.14775 25.9154C1.26751 25.6853 1.51176 25.5813 1.75758 25.5199C1.86159 25.5057 1.97189 25.4852 2.07274 25.5246C2.09796 25.5403 2.07747 25.5687 2.05699 25.5845C1.95771 25.6349 1.84741 25.6948 1.76704 25.7846C1.68667 25.8902 1.61734 26.0194 1.65673 26.1549C1.72922 26.3282 1.90729 26.3944 2.0759 26.3739C2.09008 26.3535 2.07117 26.3345 2.07117 26.3141C2.05068 26.125 2.23978 26.0241 2.38633 25.9437C2.86537 25.7783 3.41059 25.7783 3.93376 25.7641C4.36868 25.7389 4.80833 25.7688 5.24324 25.7988C5.49852 25.8287 5.7538 25.8728 5.94763 26.0336C5.99332 26.0793 6.00278 26.1596 5.97284 26.2132" fill="#666666"/>
<path d="M13.6263 22.989C13.7319 23.0142 13.7713 22.8897 13.8265 22.8299C14.1007 22.376 14.3654 21.9001 14.5214 21.3864C14.6427 21.0177 14.7136 20.6301 14.7278 20.2408C14.7672 19.2575 14.4631 18.2616 13.7871 17.5352C13.3963 17.0751 12.9267 16.7583 12.4224 16.5078C11.6928 16.1485 10.8876 15.9279 10.1423 15.6222C9.99729 15.5718 9.8728 15.4725 9.7231 15.4473C9.70261 15.463 9.69789 15.4867 9.70892 15.5119C10.1139 15.8806 10.5362 16.1879 10.9522 16.5078C11.5841 16.9931 12.205 17.5084 12.7392 18.3184C13.0874 18.8463 13.2939 19.1504 13.5034 19.7476C13.5633 19.9162 13.6137 20.0801 13.6579 20.2408C13.9053 21.1485 13.9037 21.9458 13.6531 22.7889C13.6531 22.8645 13.5885 22.9134 13.6279 22.989" fill="#666666"/>
<path d="M13.783 13.438C13.0582 13.8477 12.2986 14.1676 11.4508 14.2732C11.4461 14.2889 11.4367 14.3078 11.4508 14.3236C11.6116 14.3535 11.7707 14.3882 11.9409 14.3976C12.3648 14.4229 12.7855 14.437 13.1937 14.3677C13.3891 14.1676 13.5593 13.9438 13.7184 13.7185C13.7484 13.6334 13.8492 13.5641 13.8287 13.4632C13.824 13.4427 13.7988 13.4427 13.783 13.438Z" fill="#666666"/>
<path d="M14.9283 11.5611C14.7786 11.6257 14.6589 11.7549 14.5233 11.84C13.9025 12.2418 13.2422 12.5601 12.5426 12.7745C12.24 12.869 11.9296 12.9431 11.6113 12.9982L11.6065 13.0534C11.657 13.5135 11.2425 13.8633 10.877 14.0524V14.0824L10.9416 14.0918C11.241 14.0666 11.5309 13.9925 11.8114 13.9279C12.5646 13.679 13.299 13.3528 13.934 12.8296C13.9561 12.8123 13.9797 12.7949 14.0033 12.776C14.3279 12.5239 14.6415 12.2056 14.8874 11.8652C14.9126 11.7801 15.0071 11.7045 14.9929 11.6099C14.9772 11.5895 14.9583 11.5548 14.9283 11.5595" fill="#666666"/>
<path d="M15.7286 9.54269C15.4938 9.69712 15.3488 9.89724 15.1093 10.0469C14.8147 10.277 14.5153 10.4771 14.2048 10.671C13.5257 11.0602 12.8276 11.4053 12.087 11.6495C12.1122 12.0183 11.9814 12.3791 11.6867 12.6234C11.6914 12.6533 11.6426 12.6439 11.6426 12.6691C11.6426 12.6785 11.6426 12.6943 11.652 12.7037C12.276 12.5887 12.8607 12.3334 13.4358 12.0387C14.2095 11.5739 14.9691 11.0302 15.4985 10.2707C15.6388 10.0659 15.7633 9.86415 15.809 9.61202C15.8058 9.55687 15.7743 9.53796 15.7286 9.54269Z" fill="#666666"/>
<path d="M18.1574 2.42544C18.1274 2.28047 18.1322 2.12132 18.0581 1.99525C18.0439 1.96531 17.9935 1.96531 17.973 1.99052C17.8832 2.21114 17.8076 2.4349 17.7177 2.64921C17.2986 3.51274 16.8384 4.37785 16.2192 5.13581C15.7701 5.76613 15.1854 6.28929 14.6859 6.86446C14.6812 6.88495 14.6702 6.91961 14.6859 6.93852C14.7111 6.96846 14.7552 6.95901 14.7805 6.95901L15.0247 6.76361C16.0789 5.86541 17.0874 4.91993 17.8722 3.75699C18.1211 3.37722 18.211 2.89818 18.1558 2.42229" fill="#666666"/>
<path d="M16.5298 7.28956C15.9215 7.94509 15.2502 8.52814 14.5364 9.04342C13.8131 9.56501 13.0457 10.0141 12.2546 10.397C12.3397 10.6665 12.294 10.9659 12.1443 11.2117C12.1097 11.2716 12.0451 11.3173 12.0293 11.3819C12.0451 11.4118 12.075 11.3866 12.0986 11.3866C13.3766 10.8304 14.6467 10.1008 15.6457 9.045C15.7954 8.88742 15.9373 8.72196 16.0744 8.5502C16.3391 8.17674 16.6133 7.79067 16.648 7.33053C16.6385 7.27065 16.5676 7.27065 16.5282 7.29114" fill="#666666"/>
<path d="M17.6868 4.45798C16.2528 6.34421 14.3114 7.86643 12.3369 9.04355C12.3086 9.05931 12.2818 9.07664 12.2534 9.0924C12.2629 9.14755 12.2928 9.2027 12.318 9.25786C12.4079 9.51786 12.3574 9.82199 12.1983 10.0379C12.1888 10.0568 12.1936 10.0773 12.2077 10.0867C12.7829 9.76526 13.3486 9.42016 13.8986 9.04512C14.9165 8.3502 15.8699 7.55442 16.6877 6.61682C17.1226 6.08263 17.4819 5.53268 17.7372 4.91812C17.7829 4.77787 17.8412 4.6392 17.8365 4.4832C17.8223 4.40756 17.7262 4.40283 17.6868 4.45798Z" fill="#666666"/>
<path d="M14.8151 31.8776C14.6685 32.0194 14.5787 32.0966 14.4053 32.2022C14.0855 32.396 13.8649 32.4528 13.4945 32.4985C13.3102 32.5205 13.203 32.5237 13.0186 32.5111C12.8343 32.4969 12.7287 32.4827 12.5538 32.4276C12.2828 32.344 12.1267 32.2684 11.9109 32.0825C11.7659 31.958 11.6997 31.8681 11.5894 31.7106C11.5059 31.5908 11.4633 31.5199 11.3987 31.3891C11.3231 31.2363 11.29 31.1449 11.2412 30.981C11.1907 30.8139 11.1671 30.7178 11.145 30.5461C11.1308 30.4279 11.1277 30.3617 11.1261 30.2435C11.1198 29.7487 11.1561 29.4414 11.3798 29.0018C11.4429 28.8773 11.4822 28.808 11.5658 28.6945C11.6288 28.6078 11.6666 28.5621 11.7423 28.4849C11.9077 28.3147 12.018 28.2312 12.2292 28.1225C12.6988 27.8782 13.058 27.8593 13.5765 27.9633C14.0634 28.061 14.3344 28.2281 14.6984 28.5653C14.7694 28.6299 14.8103 28.6913 14.8702 28.7386C14.9065 28.726 14.9348 28.7055 14.9663 28.6835C14.9663 28.6315 14.8702 27.5694 14.8497 27.5363C14.7378 27.5048 14.6386 27.4843 14.5015 27.4543C13.9704 27.344 13.6631 27.2589 13.1211 27.2857C12.5081 27.3157 12.1394 27.3834 11.5957 27.6655C11.539 27.6939 11.5075 27.7112 11.4523 27.7443C11.3909 27.7805 11.3562 27.8026 11.2979 27.8436C11.1907 27.9192 11.134 27.9665 11.0379 28.0563C10.9953 28.0957 10.9733 28.1193 10.9323 28.1619C10.8236 28.2753 10.7621 28.3415 10.6676 28.4676C10.4312 28.7843 10.3414 29.0034 10.2248 29.38C10.1806 29.5218 10.1602 29.6022 10.1334 29.7471C10.0719 30.0906 10.0955 30.2939 10.1145 30.6438C10.1176 30.6895 10.1176 30.7147 10.1208 30.7588C10.1476 31.0629 10.209 31.2331 10.3288 31.5152C10.406 31.698 10.458 31.8004 10.5667 31.9658C10.7558 32.2511 10.8992 32.3945 11.1702 32.604C11.4255 32.8026 11.5926 32.8908 11.892 33.0138C12.5443 33.2816 12.9903 33.2974 13.6899 33.2091C13.8459 33.1887 13.9342 33.1745 14.0886 33.1367C14.1926 33.1115 14.2493 33.0941 14.3518 33.0626C14.5614 32.9996 14.7237 32.9365 14.8828 32.8782C14.8875 32.8609 14.9758 31.8697 14.9947 31.8461C14.9711 31.824 14.9474 31.7957 14.9143 31.7846C14.8781 31.8083 14.8576 31.8461 14.8198 31.8823" fill="#666666"/>
<path d="M3.55657 31.8271L3.49984 31.7798L3.49039 31.7893C3.47778 31.7924 3.48093 31.8066 3.46833 31.8066C3.20359 32.0477 2.90892 32.2006 2.58746 32.3124C2.25181 32.4464 1.87205 32.4653 1.49385 32.4621V28.3871C1.49385 28.2815 1.52695 28.1728 1.55846 28.0657C1.61046 27.8466 1.74441 27.6323 1.93193 27.5031C1.94453 27.4937 1.95083 27.4873 1.96502 27.4826C1.96974 27.4779 1.9792 27.47 1.9792 27.4653C1.95556 27.429 1.9398 27.3865 1.91144 27.355H0.167034C0.152852 27.3881 0.116609 27.4196 0.121336 27.4574C0.376615 27.7347 0.483769 28.0972 0.479042 28.4596V31.7325C0.485345 31.8901 0.471163 32.0587 0.439647 32.2195C0.375039 32.4889 0.288371 32.7395 0.0992751 32.9522C0.0929719 32.9569 0.0835172 32.9743 0.0803656 32.9774C0.0504255 33.0121 0.0189095 33.0278 0 33.0625C0.00787898 33.1003 0.0267885 33.1271 0.0315159 33.1618H3.09486C3.12953 33.1618 3.12953 33.1618 3.14529 33.124C3.25244 32.8261 3.35014 32.5267 3.4573 32.2321C3.49039 32.1218 3.53136 32.0146 3.5739 31.9075C3.57706 31.8901 3.59281 31.8791 3.58651 31.8618C3.57863 31.846 3.55499 31.8476 3.55815 31.8287" fill="#666666"/>
<path d="M8.23057 30.8285C8.24632 30.8458 8.26681 30.8568 8.26838 30.8742C8.26838 30.8742 8.38972 30.8285 8.38972 30.8143C8.38972 30.4534 8.38657 29.6498 8.38972 29.4433C8.38184 29.4244 8.31723 29.374 8.29832 29.3661C8.22269 29.4764 8.11238 29.5458 7.96898 29.6245C7.82243 29.7049 7.72631 29.7285 7.564 29.7648C7.38594 29.8042 7.28036 29.8026 7.09599 29.8089C7.00302 29.8121 6.93684 29.8042 6.85962 29.8089C6.85962 29.8089 6.8549 28.2473 6.86277 28.0204C6.87696 28.0235 6.88641 28.0062 6.90059 28.0062C6.98253 28.0188 7.16533 28.0141 7.33236 28.0298C7.52146 28.0472 7.62861 28.0551 7.81456 28.0945C7.92013 28.1165 7.97844 28.1307 8.08086 28.1638C8.1565 28.1874 8.19905 28.2 8.27154 28.2331C8.42281 28.3009 8.53154 28.3592 8.62609 28.4648C8.61821 28.4931 8.645 28.4742 8.65761 28.4837C8.68124 28.4679 8.71276 28.4459 8.7427 28.4348C8.77106 28.4175 8.74112 28.3923 8.75215 28.3686C8.72221 28.126 8.69542 27.8565 8.66706 27.6107C8.65288 27.5272 8.66076 27.4468 8.64973 27.3633H5.50759C5.48553 27.3964 5.46032 27.4279 5.44613 27.4657C5.54856 27.5272 5.63208 27.6249 5.69669 27.7289C5.81802 27.9479 5.87317 28.1906 5.88736 28.4522C5.89051 28.6996 5.88263 31.8968 5.88736 31.9142C5.8779 32.2561 5.80542 32.5729 5.63208 32.8439C5.59426 32.8864 5.56274 32.9337 5.52177 32.9747C5.50444 33.0109 5.45716 33.0283 5.44141 33.0645C5.45874 33.0944 5.46347 33.1386 5.48395 33.1717H7.21733C7.23939 33.1323 7.24884 33.085 7.2646 33.0472C7.17321 32.9684 7.09914 32.8959 7.02351 32.7761C6.94156 32.6422 6.87853 32.483 6.87853 32.3995V30.466C7.17005 30.4566 7.40642 30.4818 7.72946 30.5653C7.76886 30.5748 7.79249 30.5811 7.83189 30.5937C7.87128 30.6078 7.89177 30.6173 7.92959 30.6346C8.05565 30.6929 8.13287 30.7292 8.22741 30.8316" fill="#666666"/>
<path d="M8.47853 32.3457C8.24824 32.3457 8.06055 32.5334 8.06055 32.7637C8.06055 32.994 8.24667 33.1817 8.47853 33.1817C8.71039 33.1817 8.89651 32.994 8.89651 32.7637C8.89651 32.5334 8.71039 32.3457 8.47853 32.3457Z" fill="#666666"/>
<path d="M4.27736 32.3457C4.04707 32.3457 3.85938 32.5334 3.85938 32.7637C3.85938 32.994 4.04707 33.1817 4.27736 33.1817C4.50764 33.1817 4.69534 32.994 4.69534 32.7637C4.69534 32.5334 4.50764 32.3457 4.27736 32.3457Z" fill="#666666"/>
<path d="M16.0078 32.3457C15.7775 32.3457 15.5898 32.5334 15.5898 32.7637C15.5898 32.994 15.776 33.1817 16.0078 33.1817C16.2397 33.1817 16.4258 32.994 16.4258 32.7637C16.4258 32.5334 16.2397 32.3457 16.0078 32.3457Z" fill="#666666"/>
<path d="M12.3731 20.9087C12.2786 21.0032 12.2266 21.1261 12.2266 21.2538C12.2266 21.3814 12.2754 21.498 12.3668 21.591C12.4598 21.684 12.578 21.7344 12.7072 21.7344C12.8364 21.7344 12.9546 21.684 13.0491 21.591C13.1405 21.5028 13.1894 21.3846 13.1894 21.2522C13.1894 21.1198 13.1389 21.0032 13.0507 20.9134C12.9577 20.8189 12.838 20.77 12.7072 20.77C12.5764 20.77 12.4614 20.8173 12.3731 20.9071M13.0082 20.9591C13.0854 21.0363 13.1263 21.1403 13.1263 21.2569C13.1263 21.3735 13.0838 21.4712 13.005 21.5485C12.9215 21.6288 12.8191 21.6714 12.7056 21.6714C12.5985 21.6714 12.4929 21.6273 12.4141 21.5469C12.3353 21.4665 12.2912 21.3625 12.2912 21.2538C12.2912 21.1451 12.3369 21.0363 12.4188 20.9528C12.4944 20.8756 12.5985 20.8346 12.7103 20.8346C12.8222 20.8346 12.9278 20.8772 13.0082 20.9591Z" fill="#666666"/>
<path d="M12.6205 21.2859H12.723L12.835 21.5194H12.9501L12.8287 21.2702C12.9075 21.2544 12.9533 21.2008 12.9533 21.1235C12.9533 21.0241 12.8792 20.9736 12.7262 20.9736H12.5195V21.5194H12.6221V21.2859H12.6205ZM12.6205 21.0399H12.7057C12.8019 21.0399 12.846 21.0667 12.846 21.1345C12.846 21.2023 12.8019 21.2213 12.7072 21.2213H12.6205V21.0399Z" fill="#666666"/>
</svg>
