<svg width="29" height="25" viewBox="0 0 29 25" fill="none" xmlns="http://www.w3.org/2000/svg">
<path d="M28.394 0H0V24.8388H28.394V0ZM24.9273 21.6915H15.3041C15.3041 21.6915 5.79328 7.03144 5.7359 7.07665V19.3937C5.7359 20.9189 7.31703 21.5648 7.31703 21.5648L7.35913 21.6886H3.39453C3.39453 21.6838 3.43432 21.5696 3.43479 21.5684C3.43571 21.5684 4.39123 21.2234 4.39123 19.3919C4.39123 15.82 4.38244 8.88373 4.38614 5.28384C4.38614 4.26788 3.54029 3.36017 2.64538 3.02053L2.60142 2.89562H6.31153L15.23 16.9793V5.37128C15.23 4.25301 14.5545 3.40122 13.6707 3.02172L13.6272 2.89502H24.0967V6.65432C24.0523 6.62756 24.0009 6.60317 24.0009 6.60317C24.0009 6.60317 23.6544 5.27076 22.8566 4.74136C22.5841 4.55875 21.033 4.62597 17.6417 4.62597V10.5326H22.8104C23.6969 10.5326 23.9209 9.48391 23.9311 9.47856L24.0273 9.42562C24.0273 9.42562 24.0319 12.1928 24.0319 13.5156L23.9352 13.4639C23.9352 13.4639 23.6992 12.2368 22.8094 12.2368H17.6422V19.988C20.9646 19.988 23.0209 20.1605 23.9445 19.5621C24.6562 19.0892 25.154 17.3445 25.154 17.3445C25.154 17.3445 25.2026 17.3208 25.2535 17.2898C25.1402 18.8066 25.0407 20.1218 24.9273 21.6915Z" fill="#666666"/>
</svg>
