<svg width="72" height="29" viewBox="0 0 72 29" fill="none" xmlns="http://www.w3.org/2000/svg">
<path d="M1.00977 10.4717V14.3005L11.2346 13.1644V9.02028L1.00977 10.4717ZM4.27269 14.5334V27.6535H8.01611V14.1469L4.27269 14.5334ZM12.6155 8.8243V27.6535H16.56V8.26407L12.6155 8.8243ZM17.2949 8.15965V12.4911L22.9908 11.8581V7.35123L17.2949 8.15965ZM17.2949 15.715V20.1255L21.0339 19.9195V15.39L17.2949 15.715ZM17.2949 23.3045V27.6535H22.9908V23.1309L17.2949 23.3045ZM37.721 5.2533V27.6535H42.892V4.51911L37.721 5.2533ZM43.8576 4.38186V9.53442L51.3933 8.69745V3.31179L43.8576 4.38186ZM43.8576 13.4095V18.6575L48.7968 18.385V12.9822L43.8576 13.4095ZM43.8576 22.4934V27.6535H51.3933V22.2636L43.8576 22.4934ZM24.4979 7.13689V27.6535H28.9912V6.49876L24.4979 7.13689ZM29.8298 22.9225V27.6533H36.352V22.7237L29.8298 22.9225ZM68.288 3.05849C66.6537 1.49875 64.2575 0.858993 61.6366 1.23934V6.95416C62.6979 6.89461 63.5579 7.2925 63.9411 8.09358C64.5462 9.35658 63.922 11.2516 62.4494 13.0073C60.1765 15.7167 54.1326 21.2622 54.1326 21.2622L62.8089 20.9741C68.1103 15.7422 70.0141 12.5664 70.3557 8.60282C70.5352 6.5059 69.7818 4.48546 68.288 3.05849ZM70.6614 27.6535V21.6738L53.0632 22.2093M53.0632 22.2093L53.065 27.6533H70.6614M60.6249 1.36762C55.5125 2.46747 53.002 6.26688 53.2917 12.4665L58.7427 11.9778C58.4944 8.47535 59.5549 7.6445 60.6275 7.18767L60.6249 1.36762Z" fill="#666666"/>
</svg>
