<svg width="2704" height="379" viewBox="0 0 2704 379" fill="none" xmlns="http://www.w3.org/2000/svg">
<g clip-path="url(#clip0_92_161)">
<path d="M2704 236.224C2704 215.867 2692.01 205.345 2673.46 198.116C2658.84 192.442 2646.03 187.622 2636.26 183.91C2626.54 180.197 2618.26 173.752 2618.26 166.775C2618.26 157.248 2630.5 151.714 2646.71 151.714C2665.85 151.714 2680.9 154.292 2695.43 155.567H2695.86C2696.36 155.571 2696.85 155.474 2697.31 155.283C2697.77 155.092 2698.18 154.809 2698.53 154.453C2698.88 154.097 2699.15 153.675 2699.33 153.211C2699.51 152.748 2699.59 152.253 2699.57 151.756V136.036C2699.57 133.935 2697.85 132.436 2695.64 132.029C2688.18 130.306 2669.02 126.453 2648.06 126.453C2607.19 126.453 2587.71 143.42 2587.71 166.775C2587.71 181.598 2594.5 196.225 2613.63 203.86C2632.83 211.51 2672.13 220.323 2672.13 236.224C2672.13 248.525 2666.19 255.278 2646.61 255.278C2626.3 255.278 2605.73 252.504 2596.93 251.44H2596.51C2595.42 251.425 2594.37 251.842 2593.59 252.601C2592.81 253.36 2592.36 254.399 2592.34 255.489V270.76C2592.34 273.1 2594.3 274.571 2596.5 274.991C2607.06 277.331 2626.77 280.567 2646.18 280.567C2690.17 280.567 2704 257.632 2704 236.224ZM1288.2 236.224C1288.2 215.867 1276.22 205.345 1257.65 198.116C1243.04 192.442 1230.22 187.622 1220.46 183.91C1210.73 180.197 1202.47 173.752 1202.47 166.775C1202.47 157.248 1214.7 151.714 1230.91 151.714C1250.06 151.714 1265.09 154.292 1279.62 155.567H1280.06C1280.55 155.571 1281.05 155.474 1281.51 155.283C1281.96 155.092 1282.38 154.809 1282.73 154.453C1283.07 154.097 1283.34 153.675 1283.52 153.211C1283.7 152.748 1283.79 152.253 1283.77 151.756V136.036C1283.77 133.935 1282.05 132.436 1279.85 132.029C1272.37 130.306 1253.2 126.453 1232.24 126.453C1191.39 126.453 1171.9 143.42 1171.9 166.775C1171.9 181.598 1178.68 196.225 1197.82 203.86C1217.01 211.51 1256.31 220.323 1256.31 236.224C1256.31 248.525 1250.38 255.278 1230.81 255.278C1210.5 255.278 1189.91 252.504 1181.12 251.44H1180.7C1179.61 251.425 1178.55 251.842 1177.77 252.601C1176.99 253.36 1176.54 254.399 1176.52 255.489V270.76C1176.52 273.1 1178.48 274.571 1180.68 274.991C1191.25 277.331 1210.96 280.567 1230.36 280.567C1274.35 280.567 1288.2 257.632 1288.2 236.224ZM1614.36 270.368V132.197C1614.36 129.844 1612.59 128.162 1610.18 128.162H1591.27C1588.83 128.162 1587.08 129.844 1587.08 132.197V236.855C1587.08 238.102 1586.46 238.774 1586.02 238.774C1585.31 238.774 1584.68 238.102 1584.26 237.065L1522.27 134.971C1519.61 129.423 1517.2 128.162 1512.6 128.162H1488.84C1486.56 128.129 1484.35 129.002 1482.71 130.592C1481.08 132.181 1480.13 134.356 1480.1 136.639V274.627C1480.1 276.938 1482.02 278.872 1484.48 278.872H1503.12C1505.54 278.872 1507.32 276.938 1507.32 274.627V174.831C1507.32 173.57 1507.78 173.122 1508.41 173.122C1509.07 173.122 1509.76 173.584 1510.37 174.831L1570 271.236C1573.45 278.872 1578.09 278.872 1583.35 278.872H1605.59C1607.88 278.906 1610.09 278.029 1611.74 276.435C1613.38 274.841 1614.32 272.659 1614.36 270.368ZM1143.22 275.692V136.625C1143.17 134.336 1142.22 132.159 1140.57 130.57C1138.92 128.982 1136.71 128.111 1134.42 128.148H1116.39C1114.7 128.173 1113.05 128.659 1111.61 129.556C1110.18 130.453 1109.02 131.725 1108.26 133.234L1066.12 216.119C1065 218.039 1064.55 219.09 1063.69 219.09C1062.77 219.09 1062.32 218.039 1061.24 216.119L1019.07 133.248C1018.31 131.741 1017.16 130.47 1015.73 129.574C1014.3 128.677 1012.65 128.189 1010.96 128.162H992.928C990.639 128.125 988.428 128.996 986.779 130.584C985.13 132.173 984.178 134.35 984.13 136.639V275.677C984.13 277.779 985.895 278.872 987.899 278.872H1010.06C1012.05 278.872 1013.59 276.714 1013.59 274.627V182.887C1013.59 181.402 1013.82 180.785 1014.25 180.785C1014.45 180.785 1014.9 181.402 1015.37 182.046L1051.09 257.884C1052.35 260.21 1055.22 261.499 1058.09 261.499H1069.51C1072.37 261.499 1075.21 260.21 1076.5 257.884L1111.97 182.046C1112.45 181.402 1112.89 180.785 1113.05 180.785C1113.53 180.785 1113.75 181.402 1113.75 182.887V274.627C1113.75 276.714 1115.29 278.872 1117.26 278.872H1139.45C1141.44 278.872 1143.22 277.793 1143.22 275.677V275.692ZM1419.98 192.652C1419.98 164.659 1402.47 152.134 1380.92 152.134C1359.38 152.134 1341.84 164.659 1341.84 192.652V214.368C1341.84 242.375 1359.38 254.858 1380.92 254.858C1402.45 254.858 1419.98 242.375 1419.98 214.368V192.652ZM1450.77 192.652V214.368C1450.77 261.037 1417.19 280.553 1380.92 280.553C1344.67 280.553 1311.1 261.037 1311.1 214.354V192.652C1311.1 145.998 1344.67 126.481 1380.92 126.481C1417.19 126.481 1450.77 145.984 1450.77 192.652ZM926.421 192.652C926.421 164.659 908.908 152.134 887.36 152.134C865.826 152.134 848.285 164.659 848.285 192.652V214.368C848.285 242.375 865.826 254.858 887.374 254.858C908.908 254.858 926.421 242.375 926.421 214.368V192.652ZM957.23 192.652V214.368C957.23 261.037 923.633 280.553 887.36 280.553C851.115 280.553 817.561 261.037 817.561 214.354V192.652C817.561 145.998 851.115 126.481 887.36 126.481C923.633 126.481 957.23 145.984 957.23 192.652ZM787.593 274.613V132.197C787.593 129.844 785.589 128.162 783.193 128.162H761.477C759.011 128.162 757.036 129.844 757.036 132.197V187.286H687.432V132.197C687.432 129.844 685.443 128.162 683.061 128.162H661.317C658.865 128.162 656.904 129.844 656.904 132.197V274.627C656.904 276.938 658.865 278.872 661.317 278.872H683.061C684.201 278.879 685.298 278.439 686.116 277.644C686.934 276.85 687.407 275.766 687.432 274.627V213.163H757.036V274.627C757.036 276.938 758.997 278.872 761.477 278.872H783.193C785.575 278.872 787.593 276.924 787.593 274.613ZM2273.38 152.751H2229.55V274.627C2229.52 275.777 2229.04 276.87 2228.21 277.665C2227.38 278.461 2226.26 278.894 2225.11 278.872H2203.4C2202.25 278.887 2201.15 278.449 2200.33 277.654C2199.51 276.858 2199.03 275.77 2199.01 274.627V152.751H2155.13C2152.72 152.751 2150.72 151.294 2150.72 148.968V132.197C2150.72 129.844 2152.72 128.162 2155.13 128.162H2273.38C2275.79 128.162 2277.78 129.844 2277.78 132.197V148.954C2277.78 151.293 2275.79 152.751 2273.38 152.751ZM627.02 152.751H583.195V274.627C583.166 275.775 582.684 276.865 581.855 277.66C581.026 278.455 579.917 278.891 578.768 278.872H557.052C555.909 278.887 554.806 278.449 553.984 277.654C553.162 276.858 552.689 275.77 552.667 274.627V152.751H508.772C506.377 152.751 504.373 151.294 504.373 148.968V132.197C504.373 129.844 506.377 128.162 508.772 128.162H627.02C629.444 128.162 631.433 129.844 631.433 132.197V148.954C631.433 151.293 629.43 152.751 627.02 152.751ZM2131.28 220.491V132.197C2131.28 129.844 2129.29 128.162 2126.86 128.162H2105.1C2102.69 128.162 2100.73 129.844 2100.73 132.197V220.491C2100.73 244.687 2089.16 256.147 2065.42 256.147C2041.72 256.147 2030.13 244.687 2030.13 220.491V132.197C2030.13 129.844 2028.17 128.162 2025.73 128.162H2004.01C2001.6 128.162 1999.6 129.844 1999.6 132.197V220.491C1999.6 265.702 2030.06 280.553 2065.42 280.553C2100.81 280.553 2131.28 265.702 2131.28 220.491ZM2328.33 213.163H2398.66C2399.8 213.178 2400.9 212.745 2401.72 211.956C2402.54 211.167 2403.02 210.086 2403.06 208.946V193.619C2403.02 192.479 2402.54 191.398 2401.72 190.609C2400.9 189.82 2399.8 189.386 2398.66 189.402H2328.33V169.927C2328.33 152.19 2329.03 151.714 2345.64 151.714H2401.29C2402.44 151.722 2403.54 151.28 2404.36 150.483C2405.18 149.687 2405.66 148.599 2405.69 147.455V133.879C2405.69 130.894 2404.58 129.816 2401.29 129.409C2394.24 128.373 2379.94 126.467 2353.8 126.467C2317.33 126.467 2297.97 126.215 2297.97 169.927V237.051C2297.97 280.763 2317.33 280.539 2353.8 280.539C2379.94 280.539 2394.24 278.634 2401.29 277.569C2404.58 277.149 2405.69 276.084 2405.69 273.086V259.552C2405.66 258.409 2405.18 257.325 2404.36 256.533C2403.54 255.741 2402.43 255.305 2401.29 255.32H2345.64C2329.03 255.32 2328.33 254.83 2328.33 237.051V213.163ZM1894.12 213.163H1964.45C1965.59 213.182 1966.7 212.75 1967.52 211.961C1968.35 211.171 1968.83 210.088 1968.86 208.946V193.619C1968.83 192.477 1968.35 191.394 1967.52 190.604C1966.7 189.815 1965.59 189.383 1964.45 189.402H1894.12V169.927C1894.12 152.19 1894.82 151.714 1911.45 151.714H1967.08C1968.23 151.725 1969.34 151.285 1970.16 150.488C1970.99 149.691 1971.47 148.602 1971.5 147.455V133.879C1971.5 130.894 1970.38 129.816 1967.08 129.409C1960.05 128.373 1945.73 126.467 1919.59 126.467C1883.12 126.467 1863.77 126.215 1863.77 169.927V237.051C1863.77 280.763 1883.12 280.539 1919.6 280.539C1945.73 280.539 1960.05 278.634 1967.08 277.569C1970.38 277.149 1971.5 276.084 1971.5 273.086V259.552C1971.47 258.407 1970.99 257.32 1970.16 256.528C1969.33 255.736 1968.23 255.302 1967.08 255.32H1911.45C1894.82 255.32 1894.12 254.83 1894.12 237.051V213.163ZM2534.11 174.411C2534.11 158.495 2521.32 151.714 2499.34 151.714C2494.71 151.714 2474.71 152.134 2470.78 152.554V198.55C2474.27 198.775 2495.57 199.209 2499.34 199.209C2521.95 199.209 2534.1 195.006 2534.1 176.344L2534.11 174.411ZM2569.7 276.336C2569.7 277.793 2568.83 278.858 2567.08 278.858H2540.23C2537.82 278.858 2536.94 276.714 2535.85 274.627L2504.2 223.181H2499.34C2493.59 223.181 2475.84 222.564 2470.78 222.312V274.627C2470.79 275.183 2470.69 275.736 2470.48 276.252C2470.28 276.769 2469.97 277.239 2469.58 277.634C2469.18 278.03 2468.72 278.343 2468.2 278.556C2467.69 278.768 2467.14 278.876 2466.58 278.872H2444.61C2443.47 278.883 2442.37 278.444 2441.55 277.649C2440.73 276.855 2440.25 275.769 2440.23 274.627V135.56C2440.23 131.315 2442.83 129.816 2447.26 129.199C2458.71 127.518 2483.27 126.453 2499.34 126.453C2533.17 126.453 2564.41 138.138 2564.41 174.397V176.33C2564.41 198.775 2552.79 211.076 2534.77 217.829L2569.25 274.613C2569.71 275.243 2569.71 275.846 2569.71 276.322L2569.7 276.336ZM1804.66 174.411C1804.66 158.495 1791.87 151.714 1769.9 151.714C1765.26 151.714 1745.27 152.134 1741.35 152.554V198.55C1744.84 198.775 1766.13 199.209 1769.9 199.209C1792.51 199.209 1804.65 195.006 1804.65 176.344L1804.66 174.411ZM1840.26 276.336C1840.26 277.793 1839.38 278.858 1837.64 278.858H1810.8C1808.4 278.858 1807.5 276.714 1806.41 274.627L1774.76 223.181H1769.9C1764.16 223.181 1746.41 222.564 1741.35 222.312V274.627C1741.36 275.184 1741.26 275.737 1741.05 276.255C1740.85 276.772 1740.54 277.243 1740.14 277.639C1739.75 278.035 1739.29 278.348 1738.77 278.56C1738.25 278.771 1737.7 278.878 1737.14 278.872H1715.18C1714.04 278.879 1712.94 278.439 1712.12 277.644C1711.3 276.85 1710.83 275.766 1710.81 274.627V135.56C1710.81 131.315 1713.4 129.816 1717.82 129.199C1729.27 127.518 1753.83 126.453 1769.9 126.453C1803.74 126.453 1834.98 138.138 1834.98 174.397V176.33C1834.98 198.775 1823.35 211.076 1805.33 217.829L1839.8 274.613C1840.26 275.243 1840.26 275.86 1840.26 276.336Z" fill="#404040"/>
<path d="M389.264 229.107C378.63 229.107 370 237.584 370 248.063C370 258.515 378.63 267.005 389.264 267.005C399.898 267.005 408.528 258.515 408.528 248.063C408.528 237.584 399.912 229.107 389.264 229.107ZM364.83 278.298C355.807 278.298 348.494 285.499 348.494 294.368C348.494 303.25 355.807 310.451 364.83 310.451C373.839 310.451 381.152 303.25 381.152 294.368C381.152 285.499 373.839 278.298 364.83 278.298ZM328.543 316.84C326.702 316.824 324.876 317.17 323.169 317.86C321.461 318.549 319.907 319.569 318.594 320.859C317.281 322.15 316.236 323.687 315.517 325.382C314.799 327.077 314.421 328.897 314.407 330.738C314.419 332.58 314.795 334.4 315.512 336.096C316.229 337.792 317.273 339.33 318.584 340.622C319.896 341.914 321.449 342.935 323.156 343.626C324.862 344.317 326.688 344.666 328.529 344.651C330.371 344.667 332.199 344.321 333.907 343.63C335.615 342.939 337.17 341.919 338.483 340.627C339.796 339.334 340.841 337.796 341.559 336.099C342.277 334.402 342.653 332.581 342.665 330.738C342.651 328.897 342.273 327.077 341.555 325.382C340.836 323.687 339.791 322.15 338.478 320.859C337.165 319.569 335.611 318.549 333.903 317.86C332.196 317.17 330.37 316.824 328.529 316.84H328.543ZM287.801 342.773C286.305 342.759 284.82 343.039 283.432 343.599C282.045 344.159 280.781 344.987 279.714 346.036C278.646 347.085 277.797 348.334 277.213 349.712C276.629 351.09 276.323 352.569 276.312 354.066C276.312 360.3 281.454 365.358 287.801 365.358C294.148 365.358 299.261 360.3 299.261 354.066C299.25 352.572 298.945 351.095 298.363 349.719C297.781 348.342 296.934 347.095 295.87 346.046C294.806 344.997 293.545 344.169 292.161 343.607C290.776 343.046 289.295 342.762 287.801 342.773ZM247.731 356.504C245.146 356.485 242.659 357.492 240.815 359.304C238.972 361.116 237.922 363.586 237.896 366.171C237.896 371.537 242.295 375.88 247.731 375.88C253.167 375.88 257.581 371.537 257.581 366.185C257.571 364.901 257.309 363.632 256.809 362.45C256.309 361.268 255.581 360.196 254.666 359.295C253.751 358.395 252.668 357.683 251.478 357.202C250.288 356.721 249.015 356.492 247.731 356.504ZM210.211 361.954C209.108 361.944 208.013 362.153 206.989 362.567C205.966 362.98 205.034 363.592 204.247 364.366C203.46 365.14 202.833 366.062 202.402 367.078C201.971 368.094 201.744 369.186 201.735 370.29C201.743 371.395 201.968 372.488 202.398 373.506C202.828 374.524 203.455 375.447 204.242 376.222C205.029 376.998 205.962 377.611 206.986 378.026C208.01 378.44 209.106 378.649 210.211 378.64C211.315 378.647 212.41 378.437 213.433 378.022C214.455 377.606 215.386 376.993 216.172 376.217C216.958 375.442 217.583 374.52 218.012 373.502C218.442 372.485 218.666 371.394 218.674 370.29C218.655 368.063 217.754 365.934 216.167 364.371C214.581 362.808 212.439 361.939 210.211 361.954ZM172.622 356.504C171.338 356.492 170.065 356.735 168.875 357.216C167.685 357.697 166.602 358.409 165.687 359.309C164.772 360.21 164.044 361.282 163.544 362.464C163.044 363.646 162.782 364.915 162.772 366.199C162.772 371.551 167.186 375.894 172.622 375.894C178.058 375.894 182.471 371.551 182.471 366.199C182.462 364.915 182.2 363.646 181.7 362.464C181.199 361.282 180.471 360.21 179.556 359.309C178.642 358.409 177.558 357.697 176.368 357.216C175.178 356.735 173.905 356.492 172.622 356.504ZM132.552 342.773C126.247 342.773 121.12 347.803 121.12 354.01C121.12 360.216 126.247 365.274 132.552 365.274C138.871 365.274 143.985 360.23 143.985 354.01C143.985 347.789 138.871 342.759 132.552 342.759V342.773ZM91.7819 316.882C88.0709 316.856 84.5011 318.303 81.8561 320.906C79.211 323.509 77.7068 327.056 77.6735 330.766C77.7031 334.48 79.2057 338.03 81.8512 340.636C84.4966 343.242 88.0685 344.691 91.7819 344.665C93.6218 344.68 95.4465 344.332 97.152 343.641C98.8575 342.951 100.41 341.931 101.722 340.641C103.033 339.35 104.077 337.814 104.795 336.12C105.513 334.425 105.89 332.606 105.904 330.766C105.871 327.053 104.365 323.505 101.717 320.901C99.0686 318.298 95.4953 316.852 91.7819 316.882ZM55.5371 278.312C46.5144 278.312 39.187 285.527 39.187 294.41C39.187 303.292 46.5144 310.493 55.5371 310.493C64.5598 310.493 71.8872 303.292 71.8872 294.41C71.8872 285.527 64.5598 278.312 55.5371 278.312ZM31.089 229.065C20.4691 229.065 11.8528 237.542 11.8528 248.007C11.8528 258.473 20.4691 266.949 31.089 266.949C41.7369 266.949 50.3392 258.473 50.3392 248.007C50.3392 237.542 41.7229 229.065 31.089 229.065ZM22.2625 167.616C9.96137 167.616 0 177.423 0 189.528C0 201.633 9.96137 211.44 22.2765 211.44C34.5636 211.44 44.5249 201.633 44.5249 189.528C44.5249 177.423 34.5636 167.616 22.2625 167.616ZM31.089 112.107C20.4691 112.107 11.8528 120.583 11.8528 131.035C11.8528 141.486 20.4691 149.963 31.089 149.963C41.7089 149.963 50.3112 141.486 50.3112 131.049C50.3112 120.583 41.7089 112.107 31.089 112.107ZM55.5091 68.5345C46.4864 68.5345 39.159 75.7499 39.159 84.6464C39.159 93.543 46.4864 100.73 55.5091 100.73C64.5457 100.73 71.8592 93.529 71.8592 84.6324C71.8592 75.7359 64.5457 68.5345 55.5091 68.5345ZM91.8099 34.3633C88.0989 34.3371 84.5292 35.7844 81.8841 38.3874C79.239 40.9905 77.7348 44.5366 77.7015 48.2475C77.7311 51.9609 79.2337 55.5106 81.8792 58.1167C84.5246 60.7227 88.0965 62.1719 91.8099 62.1458C93.6498 62.1606 95.4746 61.8128 97.18 61.1223C98.8855 60.4319 100.438 59.4122 101.75 58.1217C103.061 56.8311 104.105 55.2948 104.823 53.6006C105.541 51.9064 105.918 50.0874 105.932 48.2475C105.899 44.5341 104.393 40.9859 101.745 38.3825C99.0967 35.779 95.5233 34.3334 91.8099 34.3633ZM132.566 13.74C129.559 13.7176 126.665 14.8899 124.522 16.9994C122.378 19.1089 121.16 21.983 121.134 24.9903C121.16 27.9977 122.378 30.8718 124.522 32.9813C126.665 35.0907 129.559 36.263 132.566 36.2406C135.571 36.2593 138.461 35.0854 140.601 32.9763C142.742 30.8672 143.959 27.9953 143.985 24.9903C143.974 23.5019 143.669 22.0301 143.09 20.6592C142.51 19.2882 141.666 18.0449 140.605 17.0002C139.545 15.9555 138.289 15.1299 136.91 14.5705C135.531 14.0111 134.055 13.7289 132.566 13.74ZM172.594 3.13416C167.158 3.13416 162.744 7.47737 162.744 12.8293C162.744 18.1813 167.158 22.5245 172.594 22.5245C178.058 22.5245 182.457 18.1813 182.457 12.8293C182.457 7.47737 178.044 3.13416 172.594 3.13416ZM210.127 0.360107C205.448 0.360107 201.665 4.08686 201.665 8.68226C201.665 13.2777 205.448 17.0184 210.127 17.0184C214.793 17.0184 218.59 13.2777 218.59 8.68226C218.59 4.08686 214.807 0.360107 210.127 0.360107ZM247.773 3.16218C246.491 3.15109 245.219 3.39271 244.03 3.87325C242.841 4.35378 241.758 5.06381 240.843 5.9628C239.929 6.86179 239.2 7.93212 238.699 9.11269C238.198 10.2933 237.935 11.5609 237.924 12.8433C237.924 18.1953 242.337 22.5245 247.773 22.5245C253.195 22.5245 257.595 18.1813 257.595 12.8574C257.576 10.2699 256.531 7.79553 254.69 5.97772C252.848 4.15991 250.361 3.14726 247.773 3.16218ZM287.801 13.754C281.496 13.754 276.368 18.7977 276.368 24.9903C276.368 31.1969 281.482 36.2266 287.801 36.2266C294.106 36.2266 299.219 31.1969 299.219 24.9903C299.193 21.9867 297.976 19.1161 295.835 17.0093C293.694 14.9025 290.805 13.7316 287.801 13.754ZM328.501 34.4053C326.663 34.3905 324.84 34.7379 323.136 35.4277C321.432 36.1174 319.881 37.1361 318.571 38.4253C317.261 39.7146 316.218 41.2493 315.501 42.9418C314.784 44.6344 314.407 46.4515 314.393 48.2896C314.393 55.9532 320.697 62.1598 328.501 62.1598C332.208 62.1859 335.774 60.7401 338.417 58.1397C341.059 55.5393 342.562 51.9968 342.595 48.2896C342.595 40.6259 336.291 34.4053 328.501 34.4053ZM364.788 68.5485C360.482 68.5187 356.341 70.1986 353.273 73.2194C350.205 76.2402 348.461 80.355 348.424 84.6605C348.424 93.557 355.765 100.772 364.802 100.772C369.107 100.802 373.249 99.1223 376.317 96.1015C379.385 93.0807 381.129 88.9659 381.166 84.6605C381.129 80.355 379.385 76.2402 376.317 73.2194C373.249 70.1986 369.093 68.5187 364.788 68.5485ZM389.25 112.051C378.644 112.051 370.028 120.527 370.028 130.965C370.028 141.43 378.644 149.907 389.25 149.907C399.884 149.907 408.486 141.43 408.486 130.979C408.486 120.527 399.884 112.051 389.25 112.051ZM301.013 218.459C298.741 218.445 296.556 219.332 294.938 220.926C293.32 222.521 292.401 224.692 292.382 226.964C292.382 231.671 296.249 235.468 301.013 235.468C305.79 235.468 309.657 231.671 309.657 226.964C309.648 225.838 309.417 224.725 308.978 223.688C308.538 222.651 307.899 221.711 307.096 220.921C306.294 220.131 305.343 219.508 304.299 219.085C303.255 218.663 302.139 218.45 301.013 218.459ZM279.437 249.983C278.311 249.973 277.194 250.186 276.15 250.609C275.106 251.031 274.156 251.655 273.353 252.444C272.55 253.234 271.911 254.174 271.472 255.211C271.032 256.248 270.801 257.361 270.792 258.487C270.792 263.18 274.659 266.991 279.437 266.991C284.214 266.991 288.081 263.18 288.081 258.487C288.072 257.361 287.841 256.248 287.402 255.211C286.962 254.174 286.323 253.234 285.52 252.444C284.718 251.655 283.767 251.031 282.723 250.609C281.679 250.186 280.563 249.973 279.437 249.983ZM247.451 270.228C242.267 270.228 238.064 274.361 238.064 279.461C238.064 284.56 242.267 288.693 247.451 288.693C252.635 288.693 256.838 284.56 256.838 279.447C256.838 274.361 252.635 270.228 247.451 270.228ZM209.623 275.734C207.975 275.719 206.341 276.029 204.813 276.647C203.285 277.264 201.894 278.177 200.719 279.332C199.544 280.487 198.608 281.863 197.965 283.381C197.322 284.898 196.985 286.527 196.972 288.175C196.972 295.04 202.632 300.602 209.609 300.602C216.586 300.602 222.246 295.026 222.246 288.175C222.235 286.528 221.9 284.899 221.258 283.382C220.617 281.864 219.682 280.489 218.509 279.333C217.335 278.177 215.944 277.264 214.417 276.647C212.89 276.029 211.27 275.719 209.623 275.734ZM171.893 268.308C163.963 268.308 157.547 274.613 157.547 282.417C157.547 290.206 163.963 296.525 171.893 296.525C179.809 296.525 186.226 290.22 186.226 282.417C186.226 274.613 179.809 268.308 171.893 268.308ZM137.638 244.533C128.853 244.533 121.736 251.538 121.736 260.196C121.736 268.841 128.853 275.846 137.638 275.846C146.422 275.846 153.54 268.841 153.54 260.196C153.54 251.552 146.422 244.533 137.638 244.533ZM115.081 212.729C113.34 212.713 111.613 213.039 109.998 213.691C108.384 214.343 106.914 215.307 105.672 216.528C104.431 217.748 103.442 219.202 102.763 220.805C102.084 222.408 101.728 224.13 101.715 225.871C101.715 233.128 107.698 238.999 115.067 238.999C122.437 238.999 128.419 233.114 128.419 225.871C128.389 222.358 126.966 219.001 124.463 216.537C121.959 214.073 118.594 212.703 115.081 212.729ZM109.785 177.759C108.437 177.748 107.1 178.003 105.851 178.509C104.601 179.015 103.464 179.763 102.504 180.709C101.543 181.655 100.779 182.781 100.254 184.022C99.7295 185.264 99.4547 186.597 99.4456 187.945C99.4456 193.549 104.069 198.116 109.785 198.116C112.503 198.135 115.117 197.074 117.053 195.167C118.989 193.26 120.089 190.662 120.111 187.945C120.102 186.598 119.827 185.266 119.303 184.026C118.78 182.785 118.016 181.659 117.058 180.714C116.099 179.768 114.963 179.02 113.715 178.513C112.467 178.006 111.132 177.75 109.785 177.759ZM118.878 143.588C117.746 143.579 116.624 143.793 115.575 144.217C114.526 144.642 113.571 145.268 112.765 146.062C111.958 146.856 111.316 147.8 110.874 148.842C110.433 149.884 110.201 151.003 110.191 152.134C110.191 156.842 114.086 160.667 118.878 160.667C120.009 160.676 121.13 160.462 122.179 160.037C123.227 159.613 124.181 158.986 124.986 158.192C125.792 157.398 126.433 156.453 126.873 155.411C127.313 154.37 127.543 153.251 127.55 152.12C127.541 150.989 127.309 149.871 126.867 148.83C126.426 147.789 125.783 146.845 124.976 146.053C124.17 145.261 123.214 144.635 122.166 144.212C121.117 143.789 120.009 143.577 118.878 143.588ZM140.454 112.387C138.182 112.372 135.997 113.259 134.379 114.854C132.761 116.448 131.842 118.62 131.824 120.891C131.824 125.585 135.69 129.382 140.468 129.382C145.231 129.382 149.098 125.585 149.098 120.891C149.08 118.62 148.161 116.448 146.542 114.854C144.924 113.259 142.74 112.372 140.468 112.387H140.454ZM172.398 90.5308C167.228 90.5308 163.025 94.6779 163.025 99.7776C163.025 104.877 167.228 109.01 172.412 109.01C177.595 109.01 181.798 104.877 181.798 99.7636C181.798 94.6498 177.581 90.5308 172.398 90.5308ZM210.225 78.608C208.592 78.5951 206.971 78.9041 205.457 79.5174C203.943 80.1307 202.564 81.0363 201.399 82.1825C200.235 83.3286 199.308 84.6929 198.671 86.1975C198.034 87.702 197.699 89.3173 197.686 90.9511C197.686 97.7742 203.29 103.308 210.225 103.308C211.862 103.323 213.485 103.015 215.002 102.402C216.518 101.788 217.9 100.882 219.066 99.7338C220.232 98.586 221.16 97.2194 221.797 95.7123C222.434 94.2053 222.768 92.5873 222.779 90.9511C222.779 84.1281 217.161 78.608 210.225 78.608ZM248.053 82.699C240.166 82.699 233.763 89.0037 233.763 96.7654C233.763 104.527 240.166 110.832 248.053 110.832C255.955 110.832 262.344 104.527 262.344 96.7654C262.344 89.0037 255.955 82.699 248.053 82.699ZM282.141 103.322C273.342 103.322 266.211 110.355 266.211 119.014C266.211 127.672 273.342 134.705 282.141 134.705C290.939 134.705 298.084 127.672 298.084 119.014C298.084 110.355 290.939 103.322 282.141 103.322ZM304.739 140.17C303.001 140.155 301.277 140.483 299.666 141.135C298.055 141.787 296.588 142.75 295.349 143.969C294.111 145.188 293.124 146.639 292.447 148.24C291.77 149.841 291.414 151.559 291.402 153.297C291.402 160.541 297.37 166.411 304.739 166.411C312.095 166.411 318.063 160.527 318.063 153.297C318.05 151.56 317.696 149.843 317.019 148.243C316.343 146.644 315.358 145.193 314.12 143.974C312.883 142.755 311.418 141.791 309.808 141.139C308.199 140.486 306.476 140.157 304.739 140.17ZM270.022 197.808C265.608 197.808 262.036 201.325 262.036 205.654C262.036 209.983 265.608 213.5 270.022 213.5C274.421 213.5 277.994 209.997 277.994 205.654C277.994 201.311 274.421 197.808 270.008 197.808H270.022ZM254.54 222.074C252.995 222.061 251.462 222.353 250.029 222.932C248.596 223.512 247.292 224.368 246.19 225.452C245.088 226.535 244.21 227.826 243.607 229.248C243.003 230.671 242.686 232.199 242.673 233.745C242.673 240.19 247.997 245.415 254.54 245.415C261.083 245.415 266.393 240.19 266.393 233.745C266.367 230.626 265.104 227.645 262.882 225.457C260.659 223.268 257.659 222.052 254.54 222.074ZM224.04 237.948C220.775 237.925 217.634 239.199 215.307 241.49C212.98 243.78 211.656 246.9 211.627 250.165C211.627 256.918 217.189 262.396 224.04 262.396C230.891 262.396 236.467 256.932 236.467 250.165C236.437 246.897 235.112 243.775 232.782 241.485C230.451 239.194 227.307 237.922 224.04 237.948ZM188.355 237.051C186.92 237.04 185.497 237.312 184.167 237.851C182.837 238.39 181.626 239.185 180.603 240.192C179.581 241.199 178.766 242.398 178.207 243.72C177.648 245.041 177.354 246.46 177.343 247.895C177.369 250.791 178.543 253.558 180.608 255.589C182.673 257.62 185.459 258.748 188.355 258.725C191.251 258.748 194.038 257.62 196.102 255.589C198.167 253.558 199.342 250.791 199.367 247.895C199.356 246.46 199.063 245.041 198.504 243.72C197.944 242.398 197.13 241.199 196.107 240.192C195.085 239.185 193.874 238.39 192.544 237.851C191.214 237.312 189.79 237.04 188.355 237.051ZM161.834 219.356C160.781 219.347 159.737 219.545 158.762 219.939C157.786 220.333 156.897 220.916 156.146 221.654C155.396 222.391 154.798 223.27 154.386 224.238C153.975 225.207 153.759 226.248 153.75 227.3C153.75 231.699 157.364 235.258 161.834 235.258C162.887 235.267 163.932 235.068 164.909 234.673C165.886 234.278 166.775 233.694 167.526 232.955C168.277 232.216 168.875 231.336 169.285 230.366C169.695 229.395 169.91 228.354 169.918 227.3C169.909 226.248 169.692 225.207 169.281 224.238C168.87 223.27 168.272 222.391 167.521 221.654C166.77 220.916 165.882 220.333 164.906 219.939C163.93 219.545 162.886 219.347 161.834 219.356ZM151.298 196.421C150.534 196.416 149.777 196.56 149.07 196.848C148.362 197.135 147.718 197.558 147.174 198.094C146.63 198.63 146.197 199.268 145.9 199.972C145.603 200.675 145.447 201.43 145.442 202.193C145.442 205.374 148.076 207.966 151.298 207.966C152.064 207.975 152.824 207.833 153.535 207.547C154.246 207.262 154.893 206.839 155.44 206.302C155.987 205.766 156.422 205.127 156.721 204.422C157.02 203.717 157.177 202.959 157.182 202.193C157.177 201.427 157.02 200.67 156.721 199.965C156.422 199.26 155.987 198.621 155.44 198.084C154.893 197.548 154.246 197.125 153.535 196.839C152.824 196.554 152.064 196.412 151.298 196.421ZM150.695 166.537C149.655 166.526 148.623 166.72 147.659 167.109C146.694 167.498 145.815 168.073 145.073 168.802C144.331 169.531 143.741 170.399 143.335 171.357C142.929 172.314 142.717 173.343 142.71 174.383C142.71 178.712 146.282 182.229 150.695 182.229C155.095 182.229 158.653 178.712 158.653 174.383C158.653 170.04 155.095 166.537 150.695 166.537ZM166.219 134.551C163.11 134.529 160.119 135.741 157.902 137.921C155.685 140.101 154.424 143.071 154.394 146.18C154.394 152.625 159.69 157.837 166.219 157.837C169.33 157.859 172.323 156.645 174.541 154.462C176.758 152.279 178.018 149.305 178.044 146.194C178.018 143.083 176.758 140.109 174.541 137.926C172.323 135.743 169.33 134.529 166.219 134.551ZM196.537 117.543C189.672 117.543 184.096 123.021 184.096 129.788C184.096 136.555 189.658 142.019 196.537 142.019C203.402 142.019 208.965 136.555 208.965 129.788C208.965 123.021 203.402 117.543 196.537 117.543ZM232.32 121.452C230.882 121.437 229.456 121.706 228.123 122.243C226.789 122.78 225.575 123.576 224.55 124.583C223.524 125.59 222.707 126.79 222.146 128.114C221.585 129.437 221.291 130.858 221.28 132.296C221.28 138.292 226.225 143.154 232.32 143.154C233.757 143.165 235.182 142.893 236.514 142.353C237.845 141.813 239.058 141.017 240.082 140.008C241.106 139 241.921 137.8 242.481 136.477C243.041 135.153 243.335 133.733 243.346 132.296C243.335 130.859 243.041 129.439 242.481 128.117C241.92 126.794 241.105 125.595 240.081 124.588C239.057 123.581 237.844 122.785 236.513 122.247C235.181 121.709 233.756 121.439 232.32 121.452ZM258.687 144.541C256.564 144.526 254.522 145.354 253.009 146.843C251.496 148.333 250.636 150.362 250.617 152.485C250.617 156.884 254.232 160.443 258.687 160.443C263.143 160.443 266.771 156.884 266.771 152.485C266.762 151.432 266.546 150.392 266.135 149.423C265.723 148.454 265.125 147.576 264.375 146.838C263.624 146.101 262.735 145.518 261.76 145.124C260.784 144.73 259.74 144.532 258.687 144.541ZM269.798 172.029C269.031 172.022 268.271 172.166 267.56 172.453C266.849 172.74 266.202 173.164 265.655 173.701C265.108 174.239 264.673 174.879 264.374 175.585C264.075 176.291 263.919 177.049 263.913 177.815C263.913 180.996 266.547 183.588 269.798 183.588C273.02 183.588 275.668 180.996 275.668 177.815C275.662 177.049 275.506 176.291 275.207 175.585C274.908 174.879 274.473 174.239 273.926 173.701C273.38 173.164 272.732 172.74 272.021 172.453C271.311 172.166 270.564 172.022 269.798 172.029ZM309.937 181.108C304.207 181.108 299.57 185.689 299.57 191.335C299.57 196.968 304.207 201.535 309.937 201.535C315.681 201.535 320.305 196.968 320.305 191.321C320.283 188.593 319.178 185.984 317.234 184.069C315.29 182.154 312.666 181.089 309.937 181.108ZM352.753 193.479C351.329 193.468 349.917 193.737 348.597 194.272C347.277 194.807 346.075 195.596 345.06 196.596C344.046 197.595 343.238 198.784 342.682 200.095C342.127 201.407 341.836 202.815 341.825 204.239C341.825 210.179 346.7 214.999 352.753 214.999C358.777 214.999 363.681 210.179 363.681 204.239C363.67 202.815 363.379 201.407 362.823 200.095C362.268 198.784 361.46 197.595 360.445 196.596C359.431 195.596 358.229 194.807 356.909 194.272C355.589 193.737 354.177 193.468 352.753 193.479ZM341.909 231.475C340.56 231.464 339.223 231.719 337.972 232.225C336.722 232.73 335.584 233.478 334.622 234.423C333.661 235.369 332.895 236.495 332.369 237.737C331.843 238.979 331.566 240.312 331.555 241.661C331.555 247.293 336.179 251.846 341.909 251.846C347.639 251.846 352.263 247.293 352.263 241.661C352.252 240.311 351.975 238.976 351.447 237.734C350.92 236.491 350.153 235.364 349.19 234.418C348.227 233.472 347.087 232.726 345.836 232.22C344.584 231.715 343.259 231.462 341.909 231.475ZM323.275 263.363C322.136 263.353 321.007 263.569 319.951 263.996C318.895 264.423 317.934 265.054 317.122 265.853C316.31 266.652 315.664 267.603 315.22 268.651C314.775 269.7 314.542 270.826 314.533 271.965C314.533 276.715 318.442 280.567 323.261 280.567C324.4 280.577 325.53 280.361 326.585 279.934C327.641 279.507 328.602 278.876 329.414 278.077C330.226 277.278 330.872 276.327 331.317 275.278C331.761 274.23 331.994 273.104 332.004 271.965C331.994 270.826 331.761 269.7 331.317 268.651C330.872 267.603 330.226 266.652 329.414 265.853C328.602 265.054 327.641 264.423 326.585 263.996C325.53 263.569 324.414 263.353 323.275 263.363ZM300.901 287.054C298.917 287.043 297.011 287.818 295.598 289.21C294.185 290.602 293.381 292.497 293.363 294.48C293.363 298.585 296.725 301.919 300.901 301.919C301.885 301.928 302.861 301.744 303.774 301.375C304.687 301.007 305.519 300.463 306.221 299.773C306.924 299.084 307.484 298.263 307.869 297.357C308.254 296.451 308.457 295.478 308.466 294.494C308.457 293.509 308.254 292.536 307.869 291.631C307.484 290.725 306.924 289.903 306.221 289.214C305.519 288.524 304.687 287.98 303.774 287.612C302.861 287.244 301.885 287.059 300.901 287.068V287.054ZM277.279 304.343C276.435 304.336 275.598 304.495 274.816 304.811C274.034 305.128 273.322 305.595 272.72 306.188C272.119 306.78 271.641 307.485 271.312 308.262C270.984 309.039 270.812 309.874 270.806 310.718C270.806 314.22 273.706 317.078 277.279 317.078C278.122 317.086 278.958 316.927 279.739 316.611C280.52 316.296 281.232 315.829 281.833 315.239C282.434 314.648 282.913 313.945 283.242 313.169C283.571 312.393 283.745 311.56 283.752 310.718C283.746 309.874 283.574 309.039 283.246 308.262C282.918 307.485 282.439 306.78 281.838 306.188C281.237 305.595 280.524 305.128 279.742 304.811C278.96 304.495 278.123 304.336 277.279 304.343ZM250.547 314.108C249.565 314.101 248.59 314.287 247.68 314.656C246.769 315.025 245.941 315.57 245.241 316.26C244.541 316.949 243.983 317.77 243.601 318.675C243.218 319.58 243.017 320.551 243.01 321.534C243.01 325.625 246.372 328.945 250.547 328.945C251.529 328.953 252.503 328.766 253.413 328.397C254.322 328.028 255.15 327.482 255.849 326.793C256.548 326.103 257.104 325.282 257.485 324.377C257.866 323.473 258.065 322.501 258.071 321.52C258.071 317.429 254.708 314.108 250.547 314.108ZM219.122 319.152C217.989 319.145 216.865 319.36 215.815 319.787C214.765 320.214 213.81 320.844 213.003 321.64C212.196 322.436 211.555 323.383 211.114 324.428C210.673 325.472 210.443 326.593 210.436 327.726C210.436 332.448 214.331 336.287 219.122 336.287C220.257 336.298 221.382 336.085 222.434 335.661C223.487 335.236 224.445 334.608 225.254 333.813C226.064 333.018 226.708 332.071 227.151 331.027C227.595 329.982 227.827 328.861 227.837 327.726C227.829 326.59 227.598 325.467 227.156 324.421C226.713 323.375 226.069 322.427 225.259 321.63C224.45 320.833 223.491 320.205 222.438 319.779C221.385 319.354 220.258 319.141 219.122 319.152ZM183.185 315.649C181.71 315.638 180.247 315.918 178.879 316.472C177.512 317.027 176.267 317.845 175.216 318.881C174.164 319.916 173.327 321.149 172.753 322.508C172.178 323.867 171.876 325.326 171.865 326.802C171.865 332.952 176.937 337.94 183.185 337.94C189.434 337.94 194.506 332.952 194.506 326.802C194.495 325.327 194.193 323.868 193.618 322.51C193.043 321.152 192.206 319.92 191.155 318.886C190.103 317.851 188.858 317.034 187.491 316.481C186.123 315.928 184.66 315.636 183.185 315.649ZM145.4 302.297C141.883 302.271 138.5 303.642 135.994 306.109C133.488 308.576 132.063 311.937 132.034 315.453C132.034 322.725 138.016 328.623 145.4 328.623C152.783 328.623 158.765 322.725 158.765 315.453C158.753 313.711 158.397 311.988 157.718 310.383C157.039 308.778 156.051 307.323 154.81 306.1C153.569 304.877 152.099 303.911 150.484 303.256C148.87 302.601 147.142 302.27 145.4 302.283V302.297ZM111.915 277.583C103.256 277.583 96.2232 284.504 96.2232 293.037C96.2232 301.583 103.256 308.49 111.915 308.49C120.601 308.49 127.62 301.569 127.62 293.037C127.62 284.49 120.587 277.583 111.915 277.583ZM84.1462 240.288C74.7593 240.288 67.1517 247.783 67.1517 257.016C67.1517 266.263 74.7593 273.758 84.1462 273.758C93.5332 273.758 101.155 266.263 101.155 257.016C101.155 247.769 93.5472 240.288 84.1462 240.288ZM68.3706 201.479C66.6264 201.464 64.8963 201.793 63.2792 202.447C61.6621 203.101 60.1897 204.067 58.9459 205.29C57.7022 206.513 56.7115 207.969 56.0304 209.574C55.3494 211.18 54.9913 212.904 54.9767 214.649C54.9767 221.934 60.9731 227.818 68.3706 227.818C71.8921 227.844 75.2801 226.472 77.7911 224.003C80.3022 221.534 81.7312 218.17 81.7645 214.649C81.7645 207.363 75.768 201.479 68.3706 201.479ZM67.614 163.973C64.7255 163.951 61.9462 165.076 59.8867 167.101C57.8272 169.127 56.6558 171.887 56.6299 174.775C56.6299 180.758 61.5335 185.591 67.614 185.591C69.0454 185.602 70.465 185.331 71.7917 184.794C73.1184 184.256 74.3263 183.462 75.3462 182.458C76.3662 181.454 77.1784 180.258 77.7363 178.94C78.2943 177.622 78.5871 176.207 78.5981 174.775C78.5722 171.887 77.4009 169.127 75.3413 167.101C73.2818 165.076 70.5025 163.951 67.614 163.973ZM78.402 127.154C77.0522 127.143 75.7134 127.398 74.4623 127.905C73.2112 128.411 72.0723 129.16 71.1106 130.107C70.149 131.055 69.3836 132.182 68.8581 133.425C68.3327 134.669 68.0575 136.004 68.0483 137.353C68.0483 142.972 72.6718 147.539 78.416 147.539C84.1322 147.539 88.7697 142.972 88.7697 137.353C88.7587 136.003 88.4818 134.668 87.9548 133.424C87.4278 132.181 86.6611 131.053 85.6983 130.106C84.7356 129.159 83.5957 128.411 82.3438 127.904C81.0919 127.398 79.7525 127.143 78.402 127.154ZM97.0918 98.5027C95.9554 98.4935 94.8284 98.7084 93.7752 99.1352C92.7219 99.562 91.7632 100.192 90.9538 100.99C90.1444 101.788 89.5002 102.737 89.0581 103.784C88.616 104.831 88.3847 105.955 88.3774 107.091C88.3774 111.827 92.2863 115.665 97.0918 115.665C98.227 115.675 99.3529 115.46 100.405 115.034C101.458 114.608 102.416 113.979 103.225 113.183C104.034 112.387 104.679 111.439 105.122 110.394C105.564 109.349 105.797 108.226 105.806 107.091C105.799 105.955 105.568 104.831 105.126 103.784C104.683 102.737 104.039 101.788 103.23 100.99C102.42 100.192 101.462 99.562 100.408 99.1352C99.3552 98.7084 98.2282 98.4935 97.0918 98.5027ZM119.424 77.1509C118.444 77.1435 117.471 77.3294 116.562 77.6978C115.654 78.0663 114.826 78.6102 114.128 79.2984C113.429 79.9866 112.873 80.8057 112.491 81.7089C112.109 82.6121 111.908 83.5817 111.901 84.5624C111.901 88.6534 115.263 91.9739 119.424 91.9739C120.405 91.9813 121.377 91.7954 122.286 91.4269C123.195 91.0585 124.023 90.5146 124.721 89.8264C125.42 89.1381 125.976 88.3191 126.358 87.4159C126.74 86.5127 126.941 85.543 126.948 84.5624C126.941 83.5817 126.74 82.6121 126.358 81.7089C125.976 80.8057 125.42 79.9866 124.721 79.2984C124.023 78.6102 123.195 78.0663 122.286 77.6978C121.377 77.3294 120.405 77.1435 119.424 77.1509ZM143.046 61.8936C141.339 61.8824 139.697 62.5488 138.481 63.7465C137.265 64.9443 136.574 66.5755 136.559 68.2823C136.577 69.9867 137.27 71.6144 138.486 72.8091C139.702 74.0038 141.341 74.6683 143.046 74.6571C144.75 74.6683 146.39 74.0038 147.605 72.8091C148.821 71.6144 149.514 69.9867 149.533 68.2823C149.518 66.5755 148.826 64.9443 147.61 63.7465C146.394 62.5488 144.753 61.8824 143.046 61.8936ZM169.806 50.1389C168.827 50.1315 167.856 50.317 166.949 50.6848C166.042 51.0526 165.216 51.5954 164.519 52.2823C163.821 52.9692 163.266 53.7868 162.885 54.6883C162.503 55.5898 162.303 56.5576 162.296 57.5364C162.296 61.6134 165.659 64.9339 169.82 64.9339C171.795 64.9451 173.695 64.1729 175.102 62.7864C176.51 61.3998 177.311 59.512 177.329 57.5364C177.322 56.5576 177.122 55.5898 176.74 54.6883C176.359 53.7868 175.804 52.9692 175.107 52.2823C174.409 51.5954 173.583 51.0526 172.676 50.6848C171.769 50.317 170.798 50.1315 169.82 50.1389H169.806ZM201.133 42.7134C198.837 42.6985 196.63 43.5941 194.994 45.2039C193.358 46.8138 192.427 49.0066 192.404 51.3018C192.404 56.0513 196.327 59.8901 201.133 59.8901C203.43 59.9088 205.642 59.0149 207.281 57.4046C208.92 55.7944 209.853 53.5994 209.875 51.3018C209.866 50.1629 209.633 49.037 209.188 47.9883C208.744 46.9396 208.098 45.9887 207.286 45.1899C206.474 44.3911 205.513 43.76 204.457 43.3327C203.401 42.9054 202.272 42.7042 201.133 42.7134ZM237.139 41.1443C230.877 41.1443 225.805 46.132 225.805 52.2825C225.805 58.4331 230.877 63.4488 237.139 63.4488C243.402 63.4488 248.474 58.4471 248.474 52.2825C248.474 46.118 243.402 41.1443 237.139 41.1443ZM273.875 49.6906C270.354 49.6682 266.968 51.0414 264.458 53.5096C261.948 55.9778 260.518 59.3401 260.481 62.8603C260.481 70.1457 266.477 76.0581 273.875 76.0581C275.621 76.071 277.352 75.7399 278.97 75.0836C280.588 74.4274 282.061 73.4588 283.305 72.2333C284.549 71.0078 285.539 69.5492 286.219 67.941C286.899 66.3328 287.256 64.6064 287.268 62.8603C287.235 59.3389 285.806 55.9745 283.295 53.5055C280.784 51.0365 277.396 49.6645 273.875 49.6906ZM308.564 70.4119C299.878 70.4119 292.845 77.3471 292.845 85.8794C292.845 94.4117 299.892 101.361 308.564 101.361C317.251 101.361 324.284 94.4257 324.284 85.8794C324.284 77.333 317.251 70.4119 308.564 70.4119ZM336.137 105.27C326.75 105.27 319.128 112.765 319.128 121.998C319.128 131.245 326.736 138.74 336.137 138.74C345.538 138.74 353.145 131.245 353.145 121.998C353.145 112.751 345.538 105.27 336.137 105.27ZM351.926 151.21C344.543 151.21 338.56 157.094 338.56 164.379C338.56 171.665 344.543 177.535 351.926 177.535C359.324 177.535 365.306 171.651 365.306 164.365C365.306 157.08 359.324 151.196 351.926 151.196V151.21ZM420.311 189.528C420.311 201.633 410.35 211.44 398.034 211.44C385.747 211.44 375.786 201.633 375.786 189.528C375.786 177.423 385.747 167.616 398.048 167.616C410.35 167.616 420.311 177.423 420.311 189.528Z" fill="#737373"/>
</g>
<defs>
<clipPath id="clip0_92_161">
<rect width="2704" height="378.28" fill="white" transform="translate(0 0.360107)"/>
</clipPath>
</defs>
</svg>
