<svg width="165" height="38" viewBox="0 0 165 34" fill="#666666" xmlns="http://www.w3.org/2000/svg">
<path d="M12.8322 10.4046H3.46061L6.86704 1.45679H28.7341L16.8038 26.5906H28.0214L24.6134 35.5384H0.901855L12.8322 10.4046Z" fill="#666666"/>
<path d="M29.5855 18.5008C29.5482 16.1059 30.0327 13.7316 31.0054 11.5427C31.947 9.44276 33.2441 7.52112 34.8396 5.86248C36.4982 4.26701 38.4198 2.9699 40.5198 2.02828C42.7199 1.09127 45.0866 0.608276 47.4779 0.608276C49.8692 0.608276 52.2359 1.09127 54.436 2.02828C56.536 2.9699 58.4576 4.26701 60.1162 5.86248C61.7117 7.52111 63.0088 9.44275 63.9504 11.5427C64.9231 13.7316 65.4076 16.1059 65.3703 18.5008C65.4076 20.8957 64.9231 23.2701 63.9504 25.4589C63.0091 27.5582 61.7126 29.4793 60.1178 31.1376C58.4592 32.733 56.5375 34.0301 54.4375 34.9718C52.2375 35.9088 49.8708 36.3918 47.4795 36.3918C45.0882 36.3918 42.7215 35.9088 40.5214 34.9718C38.4214 34.0301 36.4998 32.733 34.8411 31.1376C33.2457 29.4789 31.9486 27.5573 31.0069 25.4573C30.1007 23.2483 29.6184 20.8883 29.5855 18.5008ZM40.3778 18.5008C40.3462 19.4785 40.5407 20.4503 40.946 21.3405C41.7069 23.0481 43.0726 24.4139 44.7802 25.1747C45.6802 25.5497 46.6454 25.7428 47.6204 25.7428C48.5953 25.7428 49.5606 25.5497 50.4605 25.1747C52.1681 24.4139 53.5338 23.0481 54.2947 21.3405C54.6987 20.45 54.8918 19.4782 54.859 18.5008C54.8767 17.5243 54.6828 16.5556 54.2908 15.6611C53.5299 13.9535 52.1642 12.5877 50.4566 11.8269C49.5663 11.4215 48.5945 11.227 47.6168 11.2586C46.6403 11.2409 45.6716 11.4348 44.7771 11.8269C43.0695 12.5877 41.7038 13.9535 40.9429 15.6611C40.5519 16.5558 40.3591 17.5245 40.3778 18.5008Z" fill="#666666"/>
<path d="M70.9077 1.45679H82.4095V35.5368H70.9077V1.45679Z" fill="#666666"/>
<path d="M87.9478 18.5008C87.9105 16.1059 88.395 13.7316 89.3677 11.5427C90.3093 9.44275 91.6064 7.52111 93.2019 5.86248C94.8605 4.26702 96.7822 2.96991 98.8821 2.02828C101.082 1.09127 103.449 0.608276 105.84 0.608276C108.232 0.608276 110.598 1.09127 112.798 2.02828C114.898 2.9699 116.82 4.26701 118.479 5.86248C120.074 7.52111 121.371 9.44275 122.313 11.5427C123.285 13.7316 123.77 16.1059 123.733 18.5008C123.77 20.8957 123.285 23.2701 122.313 25.4589C121.371 27.5582 120.075 29.4793 118.48 31.1376C116.821 32.733 114.9 34.0301 112.8 34.9718C110.6 35.9088 108.233 36.3918 105.842 36.3918C103.45 36.3918 101.084 35.9088 98.8837 34.9718C96.7837 34.0301 94.8621 32.733 93.2034 31.1376C91.608 29.4789 90.3108 27.5573 89.3692 25.4573C88.3963 23.2691 87.9112 20.8953 87.9478 18.5008ZM98.598 18.5008C98.5664 19.4785 98.7609 20.4503 99.1663 21.3405C99.9271 23.0481 101.293 24.4139 103 25.1747C103.9 25.5497 104.866 25.7428 105.841 25.7428C106.816 25.7428 107.781 25.5497 108.681 25.1747C110.388 24.4139 111.754 23.0481 112.515 21.3405C112.92 20.4503 113.115 19.4785 113.083 18.5008C113.101 17.5243 112.907 16.5556 112.515 15.6611C111.754 13.9535 110.388 12.5877 108.681 11.8269C107.79 11.4215 106.819 11.227 105.841 11.2586C104.864 11.2409 103.896 11.4348 103.001 11.8269C101.294 12.5877 99.9279 13.9535 99.1671 15.6611C98.8418 16.5754 98.6501 17.5318 98.598 18.5008Z" fill="#666666"/>
<path d="M129.128 1.45679H138.076L147.447 14.6626V1.45679H158.098V35.5368H149.15L139.778 22.4731V35.5368H129.128V1.45679Z" fill="#666666"/>
</svg>
