<svg width="61" height="27" viewBox="0 0 61 27" fill="none" xmlns="http://www.w3.org/2000/svg">
<g clip-path="url(#clip0_200_196)">
<path d="M13.0127 0.0932617C20.1994 0.0932617 26.0254 5.90181 26.0254 13.0669C26.0253 20.2319 20.1994 26.0405 13.0127 26.0405C5.82603 26.0405 0.000104647 20.2319 0 13.0669C0 5.90185 5.82597 0.093327 13.0127 0.0932617ZM5.5791 15.2231C4.80876 16.5526 3.73673 18.4017 3.72656 18.4224C3.69056 18.4843 3.67485 18.5494 3.6748 18.6128C3.6748 18.6812 3.69333 18.7481 3.72656 18.8052C3.75978 18.8628 3.80795 18.9111 3.86719 18.9448C3.92302 18.9765 3.98723 18.9956 4.05859 18.9956H8.48535V17.2241C8.48535 16.7321 8.68578 16.2865 9.00879 15.9644C9.17352 15.8001 9.37111 15.6679 9.58887 15.5776C9.79884 15.4909 10.03 15.4429 10.2725 15.4429C10.3806 15.4429 10.4846 15.4514 10.585 15.4683C10.6881 15.4859 10.7869 15.5126 10.8809 15.5464C10.9777 15.5809 11.0711 15.6245 11.1602 15.6753C11.2506 15.7267 11.3359 15.7855 11.415 15.8511L13.8535 17.8716L9.67871 17.8706H9.61621V18.9976H16.9736L12.1348 14.9888C12.0047 14.881 11.8661 14.7846 11.7197 14.7007C11.5749 14.6182 11.4221 14.5475 11.2617 14.4897C11.1034 14.4327 10.9393 14.3885 10.7725 14.3589C10.6094 14.3301 10.4428 14.3159 10.2734 14.3159C9.87893 14.3159 9.5018 14.3942 9.1582 14.5366C8.80128 14.6839 8.47954 14.8998 8.21094 15.1675C7.94235 15.4353 7.72561 15.7553 7.57715 16.1118C7.43504 16.4544 7.35645 16.8308 7.35645 17.2241V17.8735H5.3457L7.19727 14.6753L6.22168 14.1138C6.0847 14.3503 5.8507 14.7545 5.5791 15.2231ZM14.7783 13.4546C14.7493 13.6202 14.7356 13.7881 14.7363 13.9565C14.737 14.1221 14.7519 14.2906 14.7822 14.4575C14.8119 14.6223 14.8552 14.7854 14.9131 14.9438C14.9696 15.0989 15.0402 15.2513 15.125 15.3979C15.3222 15.7383 15.5786 16.024 15.874 16.2495C16.1801 16.4842 16.5286 16.6535 16.8955 16.7515C17.2624 16.8494 17.6491 16.8767 18.0322 16.8267C18.4012 16.778 18.767 16.658 19.1084 16.4614L19.6729 16.1362L20.6777 17.8726H16.9736V18.9956C17.2755 18.9956 17.8133 18.9964 18.4268 18.9966C19.9519 18.9971 21.9475 18.9971 21.9639 18.9956C22.0352 18.9956 22.1002 18.9774 22.1553 18.9458C22.2145 18.9114 22.2627 18.8628 22.2959 18.8052C22.3291 18.7474 22.3477 18.6805 22.3477 18.6128C22.3476 18.5487 22.3312 18.4836 22.2959 18.4224L20.083 14.6001L18.5469 15.4839L18.5439 15.4858C18.1162 15.7319 17.6294 15.7823 17.1875 15.6646C16.962 15.6039 16.7488 15.5 16.5615 15.3569C16.3813 15.2188 16.2234 15.0438 16.1025 14.8345C16.0488 14.7415 16.0041 14.6464 15.9688 14.5513C15.9328 14.4528 15.9054 14.3551 15.8877 14.2573C15.8693 14.1565 15.8604 14.0536 15.8604 13.9507C15.8597 13.8472 15.8688 13.7446 15.8857 13.644L16.4219 10.5278L18.5098 14.1333L18.541 14.189L19.5195 13.6255L15.8418 7.27295L14.7783 13.4546ZM13.0137 2.771C12.9475 2.77107 12.8807 2.7884 12.8223 2.82275C12.7664 2.85445 12.7177 2.90176 12.6816 2.9624L10.4678 6.78467L12.0039 7.66846L12.0068 7.67041C12.4338 7.91634 12.721 8.31204 12.8398 8.75244C12.8999 8.97723 12.9168 9.21353 12.8857 9.44678C12.856 9.67163 12.7827 9.89564 12.6611 10.105C12.6075 10.1978 12.5473 10.2834 12.4824 10.3608C12.4153 10.4412 12.343 10.5144 12.2666 10.5786C12.1882 10.6448 12.1036 10.7033 12.0146 10.7554C11.9243 10.8074 11.8313 10.852 11.7354 10.8872L8.76074 11.9819L10.8477 8.37744L10.8789 8.32373L9.90039 7.76025L6.22168 14.1128L12.123 11.939C12.2814 11.8805 12.4354 11.8087 12.5811 11.7241C12.725 11.6403 12.8626 11.5438 12.9932 11.4341C13.1218 11.3256 13.2425 11.2066 13.3506 11.0776C13.4573 10.9508 13.5538 10.8133 13.6387 10.6675C13.8357 10.3272 13.9561 9.96301 14.0049 9.59521C14.0551 9.21318 14.028 8.82725 13.9297 8.46143C13.8314 8.09569 13.6611 7.74872 13.4258 7.44287C13.1995 7.14824 12.9128 6.89246 12.5713 6.6958L12.0068 6.37061L13.0127 4.63525L14.8652 7.83252L15.8408 7.271C15.6725 6.98031 15.3575 6.43646 15.0068 5.83057C14.2622 4.54396 13.3557 2.97782 13.3457 2.9624C13.3096 2.90035 13.2612 2.85351 13.2061 2.82178C13.1468 2.78807 13.08 2.77028 13.0137 2.771Z" fill="#666666"/>
<path fill-rule="evenodd" clip-rule="evenodd" d="M39.5241 6.63955H32.3226L31.0518 13.7459H33.4091C33.9246 13.0297 34.4406 12.7175 35.3798 12.7175C36.7794 12.7175 37.6085 13.7822 37.6085 15.1227C37.6085 16.4082 36.7429 17.6013 35.3798 17.6013C34.2197 17.6013 33.3906 16.8302 33.2619 15.6729H30.6465C30.7016 18.3723 32.9302 19.7493 35.4349 19.7493C38.0132 19.8042 40.2233 17.766 40.2233 15.1221C40.2233 12.717 38.7866 10.7522 36.2448 10.7522C35.2134 10.7522 34.44 11.0279 33.7216 11.7435L33.6845 11.7065L34.1999 8.78685H39.5223V6.63955H39.5241ZM43.7271 6.38232H41.1117V8.53087H43.7271V6.38232ZM41.1117 19.4932H43.7271V9.99964H41.1117V19.4932ZM45.2775 19.4932H47.8929V15.2146C47.8929 13.5256 48.5376 12.1666 50.4712 12.1666C50.7843 12.1666 51.171 12.203 51.4104 12.2585V9.83486C51.2261 9.77995 51.0423 9.74301 50.8393 9.74301C49.5319 9.74301 48.2976 10.5695 47.8007 11.7626H47.7636V9.99964H45.2775V19.4932ZM54.0851 13.7274C54.1402 12.9927 54.564 11.7077 56.2581 11.7077C57.529 11.7077 58.1001 12.4054 58.3395 13.7274H54.0851ZM60.9547 15.38C61.1571 12.4603 59.5733 9.74301 56.3323 9.74301C53.441 9.74301 51.4703 11.9094 51.4703 14.7556C51.4703 17.6938 53.3302 19.7498 56.3323 19.7498C58.4874 19.7498 60.0526 18.8134 60.7889 16.555H58.4868C58.321 17.1423 57.4739 17.7851 56.4239 17.7851C54.9507 17.7851 54.1587 17.0505 54.0851 15.38H60.9547Z" fill="#666666"/>
</g>
<defs>
<clipPath id="clip0_200_196">
<rect width="61" height="25.9616" fill="white" transform="translate(0 0.0913086)"/>
</clipPath>
</defs>
</svg>
