<svg width="581" height="639" viewBox="0 0 581 639" fill="none" xmlns="http://www.w3.org/2000/svg">
<g filter="url(#filter0_iiii_206_74)">
<path d="M42 67.007C42 43.5526 42 31.8254 46.5645 22.867C50.5796 14.987 56.9863 8.58034 64.8663 4.56526C73.8247 0.000732422 85.5519 0.000732422 109.006 0.000732422L471.957 0.000732422C495.412 0.000732422 507.139 0.000732422 516.097 4.56526C523.977 8.58034 530.384 14.987 534.399 22.867C538.963 31.8254 538.963 43.5526 538.963 67.007V93.5304L42 93.5304V67.007Z" fill="white"/>
<path d="M42 67.007C42 43.5526 42 31.8254 46.5645 22.867C50.5796 14.987 56.9863 8.58034 64.8663 4.56526C73.8247 0.000732422 85.5519 0.000732422 109.006 0.000732422L471.957 0.000732422C495.412 0.000732422 507.139 0.000732422 516.097 4.56526C523.977 8.58034 530.384 14.987 534.399 22.867C538.963 31.8254 538.963 43.5526 538.963 67.007V93.5304L42 93.5304V67.007Z" fill="#239D68" fill-opacity="0.4"/>
<path d="M109.006 0.698975L471.957 0.698975C483.696 0.698975 492.458 0.69963 499.406 1.26733C506.346 1.83437 511.416 2.96348 515.78 5.18726C523.529 9.13541 529.829 15.4357 533.777 23.1843C536.001 27.5486 537.13 32.6184 537.697 39.5583C538.265 46.5066 538.266 55.2684 538.266 67.0066V92.8328L42.6982 92.8328V67.0066C42.6982 55.2683 42.6989 46.5066 43.2666 39.5583C43.8336 32.6183 44.9628 27.5487 47.1865 23.1843C51.1347 15.4356 57.4349 9.13541 65.1836 5.18726C69.5479 2.96358 74.6175 1.83436 81.5576 1.26733C88.5058 0.699672 97.2676 0.698975 109.006 0.698975Z" stroke="#239D68" stroke-width="1.39596"/>
<g clip-path="url(#clip0_206_74)">
<path d="M248.769 30.2518C248.361 30.2518 247.978 30.1604 247.622 29.9786C247.265 29.7969 246.978 29.5343 246.764 29.1921C246.549 28.8498 246.442 28.4459 246.442 27.9825C246.442 27.5191 246.549 27.1152 246.764 26.773C246.978 26.4308 247.265 26.1682 247.622 25.9865C247.978 25.8047 248.361 25.7133 248.769 25.7133C249.177 25.7133 249.559 25.8047 249.914 25.9865C250.268 26.1682 250.555 26.4308 250.771 26.773C250.987 27.1152 251.096 27.5191 251.096 27.9825C251.096 28.4459 250.988 28.8498 250.771 29.1921C250.555 29.5354 250.268 29.7969 249.914 29.9786C249.559 30.1604 249.177 30.2518 248.769 30.2518ZM248.769 29.782C249.087 29.782 249.382 29.7012 249.654 29.5407C249.926 29.3802 250.142 29.1613 250.3 28.886C250.458 28.6096 250.538 28.3088 250.538 27.9836C250.538 27.6584 250.458 27.3565 250.3 27.0812C250.142 26.8049 249.925 26.587 249.654 26.4265C249.381 26.266 249.086 26.1852 248.769 26.1852C248.452 26.1852 248.157 26.266 247.884 26.4265C247.611 26.587 247.396 26.8059 247.238 27.0812C247.079 27.3576 246.999 27.6584 246.999 27.9836C246.999 28.3088 247.079 28.6107 247.238 28.886C247.396 29.1623 247.612 29.3802 247.884 29.5407C248.157 29.7012 248.451 29.782 248.769 29.782ZM247.865 29.1421V26.7783H248.892C249.123 26.7783 249.319 26.8315 249.48 26.9377C249.64 27.044 249.721 27.2088 249.721 27.4298C249.721 27.6137 249.653 27.7615 249.516 27.872C249.38 27.9825 249.226 28.0421 249.053 28.0506V28.0187C249.251 28.0357 249.395 28.0973 249.486 28.2036C249.576 28.3099 249.64 28.4598 249.678 28.6521L249.776 29.1411H249.189L249.102 28.6149C249.081 28.5023 249.047 28.4162 249 28.3577C248.953 28.2993 248.884 28.2695 248.792 28.2695H248.434V29.1411H247.864L247.865 29.1421ZM248.769 27.8316C248.88 27.8359 248.971 27.8082 249.039 27.7498C249.107 27.6913 249.141 27.6095 249.141 27.5053C249.141 27.4012 249.108 27.3225 249.042 27.2704C248.976 27.2183 248.885 27.1896 248.769 27.1854H248.435V27.8316H248.769Z" fill="white"/>
<path d="M298.956 43.6716C298.325 42.1028 297.403 40.8901 296.214 40.0685C295.021 39.2447 293.629 38.827 292.076 38.827C290.757 38.827 289.564 39.1002 288.53 39.638C287.903 39.9643 287.343 40.3714 286.855 40.8571V40.095C286.855 39.6019 286.461 39.2022 285.974 39.2022H280.354C279.867 39.2022 279.473 39.6019 279.473 40.095V65.4933C279.473 65.9865 279.867 66.3861 280.354 66.3861H286.085C286.572 66.3861 286.966 65.9865 286.966 65.4933V57.9214C287.364 58.2998 287.808 58.6304 288.296 58.9099C289.277 59.4711 290.436 59.756 291.743 59.756C293.381 59.756 294.836 59.2957 296.069 58.387C297.281 57.4931 298.233 56.2187 298.898 54.5989C299.544 53.0227 299.871 51.169 299.871 49.0869C299.871 47.0047 299.563 45.1862 298.956 43.6748V43.6716ZM292.304 49.308C292.304 50.4017 292.177 51.3317 291.927 52.0714C291.699 52.7442 291.381 53.2512 290.983 53.5796C290.612 53.8857 290.183 54.0345 289.672 54.0345C289.112 54.0345 288.653 53.8804 288.269 53.5626C287.859 53.2225 287.535 52.7038 287.307 52.0193C287.057 51.2668 286.929 50.3421 286.929 49.2708C286.929 48.1994 287.056 47.313 287.307 46.5594C287.536 45.8749 287.859 45.3562 288.269 45.0161C288.653 44.6983 289.112 44.5431 289.672 44.5431C290.232 44.5431 290.648 44.6919 291.02 44.9991C291.414 45.3233 291.723 45.8324 291.94 46.5105C292.181 47.2673 292.304 48.2079 292.304 49.3069V49.308Z" fill="white"/>
<path d="M318.005 40.9761C316.874 39.5497 315.25 38.8259 313.179 38.8259C311.844 38.8259 310.638 39.1373 309.593 39.7516C308.972 40.1173 308.413 40.5796 307.92 41.1334V32.6389C307.92 32.1458 307.526 31.7461 307.039 31.7461H301.308C300.821 31.7461 300.427 32.1458 300.427 32.6389V58.4485C300.427 58.9417 300.821 59.3413 301.308 59.3413H307.039C307.526 59.3413 307.92 58.9417 307.92 58.4485V49.5332C307.92 48.5426 308.04 47.7061 308.275 47.045C308.483 46.4615 308.766 46.0534 309.141 45.7972C309.526 45.5336 309.987 45.4061 310.553 45.4061C311.253 45.4061 311.52 45.6676 311.673 45.8961C311.873 46.1947 312.113 46.8133 312.113 48.0718V58.4475C312.113 58.9406 312.507 59.3403 312.994 59.3403H318.762C319.249 59.3403 319.643 58.9406 319.643 58.4475V46.4977C319.643 44.2019 319.092 42.344 318.007 40.975L318.005 40.9761Z" fill="white"/>
<path d="M340.033 50.4325V49.4961C340.033 47.3788 339.664 45.4891 338.935 43.8799C338.187 42.2261 337.066 40.9241 335.602 40.0089C334.148 39.1002 332.382 38.64 330.352 38.64C328.322 38.64 326.662 39.0609 325.145 39.8899C323.603 40.7338 322.387 41.9912 321.531 43.6291C320.691 45.2382 320.265 47.1493 320.265 49.309C320.265 51.4688 320.657 53.2321 321.431 54.787C322.223 56.3781 323.394 57.6206 324.912 58.4794C326.407 59.3255 328.225 59.7538 330.314 59.7538C332.807 59.7538 334.894 59.1629 336.517 57.998C338.143 56.8309 339.296 55.2653 339.947 53.3447C340.024 53.1151 340.007 52.8632 339.898 52.6475C339.788 52.4317 339.596 52.2702 339.367 52.2L336.489 51.3253H339.152C339.638 51.3253 340.033 50.9256 340.033 50.4325ZM332.4 46.131H327.963C328.029 45.9057 328.108 45.6985 328.2 45.5114C328.408 45.0905 328.671 44.7886 329.006 44.5888C329.352 44.3816 329.768 44.2817 330.278 44.2817C330.998 44.2817 331.508 44.5027 331.882 44.9768C332.109 45.2637 332.282 45.6506 332.4 46.131ZM333.46 51.3508C333.236 52.1554 332.881 52.7825 332.407 53.2151C331.966 53.6158 331.366 53.8103 330.574 53.8103C329.104 53.8103 328.607 53.1045 328.443 52.8728C328.142 52.4466 327.93 51.929 327.808 51.3242H333.468C333.464 51.3327 333.462 51.3412 333.46 51.3508Z" fill="white"/>
<path d="M354.516 38.6389H353.997C352.536 38.6389 351.214 38.9896 350.07 39.6826C349.297 40.1503 348.618 40.771 348.037 41.5352V40.0929C348.037 39.5997 347.643 39.2 347.156 39.2H341.499C341.013 39.2 340.618 39.5997 340.618 40.0929V58.4486C340.618 58.9417 341.013 59.3414 341.499 59.3414H347.231C347.717 59.3414 348.112 58.9417 348.112 58.4486V51.1807C348.112 50.0487 348.32 49.1177 348.73 48.4119C349.132 47.72 349.69 47.2204 350.437 46.8825C351.231 46.5232 352.205 46.3415 353.332 46.3415C353.508 46.3415 353.682 46.3468 353.846 46.3585C354.014 46.3702 354.207 46.3882 354.419 46.4116C354.452 46.4148 354.483 46.4169 354.516 46.4169C354.732 46.4169 354.942 46.3361 355.103 46.1895C355.29 46.0205 355.396 45.7781 355.396 45.5252V39.5317C355.396 39.0385 355.001 38.6389 354.515 38.6389H354.516Z" fill="white"/>
<path d="M373.981 50.4325V49.4961C373.981 47.3788 373.612 45.4891 372.884 43.8799C372.136 42.2261 371.014 40.9241 369.551 40.0089C368.097 39.1002 366.33 38.64 364.3 38.64C362.27 38.64 360.61 39.0609 359.093 39.8899C357.551 40.7338 356.335 41.9912 355.479 43.6291C354.639 45.2382 354.213 47.1493 354.213 49.309C354.213 51.4688 354.605 53.2331 355.379 54.787C356.172 56.3781 357.342 57.6206 358.86 58.4794C360.355 59.3255 362.173 59.7538 364.262 59.7538C366.755 59.7538 368.843 59.1629 370.466 57.998C372.091 56.8309 373.245 55.2653 373.895 53.3447C373.973 53.1151 373.955 52.8632 373.846 52.6475C373.737 52.4317 373.545 52.2702 373.315 52.2L370.437 51.3253H373.1C373.587 51.3253 373.981 50.9256 373.981 50.4325ZM362.148 45.5125C362.356 45.0916 362.619 44.7897 362.954 44.5899C363.3 44.3826 363.717 44.2827 364.227 44.2827C364.946 44.2827 365.456 44.5038 365.831 44.9778C366.057 45.2648 366.23 45.6517 366.348 46.1321H361.911C361.977 45.9068 362.056 45.6995 362.148 45.5125ZM367.408 51.3508C367.184 52.1554 366.829 52.7825 366.355 53.2151C365.915 53.6158 365.314 53.8103 364.522 53.8103C363.053 53.8103 362.555 53.1045 362.392 52.8728C362.091 52.4466 361.879 51.929 361.756 51.3242H367.416C367.413 51.3327 367.411 51.3412 367.408 51.3497V51.3508Z" fill="white"/>
<path d="M239.23 46.7658C239.23 51.351 241.304 53.7711 244.888 53.4533C247.465 53.1982 248.848 51.7974 249.287 48.8681C249.539 50.9694 250.231 51.9887 251.299 51.8611C252.618 51.6698 253.373 49.8236 253.373 46.7658C253.373 43.7079 252.618 41.8617 251.299 41.6704C250.23 41.5428 249.538 42.5621 249.287 44.6634C248.848 41.7341 247.464 40.3322 244.888 40.0782C241.305 39.7593 239.23 42.1795 239.23 46.7658ZM235.646 24.2213C235.081 25.1768 237.218 27.1505 240.172 28.0423L240.8 28.2336C239.292 28.1698 237.909 28.6789 237.909 30.9088C237.909 33.1387 238.6 35.1762 240.172 36.6409C241.617 38.233 243.692 38.9335 245.83 38.9335C247.968 38.9335 248.533 37.5326 248.47 36.0042L248.659 36.6409C249.602 39.6339 251.487 41.799 252.431 41.2261C253.624 40.5257 252.682 37.0862 252.053 35.3665C251.424 33.6468 249.853 30.7813 248.281 31.3542C247.779 31.5455 247.653 32.1184 247.716 32.8188C247.338 31.9271 246.836 31.1629 246.207 30.5262C245.579 29.8895 244.825 29.3794 243.944 28.9978C244.636 29.0616 245.201 28.934 245.39 28.4249C245.956 26.8327 243.127 25.2406 241.43 24.6039C239.732 23.9672 236.338 23.0117 235.646 24.2213ZM235.646 69.3113C236.337 70.5208 239.732 69.5664 241.43 68.9287C243.127 68.292 245.956 66.6998 245.39 65.1077C245.201 64.5985 244.636 64.471 243.944 64.5348C244.825 64.1521 245.579 63.643 246.207 63.0064C246.836 62.3697 247.339 61.6055 247.716 60.7138C247.653 61.4142 247.779 61.9871 248.281 62.1784C249.853 62.7513 251.424 59.8858 252.053 58.1661C252.681 56.4463 253.624 53.008 252.431 52.3065C251.487 51.7336 249.602 53.8987 248.659 56.8917L248.47 57.5283C248.533 55.9999 248.031 54.5991 245.83 54.5991C243.629 54.5991 241.617 55.2995 240.172 56.8917C238.6 58.3563 237.909 60.4576 237.909 62.6237C237.909 64.7899 239.292 65.3627 240.8 65.299L240.172 65.4903C237.218 66.382 235.081 68.3558 235.646 69.3113ZM223.577 31.8633C223.262 35.493 225.651 37.5953 230.178 37.5953C234.705 37.5953 237.093 35.494 236.779 31.8633C236.527 29.2518 235.145 27.851 232.253 27.4056C234.327 27.1505 235.333 26.4501 235.207 25.3681C235.019 24.031 233.196 23.2668 230.178 23.2668C227.16 23.2668 225.338 24.031 225.149 25.3681C225.023 26.4512 226.029 27.1516 228.103 27.4056C225.212 27.851 223.828 29.2529 223.577 31.8633ZM223.577 61.6682C223.829 64.2797 225.212 65.6805 228.103 66.1259C226.029 66.381 225.023 67.0814 225.149 68.1634C225.338 69.5005 227.16 70.2647 230.178 70.2647C233.196 70.2647 235.019 69.5005 235.207 68.1634C235.333 67.0803 234.327 66.3799 232.253 66.1259C235.145 65.6805 236.528 64.2786 236.779 61.6682C237.094 58.0385 234.705 55.9362 230.178 55.9362C225.651 55.9362 223.263 58.0375 223.577 61.6682ZM222.823 46.7658C222.823 49.1859 223.451 51.0332 224.709 52.3065C225.966 53.5798 227.789 54.2175 230.178 54.2175C232.567 54.2175 234.39 53.5809 235.647 52.3065C236.904 51.0332 237.533 49.1859 237.533 46.7658C237.533 44.3456 236.905 42.4983 235.647 41.225C234.39 39.9517 232.567 39.314 230.178 39.314C227.789 39.314 225.966 39.9506 224.709 41.225C223.452 42.4983 222.823 44.3456 222.823 46.7658ZM207.925 52.3065C206.731 53.0069 207.673 56.4463 208.302 58.1661C208.931 59.8858 210.502 62.7513 212.074 62.1784C212.576 61.9871 212.702 61.4142 212.639 60.7138C213.017 61.6055 213.519 62.3697 214.148 63.0064C214.776 63.643 215.531 64.1532 216.411 64.5348C215.719 64.471 215.154 64.5985 214.965 65.1077C214.4 66.6998 217.228 68.292 218.925 68.9287C220.623 69.5653 224.017 70.5208 224.709 69.3113C225.275 68.3558 223.138 66.382 220.183 65.4903L219.555 65.299C221.064 65.3627 222.446 64.8536 222.446 62.6237C222.446 60.3938 221.755 58.3563 220.183 56.8917C218.738 55.2995 216.664 54.5991 214.526 54.5991C212.387 54.5991 211.822 55.9999 211.885 57.5283L211.696 56.8917C210.816 53.8987 208.868 51.7336 207.925 52.3065ZM206.981 46.7658C206.981 49.8226 207.736 51.6698 209.056 51.8611C210.125 51.9887 210.816 50.9694 211.067 48.8681C211.506 51.7974 212.89 53.1993 215.467 53.4533C219.049 53.7722 221.124 51.352 221.124 46.7658C221.124 42.1795 219.05 39.7604 215.467 40.0782C212.889 40.3333 211.506 41.7341 211.067 44.6634C210.815 42.5621 210.124 41.5428 209.056 41.6704C207.736 41.8617 206.981 43.7079 206.981 46.7658ZM214.148 30.5262C213.519 31.1629 213.016 31.9271 212.639 32.8188C212.702 32.1184 212.576 31.5455 212.074 31.3542C210.502 30.7813 208.931 33.6468 208.302 35.3665C207.674 37.0862 206.731 40.5246 207.925 41.2261C208.868 41.799 210.816 39.6339 211.696 36.6409L211.885 36.0042C211.822 37.5326 212.325 38.9335 214.526 38.9335C216.727 38.9335 218.738 38.233 220.183 36.6409C221.755 35.1762 222.446 33.075 222.446 30.9088C222.446 28.7427 221.064 28.1698 219.555 28.2336L220.183 28.0423C223.138 27.1505 225.275 25.1768 224.709 24.2213C224.018 23.0117 220.623 23.9662 218.925 24.6039C217.228 25.2406 214.4 26.8327 214.965 28.4249C215.154 28.934 215.719 29.0616 216.411 28.9978C215.531 29.3804 214.776 29.8895 214.148 30.5262Z" fill="white"/>
<path d="M278.034 46.9239C277.404 45.7866 276.557 44.8375 275.514 44.0999C274.512 43.392 273.305 42.7936 271.928 42.3196C271.919 42.3164 271.909 42.3132 271.9 42.31L267.616 41.0005C266.804 40.7401 266.19 40.4298 265.793 40.0769C265.493 39.8112 265.353 39.4838 265.353 39.0438C265.353 38.6888 265.44 38.3986 265.621 38.1563C265.819 37.8885 266.099 37.6844 266.478 37.5335C266.903 37.3634 267.409 37.2773 267.984 37.2773C268.945 37.2773 269.68 37.5303 270.232 38.05C270.796 38.5825 271.153 39.3318 271.323 40.3416L271.355 40.9463C271.365 41.1175 271.414 41.2854 271.511 41.4257C271.685 41.6755 271.957 41.8094 272.236 41.8094C272.311 41.8094 272.385 41.7998 272.459 41.7807L277.562 40.4319C278.028 40.3086 278.311 39.8271 278.194 39.352L278.091 38.9343C277.681 36.5418 276.613 34.6255 274.917 33.2363C273.223 31.8493 270.928 31.1467 268.097 31.1467C266.286 31.1467 264.603 31.473 263.096 32.115C261.549 32.775 260.282 33.7667 259.329 35.0644C258.355 36.3898 257.862 38.0181 257.862 39.9047C257.862 42.1718 258.582 44.0159 260.003 45.3838C261.341 46.672 263.143 47.6743 265.357 48.3609L268.71 49.444C269.395 49.6757 269.963 49.9127 270.397 50.1497C270.734 50.3336 270.974 50.5451 271.113 50.7779C271.252 51.0138 271.321 51.305 271.321 51.6675C271.321 52.0841 271.24 52.4253 271.072 52.7133C270.92 52.9748 270.684 53.1746 270.349 53.3234C269.958 53.4967 269.436 53.5849 268.8 53.5849C267.632 53.5849 266.698 53.2543 265.947 52.5752C265.184 51.8864 264.644 50.8438 264.341 49.4769L264.237 48.8158C264.209 48.6341 264.133 48.4597 264.008 48.3248C263.834 48.1377 263.6 48.0399 263.363 48.0399C263.266 48.0399 263.168 48.0559 263.074 48.0899L258.234 49.7947C257.665 49.9945 257.335 50.595 257.466 51.1903C258.602 56.3569 262.084 59.9387 268.576 59.9387C270.672 59.9387 272.518 59.5561 274.061 58.8014C275.633 58.0319 276.862 56.9595 277.711 55.6128C278.564 54.2609 278.996 52.7187 278.996 51.0308C278.996 49.4588 278.672 48.0771 278.033 46.9228L278.034 46.9239Z" fill="white"/>
</g>
</g>
<g filter="url(#filter1_d_206_74)">
<g clip-path="url(#clip1_206_74)">
<path d="M42 92.1344L538.963 92.1344V487.818C538.963 511.272 538.963 522.999 534.399 531.958C530.384 539.838 523.977 546.245 516.097 550.26C507.139 554.824 495.412 554.824 471.957 554.824H109.006C85.5519 554.824 73.8247 554.824 64.8663 550.26C56.9863 546.245 50.5796 539.838 46.5645 531.958C42 522.999 42 511.272 42 487.818L42 92.1344Z" fill="white"/>
<path d="M537.778 113.074L43.1855 113.074" stroke="#E5E5E5" stroke-width="2.79193" stroke-linecap="round" stroke-dasharray="5.58 5.58"/>
<path d="M216.596 164.993V162.748H221.798C223.025 162.748 223.962 162.502 224.608 162.012C225.254 161.521 225.577 160.801 225.577 159.852V159.828C225.577 159.198 225.426 158.67 225.123 158.245C224.829 157.812 224.387 157.488 223.798 157.276C223.209 157.063 222.481 156.957 221.614 156.957H216.596V154.834H221.05C222.26 154.834 223.185 154.601 223.823 154.135C224.461 153.66 224.78 152.982 224.78 152.098V152.074C224.78 151.256 224.506 150.63 223.958 150.196C223.41 149.755 222.637 149.534 221.639 149.534H216.596V147.289H222.301C223.365 147.289 224.285 147.473 225.062 147.841C225.847 148.201 226.452 148.712 226.878 149.374C227.311 150.037 227.528 150.818 227.528 151.718V151.742C227.528 152.364 227.385 152.953 227.099 153.509C226.821 154.057 226.432 154.519 225.933 154.896C225.442 155.264 224.886 155.497 224.264 155.595V155.669C225.099 155.75 225.827 155.988 226.448 156.38C227.07 156.765 227.549 157.268 227.884 157.889C228.227 158.503 228.399 159.198 228.399 159.975V160C228.399 161.038 228.154 161.93 227.663 162.674C227.18 163.419 226.489 163.991 225.59 164.392C224.698 164.793 223.618 164.993 222.35 164.993H216.596ZM215.222 164.993V147.289H217.983V164.993H215.222ZM230.608 164.993V152.037H233.27V154.221H233.344C233.556 153.46 233.929 152.863 234.46 152.429C234.992 151.996 235.634 151.779 236.386 151.779C236.583 151.779 236.763 151.791 236.926 151.816C237.098 151.841 237.237 151.865 237.343 151.89V154.356C237.221 154.315 237.049 154.282 236.828 154.258C236.615 154.225 236.378 154.208 236.117 154.208C235.536 154.208 235.033 154.331 234.607 154.577C234.182 154.814 233.851 155.161 233.614 155.619C233.385 156.078 233.27 156.626 233.27 157.264V164.993H230.608ZM242.631 165.226C241.781 165.226 241.028 165.063 240.374 164.735C239.728 164.408 239.221 163.95 238.853 163.361C238.484 162.772 238.3 162.089 238.3 161.312V161.3C238.3 160.539 238.489 159.885 238.865 159.337C239.249 158.789 239.801 158.355 240.521 158.036C241.241 157.717 242.112 157.525 243.135 157.46L248.018 157.178V159.043L243.49 159.325C242.681 159.374 242.059 159.566 241.625 159.901C241.2 160.229 240.987 160.67 240.987 161.226V161.239C240.987 161.811 241.204 162.265 241.638 162.601C242.071 162.928 242.644 163.091 243.355 163.091C243.985 163.091 244.545 162.965 245.036 162.711C245.535 162.449 245.928 162.098 246.214 161.656C246.509 161.206 246.656 160.703 246.656 160.147V156.257C246.656 155.546 246.431 154.99 245.981 154.589C245.539 154.18 244.901 153.975 244.067 153.975C243.306 153.975 242.693 154.135 242.227 154.454C241.769 154.773 241.482 155.19 241.368 155.705L241.343 155.803H238.828L238.84 155.669C238.914 154.932 239.167 154.27 239.601 153.681C240.043 153.092 240.648 152.63 241.417 152.294C242.186 151.951 243.098 151.779 244.153 151.779C245.208 151.779 246.12 151.955 246.889 152.307C247.666 152.658 248.263 153.157 248.68 153.804C249.106 154.442 249.318 155.198 249.318 156.073V164.993H246.656V162.981H246.582C246.329 163.439 246.001 163.836 245.601 164.171C245.208 164.506 244.758 164.768 244.251 164.956C243.744 165.136 243.204 165.226 242.631 165.226ZM252.054 164.993V152.037H254.717V153.988H254.79C255.134 153.325 255.633 152.793 256.287 152.393C256.95 151.984 257.768 151.779 258.741 151.779C260.164 151.779 261.264 152.209 262.041 153.067C262.827 153.918 263.219 155.096 263.219 156.601V164.993H260.557V157.129C260.557 156.139 260.328 155.382 259.87 154.859C259.412 154.327 258.721 154.061 257.796 154.061C257.175 154.061 256.631 154.2 256.164 154.478C255.706 154.757 255.351 155.149 255.097 155.656C254.843 156.155 254.717 156.744 254.717 157.423V164.993H252.054ZM270.74 165.239C269.644 165.239 268.691 164.969 267.882 164.429C267.072 163.881 266.442 163.104 265.992 162.098C265.55 161.083 265.33 159.889 265.33 158.515V158.503C265.33 157.12 265.55 155.93 265.992 154.932C266.442 153.926 267.072 153.149 267.882 152.601C268.691 152.053 269.64 151.779 270.728 151.779C271.341 151.779 271.906 151.877 272.421 152.074C272.945 152.27 273.407 152.552 273.808 152.92C274.217 153.28 274.548 153.71 274.801 154.208H274.875V147.178H277.537V164.993H274.875V162.821H274.801C274.548 163.32 274.221 163.75 273.82 164.11C273.427 164.47 272.969 164.748 272.446 164.944C271.93 165.14 271.362 165.239 270.74 165.239ZM271.452 162.956C272.131 162.956 272.728 162.776 273.243 162.417C273.767 162.049 274.172 161.533 274.458 160.871C274.744 160.2 274.887 159.415 274.887 158.515V158.503C274.887 157.603 274.74 156.822 274.446 156.159C274.159 155.497 273.759 154.986 273.243 154.626C272.728 154.258 272.131 154.074 271.452 154.074C270.757 154.074 270.151 154.253 269.636 154.613C269.129 154.965 268.736 155.472 268.458 156.135C268.188 156.797 268.053 157.587 268.053 158.503V158.515C268.053 159.431 268.188 160.224 268.458 160.895C268.736 161.558 269.129 162.069 269.636 162.429C270.151 162.781 270.757 162.956 271.452 162.956ZM286.065 164.993V147.289H288.825V164.993H286.065ZM296.751 165.239C295.655 165.239 294.702 164.969 293.892 164.429C293.083 163.881 292.453 163.104 292.003 162.098C291.561 161.083 291.34 159.889 291.34 158.515V158.503C291.34 157.12 291.561 155.93 292.003 154.932C292.453 153.926 293.083 153.149 293.892 152.601C294.702 152.053 295.651 151.779 296.739 151.779C297.352 151.779 297.917 151.877 298.432 152.074C298.955 152.27 299.418 152.552 299.818 152.92C300.227 153.28 300.559 153.71 300.812 154.208H300.886V147.178H303.548V164.993H300.886V162.821H300.812C300.559 163.32 300.231 163.75 299.831 164.11C299.438 164.47 298.98 164.748 298.456 164.944C297.941 165.14 297.373 165.239 296.751 165.239ZM297.463 162.956C298.142 162.956 298.739 162.776 299.254 162.417C299.777 162.049 300.182 161.533 300.469 160.871C300.755 160.2 300.898 159.415 300.898 158.515V158.503C300.898 157.603 300.751 156.822 300.456 156.159C300.17 155.497 299.769 154.986 299.254 154.626C298.739 154.258 298.142 154.074 297.463 154.074C296.767 154.074 296.162 154.253 295.647 154.613C295.14 154.965 294.747 155.472 294.469 156.135C294.199 156.797 294.064 157.587 294.064 158.503V158.515C294.064 159.431 294.199 160.224 294.469 160.895C294.747 161.558 295.14 162.069 295.647 162.429C296.162 162.781 296.767 162.956 297.463 162.956ZM311.965 165.251C310.697 165.251 309.605 164.977 308.689 164.429C307.773 163.881 307.069 163.108 306.579 162.11C306.088 161.104 305.843 159.918 305.843 158.552V158.54C305.843 157.19 306.088 156.008 306.579 154.994C307.078 153.979 307.773 153.19 308.664 152.626C309.556 152.061 310.607 151.779 311.818 151.779C313.028 151.779 314.071 152.053 314.946 152.601C315.83 153.141 316.509 153.902 316.983 154.883C317.457 155.857 317.695 156.99 317.695 158.282V159.19H307.168V157.313H316.394L315.093 159.067V158.036C315.093 157.12 314.954 156.36 314.676 155.754C314.398 155.149 314.014 154.699 313.523 154.405C313.04 154.11 312.48 153.963 311.842 153.963C311.204 153.963 310.632 154.119 310.124 154.429C309.626 154.74 309.229 155.198 308.934 155.803C308.648 156.409 308.505 157.153 308.505 158.036V159.067C308.505 159.91 308.648 160.629 308.934 161.226C309.221 161.824 309.626 162.282 310.149 162.601C310.681 162.911 311.302 163.067 312.014 163.067C312.546 163.067 313.012 162.989 313.413 162.834C313.822 162.67 314.157 162.457 314.419 162.196C314.68 161.926 314.864 161.635 314.971 161.325L315.008 161.226H317.547L317.523 161.361C317.416 161.86 317.216 162.343 316.922 162.809C316.627 163.267 316.243 163.684 315.768 164.061C315.302 164.429 314.75 164.719 314.112 164.932C313.474 165.144 312.758 165.251 311.965 165.251ZM319.878 164.993V152.037H322.541V153.988H322.615C322.958 153.325 323.457 152.793 324.111 152.393C324.774 151.984 325.592 151.779 326.565 151.779C327.988 151.779 329.089 152.209 329.866 153.067C330.651 153.918 331.043 155.096 331.043 156.601V164.993H328.381V157.129C328.381 156.139 328.152 155.382 327.694 154.859C327.236 154.327 326.545 154.061 325.62 154.061C324.999 154.061 324.455 154.2 323.989 154.478C323.531 154.757 323.175 155.149 322.921 155.656C322.668 156.155 322.541 156.744 322.541 157.423V164.993H319.878ZM338.344 165.226C337.043 165.226 336.078 164.94 335.448 164.367C334.826 163.795 334.516 162.862 334.516 161.57V154.147H332.626V152.037H334.516V148.675H337.239V152.037H339.718V154.147H337.239V161.361C337.239 162.024 337.383 162.482 337.669 162.736C337.955 162.981 338.385 163.104 338.957 163.104C339.104 163.104 339.239 163.1 339.362 163.091C339.493 163.075 339.611 163.063 339.718 163.055V165.116C339.554 165.14 339.35 165.165 339.104 165.189C338.867 165.214 338.614 165.226 338.344 165.226ZM342.11 164.993V152.037H344.773V164.993H342.11ZM343.448 150C343.014 150 342.642 149.849 342.331 149.546C342.029 149.235 341.877 148.871 341.877 148.454C341.877 148.021 342.029 147.653 342.331 147.35C342.642 147.047 343.014 146.896 343.448 146.896C343.889 146.896 344.257 147.047 344.552 147.35C344.855 147.653 345.006 148.021 345.006 148.454C345.006 148.871 344.855 149.235 344.552 149.546C344.257 149.849 343.889 150 343.448 150ZM352.257 165.226C350.956 165.226 349.991 164.94 349.361 164.367C348.74 163.795 348.429 162.862 348.429 161.57V154.147H346.54V152.037H348.429V148.675H351.153V152.037H353.631V154.147H351.153V161.361C351.153 162.024 351.296 162.482 351.582 162.736C351.868 162.981 352.298 163.104 352.87 163.104C353.018 163.104 353.153 163.1 353.275 163.091C353.406 163.075 353.525 163.063 353.631 163.055V165.116C353.468 165.14 353.263 165.165 353.018 165.189C352.78 165.214 352.527 165.226 352.257 165.226ZM357.422 169.349C357.177 169.349 356.932 169.336 356.686 169.312C356.449 169.287 356.244 169.263 356.073 169.238V167.153C356.179 167.177 356.306 167.198 356.453 167.214C356.608 167.23 356.776 167.238 356.956 167.238C357.578 167.238 358.077 167.124 358.453 166.895C358.829 166.674 359.124 166.253 359.336 165.631L359.545 165.005L354.833 152.037H357.717L361.177 163.226L360.674 162.552H361.373L360.858 163.226L364.33 152.037H367.14L362.305 165.57C361.986 166.486 361.61 167.218 361.177 167.766C360.743 168.322 360.224 168.723 359.618 168.968C359.013 169.222 358.281 169.349 357.422 169.349Z" fill="#404040"/>
<rect x="43.3955" y="185.953" width="494.171" height="1.39596" fill="#E5E5E5"/>
<path d="M211.284 225.308V207.604H214.044V222.928H222.289V225.308H211.284ZM228.24 225.542C227.389 225.542 226.637 225.378 225.982 225.051C225.336 224.724 224.829 224.266 224.461 223.677C224.093 223.088 223.909 222.405 223.909 221.628V221.615C223.909 220.855 224.097 220.2 224.473 219.652C224.857 219.104 225.41 218.671 226.129 218.352C226.849 218.033 227.72 217.841 228.743 217.775L233.626 217.493V219.358L229.099 219.64C228.289 219.689 227.667 219.881 227.234 220.217C226.808 220.544 226.596 220.986 226.596 221.542V221.554C226.596 222.127 226.812 222.581 227.246 222.916C227.679 223.243 228.252 223.407 228.964 223.407C229.593 223.407 230.154 223.28 230.644 223.026C231.143 222.765 231.536 222.413 231.822 221.971C232.117 221.521 232.264 221.018 232.264 220.462V216.573C232.264 215.861 232.039 215.305 231.589 214.904C231.148 214.495 230.51 214.291 229.675 214.291C228.915 214.291 228.301 214.45 227.835 214.769C227.377 215.088 227.09 215.505 226.976 216.021L226.951 216.119H224.436L224.449 215.984C224.522 215.248 224.776 214.585 225.209 213.996C225.651 213.407 226.256 212.945 227.025 212.61C227.794 212.266 228.706 212.094 229.761 212.094C230.816 212.094 231.728 212.27 232.497 212.622C233.274 212.974 233.871 213.473 234.288 214.119C234.714 214.757 234.926 215.513 234.926 216.389V225.308H232.264V223.296H232.19C231.937 223.754 231.61 224.151 231.209 224.486C230.816 224.822 230.366 225.083 229.859 225.272C229.352 225.452 228.812 225.542 228.24 225.542ZM237.662 225.308V212.352H240.325V214.303H240.398C240.742 213.64 241.241 213.109 241.895 212.708C242.558 212.299 243.376 212.094 244.349 212.094C245.772 212.094 246.873 212.524 247.65 213.383C248.435 214.233 248.827 215.411 248.827 216.916V225.308H246.165V217.444C246.165 216.454 245.936 215.698 245.478 215.174C245.02 214.642 244.329 214.377 243.404 214.377C242.783 214.377 242.239 214.516 241.773 214.794C241.315 215.072 240.959 215.464 240.705 215.972C240.452 216.47 240.325 217.059 240.325 217.738V225.308H237.662ZM256.348 225.554C255.252 225.554 254.3 225.284 253.49 224.744C252.68 224.196 252.05 223.419 251.6 222.413C251.159 221.399 250.938 220.204 250.938 218.83V218.818C250.938 217.436 251.159 216.246 251.6 215.248C252.05 214.242 252.68 213.465 253.49 212.916C254.3 212.368 255.248 212.094 256.336 212.094C256.95 212.094 257.514 212.193 258.029 212.389C258.553 212.585 259.015 212.867 259.416 213.235C259.825 213.595 260.156 214.025 260.41 214.524H260.483V207.494H263.146V225.308H260.483V223.137H260.41C260.156 223.636 259.829 224.065 259.428 224.425C259.035 224.785 258.577 225.063 258.054 225.259C257.539 225.456 256.97 225.554 256.348 225.554ZM257.06 223.272C257.739 223.272 258.336 223.092 258.851 222.732C259.375 222.364 259.78 221.848 260.066 221.186C260.352 220.515 260.495 219.73 260.495 218.83V218.818C260.495 217.918 260.348 217.137 260.054 216.475C259.768 215.812 259.367 215.301 258.851 214.941C258.336 214.573 257.739 214.389 257.06 214.389C256.365 214.389 255.76 214.569 255.244 214.929C254.737 215.28 254.345 215.787 254.066 216.45C253.796 217.113 253.662 217.902 253.662 218.818V218.83C253.662 219.746 253.796 220.54 254.066 221.21C254.345 221.873 254.737 222.384 255.244 222.744C255.76 223.096 256.365 223.272 257.06 223.272ZM266.127 225.308V212.352H268.789V225.308H266.127ZM267.464 210.315C267.031 210.315 266.659 210.164 266.348 209.861C266.045 209.551 265.894 209.187 265.894 208.77C265.894 208.336 266.045 207.968 266.348 207.665C266.659 207.363 267.031 207.211 267.464 207.211C267.906 207.211 268.274 207.363 268.569 207.665C268.871 207.968 269.023 208.336 269.023 208.77C269.023 209.187 268.871 209.551 268.569 209.861C268.274 210.164 267.906 210.315 267.464 210.315ZM271.673 225.308V212.352H274.335V214.303H274.409C274.752 213.64 275.251 213.109 275.906 212.708C276.568 212.299 277.386 212.094 278.359 212.094C279.783 212.094 280.883 212.524 281.66 213.383C282.445 214.233 282.838 215.411 282.838 216.916V225.308H280.175V217.444C280.175 216.454 279.946 215.698 279.488 215.174C279.03 214.642 278.339 214.377 277.415 214.377C276.793 214.377 276.249 214.516 275.783 214.794C275.325 215.072 274.969 215.464 274.716 215.972C274.462 216.47 274.335 217.059 274.335 217.738V225.308H271.673ZM291.205 229.873C290.093 229.873 289.124 229.717 288.298 229.406C287.48 229.104 286.821 228.682 286.322 228.143C285.831 227.611 285.521 227.01 285.39 226.339L285.377 226.241H288.028L288.064 226.339C288.236 226.748 288.592 227.083 289.132 227.345C289.672 227.607 290.359 227.738 291.193 227.738C292.248 227.738 293.062 227.476 293.635 226.952C294.207 226.437 294.493 225.73 294.493 224.83V222.94H294.42C294.166 223.415 293.839 223.824 293.438 224.167C293.046 224.503 292.588 224.764 292.064 224.953C291.541 225.141 290.968 225.235 290.346 225.235C289.259 225.235 288.31 224.965 287.5 224.425C286.69 223.885 286.06 223.129 285.611 222.155C285.169 221.174 284.948 220.02 284.948 218.695V218.683C284.948 217.342 285.173 216.18 285.623 215.199C286.081 214.209 286.715 213.444 287.525 212.904C288.343 212.364 289.3 212.094 290.396 212.094C291.009 212.094 291.569 212.197 292.076 212.401C292.592 212.606 293.046 212.892 293.438 213.26C293.839 213.62 294.166 214.045 294.42 214.536H294.493V212.352H297.156V224.965C297.156 225.946 296.915 226.805 296.432 227.541C295.949 228.278 295.262 228.85 294.371 229.259C293.479 229.668 292.424 229.873 291.205 229.873ZM291.095 223.063C291.782 223.063 292.379 222.883 292.886 222.523C293.393 222.163 293.79 221.66 294.076 221.014C294.363 220.36 294.506 219.595 294.506 218.72V218.708C294.506 217.832 294.363 217.072 294.076 216.425C293.79 215.779 293.389 215.276 292.874 214.916C292.367 214.556 291.774 214.377 291.095 214.377C290.391 214.377 289.782 214.556 289.267 214.916C288.751 215.268 288.355 215.767 288.077 216.413C287.807 217.059 287.672 217.824 287.672 218.708V218.72C287.672 219.611 287.807 220.384 288.077 221.039C288.355 221.685 288.751 222.184 289.267 222.536C289.782 222.887 290.391 223.063 291.095 223.063ZM306.959 219.26V216.953H311.535C312.73 216.953 313.654 216.646 314.308 216.033C314.971 215.411 315.302 214.552 315.302 213.456V213.432C315.302 212.319 314.971 211.456 314.308 210.843C313.654 210.23 312.73 209.923 311.535 209.923H306.959V207.604H312.223C313.384 207.604 314.402 207.849 315.278 208.34C316.161 208.823 316.852 209.502 317.351 210.377C317.85 211.244 318.099 212.254 318.099 213.407V213.432C318.099 214.585 317.85 215.603 317.351 216.487C316.852 217.362 316.161 218.045 315.278 218.536C314.402 219.018 313.384 219.26 312.223 219.26H306.959ZM305.585 225.308V207.604H308.345V225.308H305.585ZM323.154 225.542C322.304 225.542 321.551 225.378 320.897 225.051C320.251 224.724 319.744 224.266 319.375 223.677C319.007 223.088 318.823 222.405 318.823 221.628V221.615C318.823 220.855 319.011 220.2 319.388 219.652C319.772 219.104 320.324 218.671 321.044 218.352C321.764 218.033 322.635 217.841 323.657 217.775L328.541 217.493V219.358L324.013 219.64C323.203 219.689 322.582 219.881 322.148 220.217C321.723 220.544 321.51 220.986 321.51 221.542V221.554C321.51 222.127 321.727 222.581 322.161 222.916C322.594 223.243 323.167 223.407 323.878 223.407C324.508 223.407 325.068 223.28 325.559 223.026C326.058 222.765 326.451 222.413 326.737 221.971C327.031 221.521 327.179 221.018 327.179 220.462V216.573C327.179 215.861 326.954 215.305 326.504 214.904C326.062 214.495 325.424 214.291 324.59 214.291C323.829 214.291 323.216 214.45 322.749 214.769C322.291 215.088 322.005 215.505 321.891 216.021L321.866 216.119H319.351L319.363 215.984C319.437 215.248 319.69 214.585 320.124 213.996C320.566 213.407 321.171 212.945 321.94 212.61C322.709 212.266 323.621 212.094 324.676 212.094C325.731 212.094 326.643 212.27 327.412 212.622C328.189 212.974 328.786 213.473 329.203 214.119C329.628 214.757 329.841 215.513 329.841 216.389V225.308H327.179V223.296H327.105C326.852 223.754 326.524 224.151 326.124 224.486C325.731 224.822 325.281 225.083 324.774 225.272C324.267 225.452 323.727 225.542 323.154 225.542ZM338.246 229.873C337.133 229.873 336.164 229.717 335.338 229.406C334.52 229.104 333.861 228.682 333.362 228.143C332.872 227.611 332.561 227.01 332.43 226.339L332.418 226.241H335.068L335.105 226.339C335.276 226.748 335.632 227.083 336.172 227.345C336.712 227.607 337.399 227.738 338.233 227.738C339.288 227.738 340.102 227.476 340.675 226.952C341.247 226.437 341.534 225.73 341.534 224.83V222.94H341.46C341.206 223.415 340.879 223.824 340.479 224.167C340.086 224.503 339.628 224.764 339.104 224.953C338.581 225.141 338.008 225.235 337.387 225.235C336.299 225.235 335.35 224.965 334.54 224.425C333.73 223.885 333.101 223.129 332.651 222.155C332.209 221.174 331.988 220.02 331.988 218.695V218.683C331.988 217.342 332.213 216.18 332.663 215.199C333.121 214.209 333.755 213.444 334.565 212.904C335.383 212.364 336.34 212.094 337.436 212.094C338.049 212.094 338.61 212.197 339.117 212.401C339.632 212.606 340.086 212.892 340.479 213.26C340.879 213.62 341.206 214.045 341.46 214.536H341.534V212.352H344.196V224.965C344.196 225.946 343.955 226.805 343.472 227.541C342.99 228.278 342.303 228.85 341.411 229.259C340.519 229.668 339.464 229.873 338.246 229.873ZM338.135 223.063C338.822 223.063 339.419 222.883 339.926 222.523C340.434 222.163 340.83 221.66 341.117 221.014C341.403 220.36 341.546 219.595 341.546 218.72V218.708C341.546 217.832 341.403 217.072 341.117 216.425C340.83 215.779 340.429 215.276 339.914 214.916C339.407 214.556 338.814 214.377 338.135 214.377C337.432 214.377 336.822 214.556 336.307 214.916C335.792 215.268 335.395 215.767 335.117 216.413C334.847 217.059 334.712 217.824 334.712 218.708V218.72C334.712 219.611 334.847 220.384 335.117 221.039C335.395 221.685 335.792 222.184 336.307 222.536C336.822 222.887 337.432 223.063 338.135 223.063ZM352.515 225.566C351.247 225.566 350.155 225.292 349.239 224.744C348.323 224.196 347.619 223.423 347.128 222.425C346.638 221.419 346.392 220.233 346.392 218.867V218.855C346.392 217.505 346.638 216.323 347.128 215.309C347.627 214.295 348.323 213.505 349.214 212.941C350.106 212.377 351.157 212.094 352.367 212.094C353.578 212.094 354.621 212.368 355.496 212.916C356.379 213.456 357.058 214.217 357.533 215.199C358.007 216.172 358.244 217.305 358.244 218.597V219.505H347.717V217.628H356.944L355.643 219.382V218.352C355.643 217.436 355.504 216.675 355.226 216.07C354.948 215.464 354.564 215.015 354.073 214.72C353.59 214.426 353.03 214.278 352.392 214.278C351.754 214.278 351.181 214.434 350.674 214.745C350.175 215.055 349.779 215.513 349.484 216.119C349.198 216.724 349.055 217.468 349.055 218.352V219.382C349.055 220.225 349.198 220.945 349.484 221.542C349.77 222.139 350.175 222.597 350.699 222.916C351.23 223.227 351.852 223.382 352.564 223.382C353.095 223.382 353.562 223.304 353.962 223.149C354.371 222.985 354.707 222.773 354.968 222.511C355.23 222.241 355.414 221.951 355.521 221.64L355.557 221.542H358.097L358.073 221.677C357.966 222.176 357.766 222.658 357.471 223.124C357.177 223.583 356.792 224 356.318 224.376C355.852 224.744 355.3 225.034 354.662 225.247C354.024 225.46 353.308 225.566 352.515 225.566ZM365.275 225.566C364.203 225.566 363.279 225.402 362.502 225.075C361.725 224.748 361.111 224.29 360.661 223.701C360.22 223.112 359.954 222.425 359.864 221.64L359.852 221.542H362.489L362.514 221.652C362.645 222.233 362.939 222.687 363.397 223.014C363.855 223.341 364.485 223.505 365.287 223.505C365.827 223.505 366.285 223.435 366.661 223.296C367.045 223.157 367.34 222.961 367.544 222.707C367.757 222.446 367.863 222.143 367.863 221.799V221.787C367.863 221.362 367.724 221.022 367.446 220.769C367.168 220.507 366.677 220.29 365.974 220.119L363.864 219.64C363.046 219.452 362.363 219.194 361.815 218.867C361.275 218.54 360.87 218.139 360.6 217.665C360.33 217.19 360.195 216.638 360.195 216.008V215.996C360.195 215.219 360.404 214.54 360.821 213.959C361.246 213.37 361.835 212.912 362.588 212.585C363.34 212.258 364.211 212.094 365.201 212.094C366.223 212.094 367.103 212.266 367.839 212.61C368.583 212.953 369.16 213.42 369.569 214.008C369.986 214.589 370.219 215.244 370.268 215.972V216.106H367.765L367.753 216.021C367.671 215.473 367.414 215.027 366.98 214.683C366.547 214.332 365.953 214.156 365.201 214.156C364.727 214.156 364.314 214.225 363.962 214.364C363.61 214.503 363.336 214.704 363.14 214.965C362.952 215.219 362.858 215.518 362.858 215.861V215.873C362.858 216.143 362.923 216.385 363.054 216.597C363.185 216.802 363.393 216.986 363.68 217.149C363.966 217.305 364.338 217.436 364.796 217.542L366.894 218.033C368.219 218.335 369.16 218.765 369.716 219.321C370.28 219.877 370.563 220.622 370.563 221.554V221.566C370.563 222.36 370.334 223.059 369.876 223.664C369.426 224.261 368.8 224.728 367.998 225.063C367.205 225.398 366.297 225.566 365.275 225.566Z" fill="#404040"/>
<rect x="43.3955" y="246.268" width="494.171" height="1.39596" fill="#E5E5E5"/>
<path d="M266.52 285.943C265.039 285.943 263.763 285.669 262.692 285.121C261.62 284.573 260.794 283.808 260.213 282.826C259.633 281.845 259.342 280.708 259.342 279.415V267.919H262.09V279.195C262.09 280.053 262.262 280.806 262.606 281.452C262.957 282.09 263.461 282.593 264.115 282.961C264.777 283.321 265.579 283.501 266.52 283.501C267.46 283.501 268.258 283.321 268.912 282.961C269.567 282.593 270.065 282.09 270.409 281.452C270.753 280.806 270.924 280.053 270.924 279.195V267.919H273.685V279.415C273.685 280.708 273.395 281.845 272.814 282.826C272.241 283.808 271.419 284.573 270.348 285.121C269.276 285.669 268 285.943 266.52 285.943ZM277.108 285.624V267.919H279.869V285.624H277.108ZM288.923 267.809L284.052 289.942H281.586L286.457 267.809H288.923ZM297.88 285.943C296.399 285.943 295.123 285.669 294.052 285.121C292.98 284.573 292.154 283.808 291.573 282.826C290.993 281.845 290.702 280.708 290.702 279.415V267.919H293.451V279.195C293.451 280.053 293.622 280.806 293.966 281.452C294.318 282.09 294.821 282.593 295.475 282.961C296.138 283.321 296.939 283.501 297.88 283.501C298.82 283.501 299.618 283.321 300.272 282.961C300.927 282.593 301.426 282.09 301.769 281.452C302.113 280.806 302.284 280.053 302.284 279.195V267.919H305.045V279.415C305.045 280.708 304.755 281.845 304.174 282.826C303.601 283.808 302.779 284.573 301.708 285.121C300.636 285.669 299.36 285.943 297.88 285.943ZM307.376 285.624L313.903 275.735L313.265 277.919V276.679L307.438 267.919H310.726L315.093 274.778H316.357L314.554 275.796L319.596 267.919H322.713L316.701 276.765V278.017L316.05 275.833L322.59 285.624H319.363L314.959 278.876H313.695L315.523 277.87L310.431 285.624H307.376Z" fill="#404040"/>
<rect x="43.3955" y="306.583" width="494.171" height="1.39596" fill="#E5E5E5"/>
<path d="M213.063 345.939V328.234H216.253L221.958 342.344H222.056L227.773 328.234H230.951V345.939H228.436V332.897H227.16L230.031 328.725L223.025 345.939H220.989L213.983 328.725L216.854 332.897H215.578V345.939H213.063ZM239.613 346.197C238.37 346.197 237.286 345.927 236.362 345.387C235.438 344.839 234.722 344.062 234.215 343.056C233.708 342.041 233.454 340.843 233.454 339.461V339.436C233.454 338.054 233.708 336.864 234.215 335.866C234.73 334.86 235.45 334.087 236.374 333.547C237.298 332.999 238.374 332.725 239.601 332.725C240.844 332.725 241.924 332.995 242.84 333.535C243.764 334.075 244.48 334.848 244.987 335.854C245.502 336.852 245.76 338.046 245.76 339.436V339.461C245.76 340.851 245.507 342.05 244.999 343.056C244.492 344.062 243.777 344.839 242.852 345.387C241.936 345.927 240.857 346.197 239.613 346.197ZM239.626 343.964C240.321 343.964 240.922 343.788 241.429 343.436C241.944 343.084 242.341 342.573 242.619 341.902C242.897 341.223 243.036 340.41 243.036 339.461V339.436C243.036 338.487 242.897 337.678 242.619 337.007C242.341 336.336 241.944 335.829 241.429 335.486C240.914 335.134 240.304 334.958 239.601 334.958C238.914 334.958 238.313 335.134 237.797 335.486C237.282 335.837 236.881 336.348 236.595 337.019C236.317 337.682 236.178 338.487 236.178 339.436V339.461C236.178 340.41 236.317 341.223 236.595 341.902C236.881 342.573 237.282 343.084 237.797 343.436C238.313 343.788 238.922 343.964 239.626 343.964ZM252.557 346.172C251.257 346.172 250.292 345.886 249.662 345.313C249.04 344.741 248.729 343.808 248.729 342.516V335.093H246.84V332.983H248.729V329.621H251.453V332.983H253.931V335.093H251.453V342.307C251.453 342.97 251.596 343.428 251.882 343.681C252.169 343.927 252.598 344.049 253.171 344.049C253.318 344.049 253.453 344.045 253.576 344.037C253.707 344.021 253.825 344.009 253.931 344V346.062C253.768 346.086 253.563 346.111 253.318 346.135C253.081 346.16 252.827 346.172 252.557 346.172ZM256.324 345.939V332.983H258.986V345.939H256.324ZM257.661 330.946C257.228 330.946 256.856 330.795 256.545 330.492C256.242 330.181 256.091 329.817 256.091 329.4C256.091 328.966 256.242 328.598 256.545 328.296C256.856 327.993 257.228 327.842 257.661 327.842C258.103 327.842 258.471 327.993 258.766 328.296C259.068 328.598 259.219 328.966 259.219 329.4C259.219 329.817 259.068 330.181 258.766 330.492C258.471 330.795 258.103 330.946 257.661 330.946ZM267.44 346.197C266.197 346.197 265.113 345.927 264.189 345.387C263.264 344.839 262.549 344.062 262.041 343.056C261.534 342.041 261.281 340.843 261.281 339.461V339.436C261.281 338.054 261.534 336.864 262.041 335.866C262.557 334.86 263.276 334.087 264.201 333.547C265.125 332.999 266.201 332.725 267.428 332.725C268.671 332.725 269.751 332.995 270.667 333.535C271.591 334.075 272.307 334.848 272.814 335.854C273.329 336.852 273.587 338.046 273.587 339.436V339.461C273.587 340.851 273.333 342.05 272.826 343.056C272.319 344.062 271.603 344.839 270.679 345.387C269.763 345.927 268.683 346.197 267.44 346.197ZM267.452 343.964C268.147 343.964 268.749 343.788 269.256 343.436C269.771 343.084 270.168 342.573 270.446 341.902C270.724 341.223 270.863 340.41 270.863 339.461V339.436C270.863 338.487 270.724 337.678 270.446 337.007C270.168 336.336 269.771 335.829 269.256 335.486C268.74 335.134 268.131 334.958 267.428 334.958C266.741 334.958 266.139 335.134 265.624 335.486C265.109 335.837 264.708 336.348 264.422 337.019C264.144 337.682 264.004 338.487 264.004 339.436V339.461C264.004 340.41 264.144 341.223 264.422 341.902C264.708 342.573 265.109 343.084 265.624 343.436C266.139 343.788 266.749 343.964 267.452 343.964ZM275.783 345.939V332.983H278.445V334.933H278.519C278.862 334.271 279.361 333.739 280.016 333.338C280.678 332.929 281.496 332.725 282.47 332.725C283.893 332.725 284.993 333.154 285.77 334.013C286.555 334.864 286.948 336.042 286.948 337.547V345.939H284.285V338.074C284.285 337.085 284.056 336.328 283.598 335.805C283.14 335.273 282.449 335.007 281.525 335.007C280.903 335.007 280.359 335.146 279.893 335.424C279.435 335.702 279.079 336.095 278.826 336.602C278.572 337.101 278.445 337.69 278.445 338.369V345.939H275.783ZM300.285 345.939L293.978 328.234H296.947L301.757 342.835H301.843L306.652 328.234H309.621L303.315 345.939H300.285ZM311.241 345.939V332.983H313.903V345.939H311.241ZM312.578 330.946C312.145 330.946 311.773 330.795 311.462 330.492C311.159 330.181 311.008 329.817 311.008 329.4C311.008 328.966 311.159 328.598 311.462 328.296C311.773 327.993 312.145 327.842 312.578 327.842C313.02 327.842 313.388 327.993 313.683 328.296C313.985 328.598 314.136 328.966 314.136 329.4C314.136 329.817 313.985 330.181 313.683 330.492C313.388 330.795 313.02 330.946 312.578 330.946ZM321.608 346.184C320.512 346.184 319.559 345.914 318.75 345.375C317.94 344.826 317.31 344.049 316.86 343.043C316.419 342.029 316.198 340.835 316.198 339.461V339.448C316.198 338.066 316.419 336.876 316.86 335.878C317.31 334.872 317.94 334.095 318.75 333.547C319.559 332.999 320.508 332.725 321.596 332.725C322.21 332.725 322.774 332.823 323.289 333.019C323.813 333.216 324.275 333.498 324.676 333.866C325.085 334.226 325.416 334.655 325.67 335.154H325.743V328.124H328.406V345.939H325.743V343.767H325.67C325.416 344.266 325.089 344.696 324.688 345.056C324.295 345.415 323.837 345.694 323.314 345.89C322.799 346.086 322.23 346.184 321.608 346.184ZM322.32 343.902C322.999 343.902 323.596 343.722 324.111 343.362C324.635 342.994 325.04 342.479 325.326 341.816C325.612 341.146 325.755 340.36 325.755 339.461V339.448C325.755 338.549 325.608 337.768 325.314 337.105C325.027 336.443 324.627 335.931 324.111 335.571C323.596 335.203 322.999 335.019 322.32 335.019C321.625 335.019 321.02 335.199 320.504 335.559C319.997 335.911 319.604 336.418 319.326 337.081C319.056 337.743 318.921 338.532 318.921 339.448V339.461C318.921 340.377 319.056 341.17 319.326 341.841C319.604 342.504 319.997 343.015 320.504 343.375C321.02 343.726 321.625 343.902 322.32 343.902ZM336.822 346.197C335.554 346.197 334.463 345.923 333.546 345.375C332.63 344.826 331.927 344.054 331.436 343.056C330.945 342.05 330.7 340.864 330.7 339.498V339.485C330.7 338.136 330.945 336.954 331.436 335.939C331.935 334.925 332.63 334.136 333.522 333.572C334.413 333.007 335.464 332.725 336.675 332.725C337.886 332.725 338.928 332.999 339.804 333.547C340.687 334.087 341.366 334.848 341.84 335.829C342.315 336.802 342.552 337.935 342.552 339.228V340.136H332.025V338.258H341.251L339.951 340.013V338.982C339.951 338.066 339.812 337.305 339.534 336.7C339.256 336.095 338.871 335.645 338.38 335.351C337.898 335.056 337.338 334.909 336.7 334.909C336.062 334.909 335.489 335.064 334.982 335.375C334.483 335.686 334.086 336.144 333.792 336.749C333.506 337.355 333.362 338.099 333.362 338.982V340.013C333.362 340.855 333.506 341.575 333.792 342.172C334.078 342.769 334.483 343.227 335.006 343.546C335.538 343.857 336.16 344.013 336.871 344.013C337.403 344.013 337.869 343.935 338.27 343.78C338.679 343.616 339.014 343.403 339.276 343.142C339.538 342.872 339.722 342.581 339.828 342.27L339.865 342.172H342.405L342.38 342.307C342.274 342.806 342.074 343.289 341.779 343.755C341.485 344.213 341.1 344.63 340.626 345.006C340.16 345.375 339.607 345.665 338.969 345.878C338.331 346.09 337.616 346.197 336.822 346.197ZM350.306 346.197C349.063 346.197 347.979 345.927 347.055 345.387C346.131 344.839 345.415 344.062 344.908 343.056C344.401 342.041 344.147 340.843 344.147 339.461V339.436C344.147 338.054 344.401 336.864 344.908 335.866C345.423 334.86 346.143 334.087 347.067 333.547C347.991 332.999 349.067 332.725 350.294 332.725C351.537 332.725 352.617 332.995 353.533 333.535C354.457 334.075 355.173 334.848 355.68 335.854C356.195 336.852 356.453 338.046 356.453 339.436V339.461C356.453 340.851 356.199 342.05 355.692 343.056C355.185 344.062 354.47 344.839 353.545 345.387C352.629 345.927 351.549 346.197 350.306 346.197ZM350.318 343.964C351.014 343.964 351.615 343.788 352.122 343.436C352.637 343.084 353.034 342.573 353.312 341.902C353.59 341.223 353.729 340.41 353.729 339.461V339.436C353.729 338.487 353.59 337.678 353.312 337.007C353.034 336.336 352.637 335.829 352.122 335.486C351.607 335.134 350.997 334.958 350.294 334.958C349.607 334.958 349.006 335.134 348.49 335.486C347.975 335.837 347.574 336.348 347.288 337.019C347.01 337.682 346.871 338.487 346.871 339.436V339.461C346.871 340.41 347.01 341.223 347.288 341.902C347.574 342.573 347.975 343.084 348.49 343.436C349.006 343.788 349.615 343.964 350.318 343.964ZM363.496 346.197C362.424 346.197 361.5 346.033 360.723 345.706C359.946 345.379 359.332 344.921 358.882 344.332C358.441 343.743 358.175 343.056 358.085 342.27L358.073 342.172H360.71L360.735 342.283C360.866 342.863 361.16 343.317 361.618 343.645C362.076 343.972 362.706 344.135 363.508 344.135C364.048 344.135 364.506 344.066 364.882 343.927C365.266 343.788 365.561 343.591 365.765 343.338C365.978 343.076 366.084 342.773 366.084 342.43V342.418C366.084 341.992 365.945 341.653 365.667 341.399C365.389 341.138 364.898 340.921 364.195 340.749L362.085 340.271C361.267 340.082 360.584 339.825 360.036 339.498C359.496 339.17 359.091 338.77 358.821 338.295C358.551 337.821 358.416 337.269 358.416 336.639V336.627C358.416 335.85 358.625 335.171 359.042 334.59C359.467 334.001 360.056 333.543 360.809 333.216C361.561 332.889 362.432 332.725 363.422 332.725C364.444 332.725 365.324 332.897 366.06 333.24C366.804 333.584 367.381 334.05 367.79 334.639C368.207 335.22 368.44 335.874 368.489 336.602V336.737H365.986L365.974 336.651C365.892 336.103 365.635 335.657 365.201 335.314C364.767 334.962 364.174 334.786 363.422 334.786C362.948 334.786 362.534 334.856 362.183 334.995C361.831 335.134 361.557 335.334 361.361 335.596C361.173 335.85 361.079 336.148 361.079 336.492V336.504C361.079 336.774 361.144 337.015 361.275 337.228C361.406 337.432 361.614 337.616 361.901 337.78C362.187 337.935 362.559 338.066 363.017 338.172L365.115 338.663C366.44 338.966 367.381 339.395 367.937 339.952C368.501 340.508 368.784 341.252 368.784 342.185V342.197C368.784 342.99 368.555 343.69 368.097 344.295C367.647 344.892 367.021 345.358 366.219 345.694C365.426 346.029 364.518 346.197 363.496 346.197Z" fill="#404040"/>
<rect x="43.3955" y="366.899" width="494.171" height="1.39596" fill="#E5E5E5"/>
<path d="M261.992 406.254L268.421 388.55H270.654V391.507H269.869L264.888 406.254H261.992ZM265.109 401.469L265.906 399.261H273.918L274.716 401.469H265.109ZM274.924 406.254L269.955 391.507V388.55H271.403L277.832 406.254H274.924ZM279.599 410.573V393.298H282.261V395.494H282.347C282.601 394.987 282.924 394.553 283.316 394.194C283.717 393.825 284.175 393.543 284.69 393.347C285.206 393.142 285.77 393.04 286.384 393.04C287.488 393.04 288.445 393.314 289.255 393.862C290.064 394.41 290.69 395.187 291.132 396.193C291.582 397.199 291.807 398.394 291.807 399.776V399.788C291.807 401.162 291.582 402.353 291.132 403.359C290.69 404.365 290.064 405.142 289.255 405.69C288.453 406.23 287.508 406.5 286.42 406.5C285.815 406.5 285.247 406.405 284.715 406.217C284.191 406.021 283.729 405.743 283.328 405.383C282.928 405.015 282.596 404.586 282.335 404.095H282.261V410.573H279.599ZM285.684 404.217C286.388 404.217 286.993 404.038 287.5 403.678C288.007 403.318 288.396 402.806 288.666 402.144C288.944 401.481 289.083 400.696 289.083 399.788V399.776C289.083 398.852 288.944 398.058 288.666 397.396C288.396 396.733 288.003 396.226 287.488 395.874C286.981 395.514 286.379 395.335 285.684 395.335C285.005 395.335 284.408 395.519 283.893 395.887C283.378 396.247 282.973 396.758 282.678 397.42C282.392 398.083 282.249 398.868 282.249 399.776V399.788C282.249 400.688 282.392 401.469 282.678 402.132C282.973 402.794 283.378 403.31 283.893 403.678C284.408 404.038 285.005 404.217 285.684 404.217ZM294.003 410.573V393.298H296.665V395.494H296.751C297.005 394.987 297.328 394.553 297.72 394.194C298.121 393.825 298.579 393.543 299.094 393.347C299.61 393.142 300.174 393.04 300.788 393.04C301.892 393.04 302.849 393.314 303.659 393.862C304.468 394.41 305.094 395.187 305.536 396.193C305.986 397.199 306.211 398.394 306.211 399.776V399.788C306.211 401.162 305.986 402.353 305.536 403.359C305.094 404.365 304.468 405.142 303.659 405.69C302.857 406.23 301.912 406.5 300.824 406.5C300.219 406.5 299.651 406.405 299.119 406.217C298.595 406.021 298.133 405.743 297.733 405.383C297.332 405.015 297 404.586 296.739 404.095H296.665V410.573H294.003ZM300.088 404.217C300.792 404.217 301.397 404.038 301.904 403.678C302.411 403.318 302.8 402.806 303.07 402.144C303.348 401.481 303.487 400.696 303.487 399.788V399.776C303.487 398.852 303.348 398.058 303.07 397.396C302.8 396.733 302.407 396.226 301.892 395.874C301.385 395.514 300.784 395.335 300.088 395.335C299.409 395.335 298.812 395.519 298.297 395.887C297.782 396.247 297.377 396.758 297.082 397.42C296.796 398.083 296.653 398.868 296.653 399.776V399.788C296.653 400.688 296.796 401.469 297.082 402.132C297.377 402.794 297.782 403.31 298.297 403.678C298.812 404.038 299.409 404.217 300.088 404.217ZM313.253 406.512C312.182 406.512 311.257 406.348 310.48 406.021C309.703 405.694 309.09 405.236 308.64 404.647C308.198 404.058 307.932 403.371 307.842 402.586L307.83 402.488H310.468L310.493 402.598C310.623 403.179 310.918 403.633 311.376 403.96C311.834 404.287 312.464 404.451 313.265 404.451C313.805 404.451 314.263 404.381 314.64 404.242C315.024 404.103 315.318 403.907 315.523 403.653C315.736 403.391 315.842 403.089 315.842 402.745V402.733C315.842 402.308 315.703 401.968 315.425 401.715C315.147 401.453 314.656 401.236 313.952 401.064L311.842 400.586C311.024 400.398 310.341 400.14 309.793 399.813C309.253 399.486 308.848 399.085 308.579 398.61C308.309 398.136 308.174 397.584 308.174 396.954V396.942C308.174 396.165 308.382 395.486 308.799 394.905C309.225 394.316 309.814 393.858 310.566 393.531C311.319 393.204 312.19 393.04 313.179 393.04C314.202 393.04 315.081 393.212 315.817 393.556C316.562 393.899 317.138 394.365 317.547 394.954C317.964 395.535 318.198 396.189 318.247 396.917V397.052H315.744L315.731 396.966C315.65 396.418 315.392 395.973 314.959 395.629C314.525 395.277 313.932 395.101 313.179 395.101C312.705 395.101 312.292 395.171 311.94 395.31C311.589 395.449 311.315 395.649 311.118 395.911C310.93 396.165 310.836 396.463 310.836 396.807V396.819C310.836 397.089 310.902 397.33 311.032 397.543C311.163 397.747 311.372 397.932 311.658 398.095C311.944 398.251 312.317 398.381 312.775 398.488L314.873 398.979C316.198 399.281 317.138 399.711 317.695 400.267C318.259 400.823 318.541 401.567 318.541 402.5V402.512C318.541 403.305 318.312 404.005 317.854 404.61C317.404 405.207 316.778 405.673 315.977 406.009C315.183 406.344 314.276 406.512 313.253 406.512Z" fill="#404040"/>
<rect x="43.3955" y="427.214" width="494.171" height="1.39596" fill="#E5E5E5"/>
<path d="M204.879 466.569V448.865H211.149C212.907 448.865 214.408 449.213 215.651 449.908C216.903 450.595 217.86 451.597 218.522 452.914C219.193 454.223 219.529 455.805 219.529 457.662V457.687C219.529 459.551 219.193 461.151 218.522 462.484C217.86 463.809 216.903 464.823 215.651 465.527C214.408 466.222 212.907 466.569 211.149 466.569H204.879ZM207.64 464.189H210.879C212.13 464.189 213.189 463.94 214.056 463.441C214.924 462.942 215.582 462.21 216.032 461.245C216.482 460.279 216.707 459.102 216.707 457.711V457.687C216.707 456.304 216.482 455.135 216.032 454.178C215.582 453.212 214.919 452.484 214.044 451.994C213.177 451.495 212.122 451.245 210.879 451.245H207.64V464.189ZM227.516 466.827C226.248 466.827 225.156 466.553 224.24 466.005C223.324 465.457 222.62 464.684 222.13 463.686C221.639 462.68 221.393 461.494 221.393 460.128V460.116C221.393 458.766 221.639 457.584 222.13 456.57C222.629 455.556 223.324 454.766 224.215 454.202C225.107 453.638 226.158 453.356 227.369 453.356C228.579 453.356 229.622 453.63 230.497 454.178C231.381 454.717 232.06 455.478 232.534 456.46C233.008 457.433 233.246 458.566 233.246 459.858V460.766H222.719V458.889H231.945L230.644 460.643V459.613C230.644 458.697 230.505 457.936 230.227 457.331C229.949 456.725 229.565 456.276 229.074 455.981C228.591 455.687 228.031 455.539 227.393 455.539C226.755 455.539 226.183 455.695 225.675 456.006C225.176 456.316 224.78 456.775 224.485 457.38C224.199 457.985 224.056 458.729 224.056 459.613V460.643C224.056 461.486 224.199 462.206 224.485 462.803C224.772 463.4 225.176 463.858 225.7 464.177C226.232 464.488 226.853 464.643 227.565 464.643C228.097 464.643 228.563 464.565 228.964 464.41C229.373 464.246 229.708 464.034 229.97 463.772C230.231 463.502 230.415 463.212 230.522 462.901L230.559 462.803H233.098L233.074 462.938C232.967 463.437 232.767 463.919 232.473 464.386C232.178 464.844 231.794 465.261 231.319 465.637C230.853 466.005 230.301 466.295 229.663 466.508C229.025 466.721 228.309 466.827 227.516 466.827ZM240.276 466.827C239.204 466.827 238.28 466.664 237.503 466.336C236.726 466.009 236.112 465.551 235.663 464.962C235.221 464.373 234.955 463.686 234.865 462.901L234.853 462.803H237.491L237.515 462.913C237.646 463.494 237.941 463.948 238.399 464.275C238.857 464.602 239.486 464.766 240.288 464.766C240.828 464.766 241.286 464.696 241.662 464.557C242.047 464.418 242.341 464.222 242.546 463.968C242.758 463.707 242.865 463.404 242.865 463.06V463.048C242.865 462.623 242.726 462.283 242.447 462.03C242.169 461.768 241.679 461.551 240.975 461.38L238.865 460.901C238.047 460.713 237.364 460.455 236.816 460.128C236.276 459.801 235.871 459.4 235.601 458.926C235.331 458.451 235.196 457.899 235.196 457.269V457.257C235.196 456.48 235.405 455.801 235.822 455.22C236.247 454.632 236.836 454.173 237.589 453.846C238.341 453.519 239.212 453.356 240.202 453.356C241.225 453.356 242.104 453.527 242.84 453.871C243.584 454.214 244.161 454.681 244.57 455.27C244.987 455.85 245.22 456.505 245.269 457.233V457.368H242.766L242.754 457.282C242.672 456.734 242.415 456.288 241.981 455.944C241.548 455.593 240.955 455.417 240.202 455.417C239.728 455.417 239.315 455.486 238.963 455.625C238.611 455.764 238.337 455.965 238.141 456.227C237.953 456.48 237.859 456.779 237.859 457.122V457.134C237.859 457.404 237.924 457.646 238.055 457.858C238.186 458.063 238.395 458.247 238.681 458.41C238.967 458.566 239.339 458.697 239.797 458.803L241.895 459.294C243.22 459.596 244.161 460.026 244.717 460.582C245.282 461.138 245.564 461.883 245.564 462.815V462.827C245.564 463.621 245.335 464.32 244.877 464.925C244.427 465.522 243.801 465.989 243 466.324C242.206 466.659 241.298 466.827 240.276 466.827ZM247.87 466.569V453.613H250.533V466.569H247.87ZM249.208 451.576C248.774 451.576 248.402 451.425 248.091 451.123C247.789 450.812 247.637 450.448 247.637 450.031C247.637 449.597 247.789 449.229 248.091 448.926C248.402 448.624 248.774 448.472 249.208 448.472C249.649 448.472 250.018 448.624 250.312 448.926C250.615 449.229 250.766 449.597 250.766 450.031C250.766 450.448 250.615 450.812 250.312 451.123C250.018 451.425 249.649 451.576 249.208 451.576ZM259.085 471.134C257.972 471.134 257.003 470.978 256.177 470.667C255.359 470.365 254.7 469.943 254.201 469.404C253.711 468.872 253.4 468.271 253.269 467.6L253.257 467.502H255.907L255.944 467.6C256.115 468.009 256.471 468.344 257.011 468.606C257.551 468.868 258.238 468.999 259.072 468.999C260.127 468.999 260.941 468.737 261.514 468.214C262.086 467.698 262.373 466.991 262.373 466.091V464.201H262.299C262.045 464.676 261.718 465.085 261.318 465.428C260.925 465.764 260.467 466.026 259.943 466.214C259.42 466.402 258.847 466.496 258.226 466.496C257.138 466.496 256.189 466.226 255.379 465.686C254.569 465.146 253.94 464.39 253.49 463.416C253.048 462.435 252.827 461.281 252.827 459.956V459.944C252.827 458.603 253.052 457.441 253.502 456.46C253.96 455.47 254.594 454.705 255.404 454.165C256.222 453.625 257.179 453.356 258.275 453.356C258.888 453.356 259.449 453.458 259.956 453.662C260.471 453.867 260.925 454.153 261.318 454.521C261.718 454.881 262.045 455.306 262.299 455.797H262.373V453.613H265.035V466.226C265.035 467.207 264.794 468.066 264.311 468.802C263.829 469.539 263.142 470.111 262.25 470.52C261.358 470.929 260.303 471.134 259.085 471.134ZM258.974 464.324C259.661 464.324 260.258 464.144 260.765 463.784C261.273 463.424 261.669 462.921 261.956 462.275C262.242 461.621 262.385 460.856 262.385 459.981V459.969C262.385 459.093 262.242 458.333 261.956 457.687C261.669 457.04 261.268 456.537 260.753 456.177C260.246 455.818 259.653 455.638 258.974 455.638C258.271 455.638 257.661 455.818 257.146 456.177C256.631 456.529 256.234 457.028 255.956 457.674C255.686 458.32 255.551 459.085 255.551 459.969V459.981C255.551 460.872 255.686 461.645 255.956 462.3C256.234 462.946 256.631 463.445 257.146 463.797C257.661 464.148 258.271 464.324 258.974 464.324ZM267.82 466.569V453.613H270.483V455.564H270.556C270.9 454.901 271.399 454.37 272.053 453.969C272.716 453.56 273.534 453.356 274.507 453.356C275.93 453.356 277.03 453.785 277.807 454.644C278.593 455.494 278.985 456.672 278.985 458.177V466.569H276.323V458.705C276.323 457.715 276.094 456.959 275.636 456.435C275.178 455.903 274.486 455.638 273.562 455.638C272.941 455.638 272.397 455.777 271.93 456.055C271.472 456.333 271.117 456.725 270.863 457.233C270.609 457.732 270.483 458.32 270.483 458.999V466.569H267.82ZM291.856 466.827C290.784 466.827 289.86 466.664 289.083 466.336C288.306 466.009 287.692 465.551 287.242 464.962C286.801 464.373 286.535 463.686 286.445 462.901L286.433 462.803H289.07L289.095 462.913C289.226 463.494 289.52 463.948 289.978 464.275C290.436 464.602 291.066 464.766 291.868 464.766C292.408 464.766 292.866 464.696 293.242 464.557C293.626 464.418 293.921 464.222 294.125 463.968C294.338 463.707 294.444 463.404 294.444 463.06V463.048C294.444 462.623 294.305 462.283 294.027 462.03C293.749 461.768 293.258 461.551 292.555 461.38L290.445 460.901C289.627 460.713 288.944 460.455 288.396 460.128C287.856 459.801 287.451 459.4 287.181 458.926C286.911 458.451 286.776 457.899 286.776 457.269V457.257C286.776 456.48 286.985 455.801 287.402 455.22C287.827 454.632 288.416 454.173 289.169 453.846C289.921 453.519 290.792 453.356 291.782 453.356C292.804 453.356 293.684 453.527 294.42 453.871C295.164 454.214 295.741 454.681 296.15 455.27C296.567 455.85 296.8 456.505 296.849 457.233V457.368H294.346L294.334 457.282C294.252 456.734 293.995 456.288 293.561 455.944C293.128 455.593 292.534 455.417 291.782 455.417C291.308 455.417 290.895 455.486 290.543 455.625C290.191 455.764 289.917 455.965 289.721 456.227C289.533 456.48 289.439 456.779 289.439 457.122V457.134C289.439 457.404 289.504 457.646 289.635 457.858C289.766 458.063 289.974 458.247 290.261 458.41C290.547 458.566 290.919 458.697 291.377 458.803L293.475 459.294C294.8 459.596 295.741 460.026 296.297 460.582C296.861 461.138 297.144 461.883 297.144 462.815V462.827C297.144 463.621 296.915 464.32 296.457 464.925C296.007 465.522 295.381 465.989 294.579 466.324C293.786 466.659 292.878 466.827 291.856 466.827ZM300.775 470.925C300.53 470.925 300.285 470.913 300.039 470.888C299.802 470.864 299.597 470.839 299.426 470.815V468.729C299.532 468.753 299.659 468.774 299.806 468.79C299.961 468.807 300.129 468.815 300.309 468.815C300.931 468.815 301.43 468.7 301.806 468.471C302.182 468.25 302.477 467.829 302.689 467.207L302.898 466.582L298.187 453.613H301.07L304.53 464.803L304.027 464.128H304.726L304.211 464.803L307.683 453.613H310.493L305.658 467.146C305.339 468.062 304.963 468.794 304.53 469.342C304.096 469.899 303.577 470.299 302.972 470.545C302.366 470.798 301.634 470.925 300.775 470.925ZM316.958 466.827C315.887 466.827 314.963 466.664 314.186 466.336C313.409 466.009 312.795 465.551 312.345 464.962C311.904 464.373 311.638 463.686 311.548 462.901L311.535 462.803H314.173L314.198 462.913C314.329 463.494 314.623 463.948 315.081 464.275C315.539 464.602 316.169 464.766 316.971 464.766C317.511 464.766 317.969 464.696 318.345 464.557C318.729 464.418 319.024 464.222 319.228 463.968C319.441 463.707 319.547 463.404 319.547 463.06V463.048C319.547 462.623 319.408 462.283 319.13 462.03C318.852 461.768 318.361 461.551 317.658 461.38L315.547 460.901C314.73 460.713 314.047 460.455 313.499 460.128C312.959 459.801 312.554 459.4 312.284 458.926C312.014 458.451 311.879 457.899 311.879 457.269V457.257C311.879 456.48 312.088 455.801 312.505 455.22C312.93 454.632 313.519 454.173 314.271 453.846C315.024 453.519 315.895 453.356 316.885 453.356C317.907 453.356 318.787 453.527 319.523 453.871C320.267 454.214 320.844 454.681 321.253 455.27C321.67 455.85 321.903 456.505 321.952 457.233V457.368H319.449L319.437 457.282C319.355 456.734 319.097 456.288 318.664 455.944C318.23 455.593 317.637 455.417 316.885 455.417C316.41 455.417 315.997 455.486 315.646 455.625C315.294 455.764 315.02 455.965 314.824 456.227C314.635 456.48 314.541 456.779 314.541 457.122V457.134C314.541 457.404 314.607 457.646 314.738 457.858C314.869 458.063 315.077 458.247 315.363 458.41C315.65 458.566 316.022 458.697 316.48 458.803L318.578 459.294C319.903 459.596 320.844 460.026 321.4 460.582C321.964 461.138 322.246 461.883 322.246 462.815V462.827C322.246 463.621 322.017 464.32 321.559 464.925C321.11 465.522 320.484 465.989 319.682 466.324C318.889 466.659 317.981 466.827 316.958 466.827ZM329.031 466.803C327.731 466.803 326.766 466.516 326.136 465.944C325.514 465.371 325.203 464.439 325.203 463.146V455.723H323.314V453.613H325.203V450.251H327.927V453.613H330.405V455.723H327.927V462.938C327.927 463.6 328.07 464.058 328.357 464.312C328.643 464.557 329.072 464.68 329.645 464.68C329.792 464.68 329.927 464.676 330.05 464.668C330.181 464.651 330.299 464.639 330.405 464.631V466.692C330.242 466.717 330.037 466.741 329.792 466.766C329.555 466.79 329.301 466.803 329.031 466.803ZM337.963 466.827C336.696 466.827 335.604 466.553 334.687 466.005C333.771 465.457 333.068 464.684 332.577 463.686C332.086 462.68 331.841 461.494 331.841 460.128V460.116C331.841 458.766 332.086 457.584 332.577 456.57C333.076 455.556 333.771 454.766 334.663 454.202C335.554 453.638 336.606 453.356 337.816 453.356C339.027 453.356 340.07 453.63 340.945 454.178C341.828 454.717 342.507 455.478 342.981 456.46C343.456 457.433 343.693 458.566 343.693 459.858V460.766H333.166V458.889H342.393L341.092 460.643V459.613C341.092 458.697 340.953 457.936 340.675 457.331C340.397 456.725 340.012 456.276 339.522 455.981C339.039 455.687 338.479 455.539 337.841 455.539C337.203 455.539 336.63 455.695 336.123 456.006C335.624 456.316 335.227 456.775 334.933 457.38C334.647 457.985 334.503 458.729 334.503 459.613V460.643C334.503 461.486 334.647 462.206 334.933 462.803C335.219 463.4 335.624 463.858 336.147 464.177C336.679 464.488 337.301 464.643 338.012 464.643C338.544 464.643 339.01 464.565 339.411 464.41C339.82 464.246 340.155 464.034 340.417 463.772C340.679 463.502 340.863 463.212 340.969 462.901L341.006 462.803H343.546L343.521 462.938C343.415 463.437 343.215 463.919 342.92 464.386C342.626 464.844 342.241 465.261 341.767 465.637C341.301 466.005 340.748 466.295 340.11 466.508C339.472 466.721 338.757 466.827 337.963 466.827ZM345.877 466.569V453.613H348.539V455.613H348.613C348.899 454.926 349.353 454.378 349.975 453.969C350.605 453.56 351.345 453.356 352.196 453.356C352.785 453.356 353.316 453.458 353.791 453.662C354.273 453.859 354.686 454.145 355.03 454.521C355.373 454.897 355.631 455.351 355.803 455.883H355.876C356.097 455.359 356.404 454.91 356.797 454.533C357.197 454.157 357.664 453.867 358.195 453.662C358.727 453.458 359.299 453.356 359.913 453.356C360.764 453.356 361.504 453.535 362.134 453.895C362.772 454.247 363.262 454.746 363.606 455.392C363.958 456.03 364.134 456.783 364.134 457.65V466.569H361.471V458.288C361.471 457.723 361.373 457.245 361.177 456.852C360.989 456.46 360.71 456.161 360.342 455.957C359.974 455.744 359.52 455.638 358.98 455.638C358.457 455.638 357.995 455.76 357.594 456.006C357.193 456.243 356.878 456.574 356.649 456.999C356.428 457.425 356.318 457.911 356.318 458.46V466.569H353.692V458.091C353.692 457.592 353.59 457.159 353.386 456.791C353.189 456.423 352.907 456.141 352.539 455.944C352.179 455.74 351.746 455.638 351.239 455.638C350.715 455.638 350.249 455.768 349.84 456.03C349.439 456.284 349.12 456.631 348.883 457.073C348.654 457.507 348.539 458.006 348.539 458.57V466.569H345.877ZM371.679 466.827C370.608 466.827 369.683 466.664 368.906 466.336C368.129 466.009 367.516 465.551 367.066 464.962C366.624 464.373 366.358 463.686 366.268 462.901L366.256 462.803H368.894L368.919 462.913C369.049 463.494 369.344 463.948 369.802 464.275C370.26 464.602 370.89 464.766 371.691 464.766C372.231 464.766 372.689 464.696 373.066 464.557C373.45 464.418 373.744 464.222 373.949 463.968C374.162 463.707 374.268 463.404 374.268 463.06V463.048C374.268 462.623 374.129 462.283 373.851 462.03C373.573 461.768 373.082 461.551 372.378 461.38L370.268 460.901C369.45 460.713 368.767 460.455 368.219 460.128C367.679 459.801 367.274 459.4 367.005 458.926C366.735 458.451 366.6 457.899 366.6 457.269V457.257C366.6 456.48 366.808 455.801 367.225 455.22C367.651 454.632 368.24 454.173 368.992 453.846C369.745 453.519 370.616 453.356 371.606 453.356C372.628 453.356 373.507 453.527 374.243 453.871C374.988 454.214 375.564 454.681 375.973 455.27C376.391 455.85 376.624 456.505 376.673 457.233V457.368H374.17L374.158 457.282C374.076 456.734 373.818 456.288 373.385 455.944C372.951 455.593 372.358 455.417 371.606 455.417C371.131 455.417 370.718 455.486 370.366 455.625C370.015 455.764 369.741 455.965 369.544 456.227C369.356 456.48 369.262 456.779 369.262 457.122V457.134C369.262 457.404 369.328 457.646 369.458 457.858C369.589 458.063 369.798 458.247 370.084 458.41C370.37 458.566 370.743 458.697 371.201 458.803L373.299 459.294C374.624 459.596 375.564 460.026 376.121 460.582C376.685 461.138 376.967 461.883 376.967 462.815V462.827C376.967 463.621 376.738 464.32 376.28 464.925C375.83 465.522 375.204 465.989 374.403 466.324C373.61 466.659 372.702 466.827 371.679 466.827Z" fill="#404040"/>
<rect x="43.3955" y="487.529" width="494.171" height="1.39596" fill="#E5E5E5"/>
<path d="M281.733 527.191C280.474 527.191 279.374 526.979 278.433 526.553C277.492 526.128 276.748 525.543 276.2 524.799C275.652 524.046 275.337 523.188 275.255 522.222L275.243 522.075H277.881L277.893 522.198C277.959 522.721 278.155 523.188 278.482 523.597C278.809 523.997 279.251 524.312 279.807 524.541C280.363 524.77 281.006 524.885 281.733 524.885C282.461 524.885 283.095 524.762 283.635 524.517C284.175 524.263 284.596 523.92 284.899 523.486C285.202 523.044 285.353 522.537 285.353 521.965V521.94C285.353 520.942 285.013 520.178 284.335 519.646C283.656 519.106 282.727 518.836 281.549 518.836H279.402V516.677H281.464C282.142 516.677 282.735 516.558 283.243 516.321C283.75 516.076 284.146 515.74 284.433 515.315C284.719 514.889 284.862 514.403 284.862 513.855V513.83C284.862 513.258 284.739 512.771 284.494 512.37C284.249 511.969 283.889 511.663 283.414 511.45C282.948 511.237 282.38 511.131 281.709 511.131C281.055 511.131 280.474 511.241 279.967 511.462C279.468 511.675 279.063 511.982 278.752 512.382C278.449 512.783 278.269 513.258 278.212 513.806L278.2 513.928H275.611L275.623 513.793C275.713 512.804 276.02 511.941 276.544 511.205C277.075 510.468 277.779 509.896 278.654 509.487C279.537 509.078 280.556 508.873 281.709 508.873C282.895 508.873 283.926 509.07 284.801 509.462C285.676 509.847 286.351 510.387 286.825 511.082C287.308 511.769 287.549 512.567 287.549 513.474V513.499C287.549 514.235 287.386 514.885 287.058 515.45C286.739 516.006 286.298 516.472 285.733 516.848C285.177 517.217 284.539 517.474 283.819 517.621V517.683C285.12 517.789 286.167 518.219 286.96 518.971C287.754 519.724 288.15 520.721 288.15 521.965V521.989C288.15 522.995 287.876 523.891 287.328 524.676C286.788 525.461 286.036 526.079 285.071 526.529C284.106 526.971 282.993 527.191 281.733 527.191ZM291.144 526.885V509.18H297.414C299.172 509.18 300.673 509.528 301.916 510.223C303.168 510.91 304.125 511.912 304.787 513.229C305.458 514.538 305.793 516.121 305.793 517.977V518.002C305.793 519.867 305.458 521.466 304.787 522.799C304.125 524.124 303.168 525.138 301.916 525.842C300.673 526.537 299.172 526.885 297.414 526.885H291.144ZM293.905 524.504H297.144C298.395 524.504 299.454 524.255 300.321 523.756C301.188 523.257 301.847 522.525 302.297 521.56C302.747 520.595 302.972 519.417 302.972 518.026V518.002C302.972 516.619 302.747 515.45 302.297 514.493C301.847 513.528 301.184 512.8 300.309 512.309C299.442 511.81 298.387 511.56 297.144 511.56H293.905V524.504Z" fill="#404040"/>
</g>
<path d="M538.266 92.8326V487.818C538.266 499.557 538.265 508.319 537.697 515.267C537.13 522.207 536.001 527.277 533.777 531.641C529.829 539.39 523.529 545.689 515.78 549.637C511.416 551.861 506.346 552.991 499.406 553.558C492.458 554.126 483.696 554.127 471.957 554.127H109.006C97.2673 554.127 88.5049 554.126 81.5566 553.558C74.6167 552.991 69.5479 551.861 65.1836 549.637C57.435 545.689 51.1347 539.39 47.1865 531.641C44.9628 527.277 43.8336 522.207 43.2666 515.267C42.6989 508.319 42.6982 499.557 42.6982 487.818L42.6982 92.8326L538.266 92.8326Z" stroke="#239D68" stroke-width="1.39596"/>
</g>
<defs>
<filter id="filter0_iiii_206_74" x="0.121063" y="-41.8782" width="580.722" height="177.288" filterUnits="userSpaceOnUse" color-interpolation-filters="sRGB">
<feFlood flood-opacity="0" result="BackgroundImageFix"/>
<feBlend mode="normal" in="SourceGraphic" in2="BackgroundImageFix" result="shape"/>
<feColorMatrix in="SourceAlpha" type="matrix" values="0 0 0 0 0 0 0 0 0 0 0 0 0 0 0 0 0 0 127 0" result="hardAlpha"/>
<feOffset dy="-13.9596"/>
<feGaussianBlur stdDeviation="10.4697"/>
<feComposite in2="hardAlpha" operator="arithmetic" k2="-1" k3="1"/>
<feColorMatrix type="matrix" values="0 0 0 0 0.937255 0 0 0 0 0.494118 0 0 0 0 0.945098 0 0 0 0.15 0"/>
<feBlend mode="normal" in2="shape" result="effect1_innerShadow_206_74"/>
<feColorMatrix in="SourceAlpha" type="matrix" values="0 0 0 0 0 0 0 0 0 0 0 0 0 0 0 0 0 0 127 0" result="hardAlpha"/>
<feOffset dy="5.58386"/>
<feGaussianBlur stdDeviation="10.4697"/>
<feComposite in2="hardAlpha" operator="arithmetic" k2="-1" k3="1"/>
<feColorMatrix type="matrix" values="0 0 0 0 1 0 0 0 0 1 0 0 0 0 1 0 0 0 1 0"/>
<feBlend mode="normal" in2="effect1_innerShadow_206_74" result="effect2_innerShadow_206_74"/>
<feColorMatrix in="SourceAlpha" type="matrix" values="0 0 0 0 0 0 0 0 0 0 0 0 0 0 0 0 0 0 127 0" result="hardAlpha"/>
<feMorphology radius="2.79193" operator="erode" in="SourceAlpha" result="effect3_innerShadow_206_74"/>
<feOffset dy="2.79193"/>
<feGaussianBlur stdDeviation="0.697982"/>
<feComposite in2="hardAlpha" operator="arithmetic" k2="-1" k3="1"/>
<feColorMatrix type="matrix" values="0 0 0 0 1 0 0 0 0 1 0 0 0 0 1 0 0 0 1 0"/>
<feBlend mode="normal" in2="effect2_innerShadow_206_74" result="effect3_innerShadow_206_74"/>
<feColorMatrix in="SourceAlpha" type="matrix" values="0 0 0 0 0 0 0 0 0 0 0 0 0 0 0 0 0 0 127 0" result="hardAlpha"/>
<feOffset dy="-8.37579"/>
<feGaussianBlur stdDeviation="6.97982"/>
<feComposite in2="hardAlpha" operator="arithmetic" k2="-1" k3="1"/>
<feColorMatrix type="matrix" values="0 0 0 0 0.137255 0 0 0 0 0.615686 0 0 0 0 0.407843 0 0 0 0.3 0"/>
<feBlend mode="normal" in2="effect3_innerShadow_206_74" result="effect4_innerShadow_206_74"/>
</filter>
<filter id="filter1_d_206_74" x="0.121063" y="50.2555" width="580.722" height="588.327" filterUnits="userSpaceOnUse" color-interpolation-filters="sRGB">
<feFlood flood-opacity="0" result="BackgroundImageFix"/>
<feColorMatrix in="SourceAlpha" type="matrix" values="0 0 0 0 0 0 0 0 0 0 0 0 0 0 0 0 0 0 127 0" result="hardAlpha"/>
<feOffset dy="41.8789"/>
<feGaussianBlur stdDeviation="20.9395"/>
<feComposite in2="hardAlpha" operator="out"/>
<feColorMatrix type="matrix" values="0 0 0 0 0.866097 0 0 0 0 0.847687 0 0 0 0 0.847687 0 0 0 0.15 0"/>
<feBlend mode="normal" in2="BackgroundImageFix" result="effect1_dropShadow_206_74"/>
<feBlend mode="normal" in="SourceGraphic" in2="effect1_dropShadow_206_74" result="shape"/>
</filter>
<clipPath id="clip0_206_74">
<rect width="167" height="47" fill="white" transform="translate(206.981 23.2655)"/>
</clipPath>
<clipPath id="clip1_206_74">
<path d="M42 92.1344L538.963 92.1344V487.818C538.963 511.272 538.963 522.999 534.399 531.958C530.384 539.838 523.977 546.245 516.097 550.26C507.139 554.824 495.412 554.824 471.957 554.824H109.006C85.5519 554.824 73.8247 554.824 64.8663 550.26C56.9863 546.245 50.5796 539.838 46.5645 531.958C42 522.999 42 511.272 42 487.818L42 92.1344Z" fill="white"/>
</clipPath>
</defs>
</svg>
