<svg width="139" height="21" viewBox="0 0 139 21" fill="none" xmlns="http://www.w3.org/2000/svg">
<path d="M27.8527 16.3981H23.2835V3.44893H27.8527C31.5524 3.44893 34.3827 6.29774 34.3827 9.9235C34.3827 13.5678 31.4969 16.3981 27.8527 16.3981ZM26.4283 6.35323V13.4938H27.8527C29.6655 13.4938 31.2379 11.9584 31.2379 9.9235C31.2379 7.88863 29.6655 6.35323 27.8527 6.35323H26.4283Z" fill="#666666"/>
<path d="M39.9738 16.6571C37.236 16.6571 35.0162 14.3817 35.0162 11.6809C35.0162 8.98006 37.236 6.70471 39.9738 6.70471C42.6932 6.70471 44.9315 8.98006 44.9315 11.6809C44.9315 14.3817 42.6932 16.6571 39.9738 16.6571ZM39.9738 14.0117C41.1208 14.0117 42.0087 13.0313 42.0087 11.6809C42.0087 10.3305 41.1208 9.35004 39.9738 9.35004C38.8084 9.35004 37.939 10.3305 37.939 11.6809C37.939 13.0313 38.8084 14.0117 39.9738 14.0117Z" fill="#666666"/>
<path d="M48.9579 16.3981H46.0351V3.44893H48.9579V16.3981Z" fill="#666666"/>
<path d="M54.4033 16.6571C52.128 16.6571 50.0746 14.5667 50.0746 11.6809C50.0746 8.79507 52.128 6.70471 54.4033 6.70471C55.7167 6.70471 56.5862 7.38917 56.8082 7.72214H56.9007V3.44893H59.8235V16.3981H57.6591L57.2336 15.4731H57.1411C56.7712 15.9171 55.7907 16.6571 54.4033 16.6571ZM54.9398 14.0117C55.9942 14.0117 56.9007 13.0498 56.9007 11.6809C56.9007 10.312 55.9942 9.35004 54.9398 9.35004C53.8854 9.35004 52.9974 10.312 52.9974 11.6809C52.9974 13.0498 53.8854 14.0117 54.9398 14.0117Z" fill="#666666"/>
<path d="M72.8871 16.3981H69.5758L68.7249 13.8637H64.2666L63.4157 16.3981H60.2154L64.9881 3.44893H68.1144L72.8871 16.3981ZM65.0806 11.1444H67.9109L66.505 6.9082L65.0806 11.1444Z" fill="#666666"/>
<path d="M76.8866 16.6571C74.6112 16.6571 72.5579 14.5667 72.5579 11.6809C72.5579 8.79507 74.6112 6.70471 76.8866 6.70471C78.2 6.70471 79.0694 7.38917 79.2914 7.72214H79.3839V3.44893H82.3067V16.3981H80.1424L79.7169 15.4731H79.6244C79.2544 15.9171 78.274 16.6571 76.8866 16.6571ZM77.423 14.0117C78.4775 14.0117 79.3839 13.0498 79.3839 11.6809C79.3839 10.312 78.4775 9.35004 77.423 9.35004C76.3686 9.35004 75.4807 10.312 75.4807 11.6809C75.4807 13.0498 76.3686 14.0117 77.423 14.0117Z" fill="#666666"/>
<path d="M86.7684 16.3981H83.8456V6.96369H86.0099L86.4354 7.88863H86.5279C86.7499 7.59265 87.4898 6.70471 88.7293 6.70471C89.0992 6.70471 89.3582 6.74171 89.5987 6.8157V9.79401C89.3582 9.72001 89.0622 9.70151 88.6923 9.70151C87.5083 9.70151 86.7684 10.423 86.7684 11.6809V16.3981Z" fill="#666666"/>
<path d="M99.2607 11.5144C99.2607 12.0324 99.2052 12.4023 99.1497 12.5873H92.4162C92.6936 13.6233 93.4706 14.1967 94.4695 14.1967C95.3945 14.1967 95.8754 13.7342 96.0604 13.5308L98.9832 13.6603C98.4653 14.9922 96.9114 16.6571 94.5065 16.6571C91.7502 16.6571 89.5673 14.4187 89.5673 11.6809C89.5673 8.98006 91.7872 6.70471 94.488 6.70471C97.2258 6.70471 99.2607 8.85057 99.2607 11.5144ZM94.451 9.12805C93.4706 9.12805 92.6751 9.73851 92.3976 10.7744H96.4859C96.2639 9.81251 95.4869 9.12805 94.451 9.12805Z" fill="#666666"/>
<path d="M103.755 16.6571C101.294 16.6571 99.833 15.2511 99.7035 13.4383L102.497 13.3088C102.571 13.9562 103.052 14.4002 103.755 14.4002C104.439 14.4002 104.772 14.0672 104.772 13.6973C104.772 12.2173 99.907 12.7723 99.907 9.55352C99.907 7.98113 101.22 6.70471 103.699 6.70471C106.012 6.70471 107.436 8.07362 107.584 9.83101L104.791 9.942C104.698 9.36854 104.384 8.96156 103.718 8.96156C103.126 8.96156 102.83 9.25754 102.83 9.59052C102.83 10.9964 107.695 10.275 107.695 13.6233C107.695 15.3621 106.363 16.6571 103.755 16.6571Z" fill="#666666"/>
<path d="M111.943 16.6571C109.483 16.6571 108.022 15.2511 107.892 13.4383L110.685 13.3088C110.759 13.9562 111.24 14.4002 111.943 14.4002C112.628 14.4002 112.961 14.0672 112.961 13.6973C112.961 12.2173 108.096 12.7723 108.096 9.55352C108.096 7.98113 109.409 6.70471 111.888 6.70471C114.2 6.70471 115.625 8.07362 115.773 9.83101L112.979 9.942C112.887 9.36854 112.572 8.96156 111.906 8.96156C111.314 8.96156 111.018 9.25754 111.018 9.59052C111.018 10.9964 115.884 10.275 115.884 13.6233C115.884 15.3621 114.552 16.6571 111.943 16.6571Z" fill="#666666"/>
<path d="M118.13 16.6571C117.186 16.6571 116.483 15.9356 116.483 15.0107C116.483 14.0857 117.186 13.3643 118.13 13.3643C119.073 13.3643 119.776 14.0857 119.776 15.0107C119.776 15.9356 119.073 16.6571 118.13 16.6571Z" fill="#666666"/>
<path d="M124.346 16.6571C121.886 16.6571 120.424 15.2511 120.295 13.4383L123.088 13.3088C123.162 13.9562 123.643 14.4002 124.346 14.4002C125.031 14.4002 125.364 14.0672 125.364 13.6973C125.364 12.2173 120.498 12.7723 120.498 9.55352C120.498 7.98113 121.812 6.70471 124.291 6.70471C126.603 6.70471 128.027 8.07362 128.175 9.83101L125.382 9.942C125.29 9.36854 124.975 8.96156 124.309 8.96156C123.717 8.96156 123.421 9.25754 123.421 9.59052C123.421 10.9964 128.286 10.275 128.286 13.6233C128.286 15.3621 126.955 16.6571 124.346 16.6571Z" fill="#666666"/>
<path d="M138.506 11.5144C138.506 12.0324 138.45 12.4023 138.395 12.5873H131.661C131.939 13.6233 132.715 14.1967 133.714 14.1967C134.639 14.1967 135.12 13.7342 135.305 13.5308L138.228 13.6603C137.71 14.9922 136.156 16.6571 133.751 16.6571C130.995 16.6571 128.812 14.4187 128.812 11.6809C128.812 8.98006 131.032 6.70471 133.733 6.70471C136.471 6.70471 138.506 8.85057 138.506 11.5144ZM133.696 9.12805C132.715 9.12805 131.92 9.73851 131.643 10.7744H135.731C135.509 9.81251 134.732 9.12805 133.696 9.12805Z" fill="#666666"/>
<path fill-rule="evenodd" clip-rule="evenodd" d="M0 10.0304C0 4.49886 4.49954 0 10.0351 0C15.5669 0 20.0665 4.50073 20.0665 10.0323C20.0665 15.5639 15.5669 20.0665 10.0351 20.0665C4.49954 20.0665 0 15.562 0 10.0304ZM13.3802 4.29231C12.3986 3.714 11.2535 3.38353 10.0351 3.38353C6.36855 3.38353 3.38641 6.36524 3.38829 10.0304C3.38829 11.2471 3.71922 12.3906 4.29459 13.3745L13.3802 4.29231ZM6.68632 15.7723C7.67159 16.3506 8.81481 16.6811 10.0351 16.6811C13.6979 16.6811 16.6801 13.6975 16.6801 10.0304C16.6801 8.81182 16.351 7.66833 15.7756 6.68444L6.68632 15.7723Z" fill="#666666"/>
</svg>
