<svg width="83" height="24" viewBox="0 0 83 24" fill="none" xmlns="http://www.w3.org/2000/svg">
<g clip-path="url(#clip0_200_201)">
<path d="M31.5215 5.29004H36.6041C40.836 5.29004 43.5242 7.98161 43.5242 12.3146C43.5242 16.6477 40.8539 19.3392 36.6238 19.3392H31.5215V5.29004ZM36.7008 17.2211C39.4893 17.2211 41.0904 15.6388 41.0904 12.8881V11.7412C41.0904 8.9905 39.4893 7.40817 36.7008 7.40817H33.8927V17.2211H36.7008Z" fill="#666666"/>
<path d="M45.2637 9.1875H47.3984V11.0082H47.5166C47.9715 9.78065 48.9207 9.1875 50.3051 9.1875H51.0967V11.4436L49.6138 11.4239C48.387 11.4239 47.5972 12.0762 47.5972 13.8969V19.3373H45.2637V9.1875Z" fill="#666666"/>
<path d="M51.5508 16.5689C51.5508 14.8271 52.6773 13.9185 54.735 13.6013L56.6728 13.3039C57.7796 13.1265 58.1754 12.9078 58.1754 12.1176C58.1754 11.2467 57.4841 10.8112 56.3558 10.8112C55.129 10.8112 54.3786 11.3255 54.101 12.4527H51.7478C52.3209 10.2575 53.8826 9.01025 56.3952 9.01025C58.9079 9.01025 60.4892 10.236 60.4892 12.6104V19.3375H58.3742V17.6566H58.256C57.6632 18.8841 56.5761 19.5167 55.1308 19.5167C52.8958 19.5167 51.5526 18.429 51.5526 16.5689H51.5508ZM55.6054 17.7355C57.1277 17.7355 58.1754 16.8054 58.1754 15.2034V14.3719C57.8584 14.7088 57.3838 14.8468 56.8304 14.9256L55.446 15.1227C54.4377 15.2607 53.8646 15.5385 53.8646 16.3502V16.5474C53.8646 17.3591 54.4968 17.7337 55.6054 17.7337V17.7355Z" fill="#666666"/>
<path d="M62.6445 5.29004H64.9781V13.7787L69.4464 9.18762H72.1758L68.2411 13.2644L72.2743 19.3392H69.604L66.5398 14.8879L64.9781 16.49V19.3392H62.6445V5.29004Z" fill="#666666"/>
<path d="M72.2166 14.2536C72.2166 11.0872 74.1544 9.01025 77.2384 9.01025C80.3223 9.01025 82.1222 11.0872 82.1222 13.9956C82.1222 14.2124 82.1222 14.569 82.1025 14.8271H74.509C74.5484 16.7069 75.537 17.6172 77.2187 17.6172C78.5045 17.6172 79.2943 17.1423 79.6507 16.0151H81.9843C81.4309 18.1924 79.6901 19.5167 77.2778 19.5167C74.1741 19.5167 72.2148 17.4201 72.2148 14.2536H72.2166ZM79.751 13.225C79.6525 11.7215 78.8215 10.8703 77.2008 10.8703C75.6785 10.8703 74.7096 11.6033 74.552 13.225H79.7528H79.751Z" fill="#666666"/>
<path d="M12.1563 23.2007C18.3846 23.2007 23.4337 18.1486 23.4337 11.9165C23.4337 5.68442 18.3846 0.632324 12.1563 0.632324C5.92797 0.632324 0.878906 5.68442 0.878906 11.9165C0.878906 18.1486 5.92797 23.2007 12.1563 23.2007Z" fill="#666666"/>
<path d="M12.5422 5.30078H7.09961V11.1373L12.544 11.5262C12.9738 11.5262 13.323 11.8756 13.323 12.3057C13.323 12.7357 12.9738 13.0852 12.544 13.0852L7.09961 13.4741L12.5458 19.307C15.5509 19.307 17.9884 16.8681 17.9884 13.8611V10.752C17.9884 7.74326 15.5509 5.30257 12.5422 5.30257V5.30078Z" fill="#ffffff"/>
</g>
<defs>
<clipPath id="clip0_200_201">
<rect width="83" height="23.8317" fill="white"/>
</clipPath>
</defs>
</svg>
