<svg width="86" height="27" viewBox="0 0 86 27" fill="none" xmlns="http://www.w3.org/2000/svg">
<path d="M21.6407 4.99875L13.9391 0.557834C12.6491 -0.186848 11.0435 -0.186848 9.75353 0.56327L2.10093 5.00418C0.827309 5.74887 0.0326569 7.12408 0.0272141 8.59714L0 17.9519C0 19.4412 0.794652 20.8273 2.0846 21.572L9.78619 26.0129C10.4284 26.3825 11.1523 26.5674 11.8708 26.5674C12.5892 26.5674 13.324 26.3771 13.9663 26.002L21.6189 21.5611C22.8979 20.8219 23.6926 19.4412 23.698 17.9682L23.7253 8.61345C23.7253 7.12408 22.9306 5.74343 21.6407 4.99875ZM3.19494 6.88491L6.01432 5.24879C6.43886 5.00418 7.09744 5.13464 7.97373 5.64015L15.6753 10.0811C16.2958 10.4398 16.6768 11.103 16.6714 11.815L16.6441 21.1969C16.6605 21.871 16.4482 22.0558 15.893 22.3765L14.3364 23.2788V16.3266C14.3364 14.8373 13.5417 13.4512 12.2518 12.7065L4.5502 8.26557C3.97326 7.93399 3.15139 7.74374 2.36218 7.83071C2.53091 7.43935 2.81938 7.10234 3.19494 6.88491ZM2.17713 17.6366L2.1989 10.4996C2.1989 10.1409 2.3132 10.0756 2.34586 10.0539C2.60167 9.90713 3.17316 9.98323 3.45619 10.1463L9.30722 13.5218L2.17169 17.6366H2.17713ZM3.06975 19.6315L11.4517 14.7992C11.8926 15.1743 12.1593 15.7287 12.1593 16.3266V24.3768C11.7238 24.442 11.2666 24.3605 10.8748 24.1322L3.06975 19.6315ZM8.82281 3.6181L10.8475 2.444C11.1578 2.26462 11.5061 2.17222 11.849 2.17222C12.1919 2.17222 12.5403 2.25919 12.8451 2.43856L20.5466 6.87948C21.1671 7.23823 21.5481 7.90138 21.5427 8.61345L21.5155 17.9682C21.5155 18.6748 21.1345 19.3325 20.5194 19.6858L18.8158 20.6751L18.843 11.8205C18.843 10.3311 18.0484 8.94502 16.7584 8.20034L8.82281 3.6181Z" fill="#666666"/>
<path d="M30.047 20.3889V6.11975H34.7013C36.208 6.11975 37.5168 6.4262 38.6277 7.0391C39.7513 7.63923 40.6196 8.47559 41.2325 9.54817C41.8454 10.608 42.1519 11.8402 42.1519 13.2447C42.1519 14.6365 41.8454 15.8751 41.2325 16.9605C40.6196 18.033 39.7513 18.8758 38.6277 19.4887C37.5168 20.0888 36.208 20.3889 34.7013 20.3889H30.047ZM32.6519 18.0905H34.7587C35.7292 18.0905 36.5655 17.8926 37.2678 17.4968C37.9828 17.0882 38.5383 16.5263 38.9341 15.8113C39.33 15.0834 39.5279 14.2279 39.5279 13.2447C39.5279 12.2488 39.33 11.3933 38.9341 10.6782C38.5383 9.96316 37.9828 9.40771 37.2678 9.01188C36.5655 8.61605 35.7292 8.41813 34.7587 8.41813H32.6519V18.0905Z" fill="#666666"/>
<path d="M43.0565 20.3889V9.96954H45.4124V12.2871L45.2209 11.9423C45.4635 11.1634 45.8402 10.6208 46.3509 10.3143C46.8744 10.0078 47.5001 9.85462 48.2279 9.85462H48.8408V12.0764H47.9406C47.2256 12.0764 46.651 12.2998 46.2168 12.7468C45.7827 13.1809 45.5656 13.7938 45.5656 14.5855V20.3889H43.0565Z" fill="#666666"/>
<path d="M54.2042 20.6187C53.1316 20.6187 52.1931 20.3761 51.3886 19.8909C50.5842 19.4057 49.9585 18.7481 49.5116 17.9181C49.0647 17.0882 48.8413 16.1688 48.8413 15.1601C48.8413 14.113 49.0647 13.1873 49.5116 12.3828C49.9713 11.5656 50.5906 10.9208 51.3695 10.4484C52.1612 9.97593 53.0422 9.7397 54.0126 9.7397C54.8298 9.7397 55.5449 9.87378 56.1578 10.1419C56.7835 10.4101 57.3134 10.7804 57.7475 11.2528C58.1816 11.7253 58.5136 12.2679 58.7435 12.8808C58.9733 13.481 59.0882 14.1322 59.0882 14.8345C59.0882 15.0132 59.0755 15.1984 59.0499 15.3899C59.0372 15.5814 59.0052 15.7474 58.9542 15.8879H50.9098V13.9726H57.5368L56.3493 14.8728C56.4642 14.2854 56.4323 13.7619 56.2536 13.3022C56.0876 12.8425 55.8066 12.4786 55.4108 12.2105C55.0277 11.9423 54.5617 11.8082 54.0126 11.8082C53.4891 11.8082 53.023 11.9423 52.6144 12.2105C52.2058 12.4658 51.893 12.8489 51.6759 13.3597C51.4716 13.8576 51.395 14.4642 51.4461 15.1792C51.395 15.8177 51.478 16.3859 51.6951 16.8838C51.9249 17.3691 52.2569 17.7457 52.6911 18.0139C53.138 18.282 53.6487 18.4161 54.2233 18.4161C54.7979 18.4161 55.2831 18.2948 55.679 18.0522C56.0876 17.8096 56.4068 17.484 56.6366 17.0754L58.6669 18.0713C58.4626 18.5693 58.1433 19.0099 57.7092 19.3929C57.2751 19.776 56.7579 20.0761 56.1578 20.2931C55.5704 20.5102 54.9192 20.6187 54.2042 20.6187Z" fill="#666666"/>
<path d="M63.1554 20.6187C62.4276 20.6187 61.7956 20.4974 61.2593 20.2548C60.723 20.0122 60.308 19.6674 60.0143 19.2205C59.7206 18.7609 59.5738 18.231 59.5738 17.6308C59.5738 17.0562 59.7015 16.5455 59.9569 16.0986C60.2122 15.6389 60.6081 15.2558 61.1444 14.9494C61.6806 14.6429 62.3574 14.4259 63.1746 14.2982L66.5839 13.7427V15.658L63.6534 16.156C63.1554 16.2454 62.7851 16.405 62.5425 16.6349C62.2999 16.8647 62.1786 17.1648 62.1786 17.5351C62.1786 17.8926 62.3127 18.1799 62.5808 18.397C62.8618 18.6013 63.2065 18.7034 63.6151 18.7034C64.1386 18.7034 64.5983 18.5949 64.9941 18.3778C65.4027 18.148 65.7156 17.8351 65.9327 17.4393C66.1625 17.0435 66.2774 16.6093 66.2774 16.1369V13.4554C66.2774 13.0085 66.0987 12.6382 65.7411 12.3445C65.3964 12.0381 64.9367 11.8849 64.3621 11.8849C63.8258 11.8849 63.347 12.0317 62.9256 12.3254C62.517 12.6063 62.2169 12.983 62.0254 13.4554L59.976 12.4595C60.1803 11.9104 60.4995 11.438 60.9337 11.0421C61.3806 10.6335 61.9041 10.3143 62.5042 10.0845C63.1044 9.85462 63.7556 9.7397 64.4579 9.7397C65.3134 9.7397 66.0667 9.89931 66.7179 10.2185C67.3691 10.525 67.8735 10.9591 68.231 11.521C68.6013 12.07 68.7865 12.7148 68.7865 13.4554V20.3889H66.4115V18.6076L66.9478 18.5693C66.6796 19.0162 66.3604 19.3929 65.9901 19.6994C65.6198 19.9931 65.1985 20.2229 64.726 20.3889C64.2536 20.5421 63.73 20.6187 63.1554 20.6187Z" fill="#666666"/>
<path d="M70.1479 20.3889V9.96954H72.5037V12.3828L72.2356 11.9806C72.4271 11.2273 72.8101 10.6654 73.3847 10.2951C73.9593 9.92485 74.6361 9.7397 75.415 9.7397C76.2705 9.7397 77.0239 9.96316 77.6751 10.4101C78.3263 10.857 78.7476 11.4443 78.9392 12.1722L78.2305 12.2296C78.5497 11.3996 79.0286 10.7804 79.667 10.3718C80.3054 9.95039 81.0396 9.7397 81.8696 9.7397C82.6102 9.7397 83.2678 9.9057 83.8424 10.2377C84.4298 10.5697 84.8894 11.0357 85.2214 11.6359C85.5534 12.2232 85.7194 12.9064 85.7194 13.6853V20.3889H83.2103V14.279C83.2103 13.8193 83.1273 13.4235 82.9613 13.0915C82.7954 12.7595 82.5655 12.5041 82.2718 12.3254C81.9782 12.1339 81.6206 12.0381 81.1993 12.0381C80.8034 12.0381 80.4523 12.1339 80.1458 12.3254C79.8394 12.5041 79.6031 12.7595 79.4372 13.0915C79.2712 13.4235 79.1882 13.8193 79.1882 14.279V20.3889H76.6791V14.279C76.6791 13.8193 76.5961 13.4235 76.4301 13.0915C76.2641 12.7595 76.0279 12.5041 75.7214 12.3254C75.4278 12.1339 75.0766 12.0381 74.668 12.0381C74.2722 12.0381 73.921 12.1339 73.6146 12.3254C73.3081 12.5041 73.0719 12.7595 72.9059 13.0915C72.7399 13.4235 72.6569 13.8193 72.6569 14.279V20.3889H70.1479Z" fill="#666666"/>
</svg>
