<svg width="66" height="24" viewBox="0 0 66 24" fill="none" xmlns="http://www.w3.org/2000/svg">
<g clip-path="url(#clip0_200_184)">
<path d="M28.792 4.1343C28.792 3.96865 28.9257 3.83496 29.0913 3.83496H39.8637C40.0293 3.83496 40.163 3.96865 40.163 4.1343V6.26456C40.163 6.43021 40.0293 6.5639 39.8637 6.5639H32.3473C32.1816 6.5639 32.0479 6.69758 32.0479 6.86324V9.97482C32.0479 10.1405 32.1816 10.2742 32.3473 10.2742H38.8581C39.0228 10.2742 39.1575 10.4078 39.1575 10.5735V12.7522C39.1575 12.9178 39.0238 13.0515 38.8581 13.0515H32.2988C32.1332 13.0515 31.9995 13.1852 31.9995 13.3509V19.5033C31.9995 19.669 31.8658 19.8027 31.7001 19.8027H29.0904C28.9257 19.8027 28.791 19.669 28.791 19.5033V4.1343H28.792Z" fill="#666666"/>
<path d="M44.8479 8.29932H42.2739C42.1083 8.29932 41.9746 8.433 41.9746 8.59866V19.4911C41.9746 19.6568 42.1083 19.7905 42.2739 19.7905H44.8479C45.0135 19.7905 45.1472 19.6568 45.1472 19.4911V8.59866C45.1472 8.433 45.0135 8.29932 44.8479 8.29932Z" fill="#666666"/>
<path d="M44.8632 3.84668H42.2544C42.0888 3.84668 41.9551 3.98037 41.9551 4.14602V6.7558C41.9551 6.92145 42.0888 7.05514 42.2544 7.05514H44.8632C45.0289 7.05514 45.1626 6.92145 45.1626 6.7558V4.14602C45.1626 3.98037 45.0289 3.84668 44.8632 3.84668Z" fill="#666666"/>
<path d="M53.1347 17.0728C55.8162 17.0728 57.1569 15.3252 57.1569 11.8057C57.1569 8.28631 55.8404 6.49124 53.1347 6.49124H50.5133C50.3476 6.49124 50.2139 6.62493 50.2139 6.79058V16.7734C50.2139 16.9391 50.3476 17.0728 50.5133 17.0728H53.1347ZM46.959 4.1343C46.959 3.96865 47.0927 3.83496 47.2583 3.83496H53.59C55.7203 3.83496 57.3003 4.33774 58.33 5.34329C59.7667 6.68402 60.532 9.05355 60.532 11.8309C60.532 14.6083 59.7657 16.9304 58.33 18.2701C57.3003 19.2999 55.7212 19.8027 53.59 19.8027H47.2583C47.0936 19.8027 46.959 19.669 46.959 19.5033V4.1343Z" fill="#666666"/>
<path d="M65.219 8.29932H62.645C62.4794 8.29932 62.3457 8.433 62.3457 8.59866V19.4911C62.3457 19.6568 62.4794 19.7905 62.645 19.7905H65.219C65.3846 19.7905 65.5183 19.6568 65.5183 19.4911V8.59866C65.5183 8.433 65.3846 8.29932 65.219 8.29932Z" fill="#666666"/>
<path d="M65.2372 3.84668H62.6275C62.4618 3.84668 62.3281 3.98037 62.3281 4.14602V6.7558C62.3281 6.92145 62.4618 7.05514 62.6275 7.05514H65.2372C65.4029 7.05514 65.5366 6.92145 65.5366 6.7558V4.14602C65.5366 3.98037 65.4029 3.84668 65.2372 3.84668Z" fill="#666666"/>
<path fill-rule="evenodd" clip-rule="evenodd" d="M13.6393 23.1548L22.3101 18.2067C22.8816 17.8802 23.2478 17.4036 23.2478 16.8544C23.2478 16.3051 22.8816 15.8295 22.3101 15.5021L13.6393 10.554C13.0648 10.2266 12.3354 10.0725 11.6244 10.0725C10.9134 10.0725 10.1839 10.2266 9.60949 10.554L0.938669 15.504C0.366168 15.8305 0 16.3071 0 16.8563C0 17.4056 0.366168 17.8812 0.938669 18.2086L9.61046 23.1558C9.93885 23.3427 10.3186 23.4735 10.7157 23.551C11.0131 23.6091 11.3212 23.6372 11.6244 23.6372C11.9596 23.6372 12.2996 23.6033 12.625 23.5326C12.9893 23.4532 13.3361 23.3292 13.6393 23.1567V23.1548ZM11.048 20.6294L4.43276 16.8554L11.048 13.0803C11.048 13.0803 11.0606 13.0726 11.0916 13.061C11.1226 13.0493 11.1652 13.0358 11.2204 13.0232C11.3338 12.997 11.4733 12.9796 11.6244 12.9796C11.7755 12.9796 11.915 12.9961 12.0283 13.0232C12.0835 13.0358 12.1262 13.0493 12.1572 13.061C12.1882 13.0726 12.2008 13.0803 12.2008 13.0803L18.816 16.8554L12.1988 20.6313C12.1988 20.6313 12.1843 20.6391 12.1533 20.6507C12.1194 20.6633 12.0719 20.6778 12.009 20.6914C11.8976 20.7156 11.7648 20.7302 11.6244 20.7302C11.4985 20.7302 11.3774 20.7185 11.2718 20.6972H11.2708C11.2011 20.6837 11.1468 20.6682 11.1071 20.6536C11.0683 20.6401 11.049 20.6294 11.049 20.6294H11.048Z" fill="#666666"/>
<path fill-rule="evenodd" clip-rule="evenodd" d="M13.6393 18.1176L22.3101 13.1695C22.8816 12.843 23.2478 12.3664 23.2478 11.8172C23.2478 11.2679 22.8816 10.7923 22.3101 10.4649L13.6393 5.51676C13.0648 5.18934 12.3354 5.03531 11.6244 5.03531C10.9134 5.03531 10.1839 5.18934 9.60949 5.51676L0.938669 10.4668C0.366168 10.7933 0 11.2699 0 11.8191C0 12.3684 0.366168 12.844 0.938669 13.1714L9.61046 18.1186C9.93885 18.3055 10.3186 18.4363 10.7157 18.5138C11.0131 18.5719 11.3212 18.6 11.6244 18.6C11.9596 18.6 12.2996 18.5661 12.625 18.4954C12.9893 18.4159 13.3361 18.292 13.6393 18.1195V18.1176ZM11.048 15.5922L4.43276 11.8181L11.048 8.04312C11.048 8.04312 11.0606 8.03537 11.0916 8.02375C11.1226 8.01212 11.1652 7.99856 11.2204 7.98597C11.3338 7.95982 11.4733 7.94335 11.6244 7.94335C11.7755 7.94335 11.915 7.95982 12.0283 7.98597C12.0835 7.99856 12.1262 8.01212 12.1572 8.02375C12.1882 8.03537 12.2008 8.04312 12.2008 8.04312L18.816 11.8181L12.1988 15.5941C12.1988 15.5941 12.1843 15.6019 12.1533 15.6135C12.1194 15.6261 12.0719 15.6406 12.009 15.6542C11.8976 15.6784 11.7648 15.6929 11.6244 15.6929C11.4985 15.6929 11.3774 15.6813 11.2718 15.66H11.2708C11.2011 15.6464 11.1468 15.6309 11.1071 15.6164C11.0683 15.6028 11.049 15.5922 11.049 15.5922H11.048Z" fill="#666666"/>
<path d="M7.69733 11.9896L9.60954 13.0803C9.93793 13.2673 10.3177 13.3981 10.7148 13.4756C11.0122 13.5337 11.3203 13.5618 11.6235 13.5618C11.9586 13.5618 12.2987 13.5279 12.6241 13.4572C12.9884 13.3777 13.3352 13.2537 13.6384 13.0813L22.3101 8.13319C22.8817 7.80674 23.2479 7.33014 23.2479 6.78089C23.2479 6.23164 22.8817 5.75601 22.3101 5.42859L13.6393 0.481443C13.0649 0.154023 12.3355 0 11.6244 0C10.9134 0 10.184 0.154023 9.60954 0.481443L0.938726 5.42956C0.366225 5.75601 5.68063e-05 6.23261 5.68063e-05 6.78186C5.68063e-05 7.33111 0.366225 7.80674 0.938726 8.13416L7.6983 11.9896H7.69733Z" fill="#666666"/>
</g>
<defs>
<clipPath id="clip0_200_184">
<rect width="65.5361" height="23.6372" fill="white"/>
</clipPath>
</defs>
</svg>
