<svg width="84" height="17" viewBox="0 0 84 17" fill="none" xmlns="http://www.w3.org/2000/svg">
<g clip-path="url(#clip0_200_202)">
<path d="M57.9746 3.80783V0.289576C62.5588 0.220495 62.7443 0.159724 64.2599 0.198784C66.5895 0.25758 67.9944 0.923044 69.0046 1.94596C69.9784 2.9319 70.7507 4.43548 70.7148 6.61782C70.6937 7.87436 69.9176 12.4969 64.2978 12.7854C63.6387 12.8441 62.1257 12.7923 61.1647 12.8148L62.1148 9.20508C64.3413 9.39062 66.1078 8.68807 66.2018 6.58063C66.3047 4.21473 64.2076 3.46356 62.1154 3.83401L57.9746 3.80783Z" fill="#666666"/>
<path d="M62.1128 16.2173L57.9746 16.2166V3.05811L62.1128 3.08491V16.2173Z" fill="#666666"/>
<path d="M76.9873 5.89936L80.3839 7.10916C82.645 8.00171 83.1254 9.81288 83.1037 11.3728C83.0539 14.9907 80.167 16.3471 77.8657 16.5429C75.2491 16.765 73.2235 16.3268 72.5426 16.2161V12.2788C74.6137 12.9078 77.0238 12.8828 77.8376 12.5655C78.4532 12.3256 78.9208 11.959 78.8837 11.4778C78.8632 11.2167 78.837 10.8847 78.0589 10.5521L74.9266 9.41584C72.9152 8.69158 72.1391 6.78183 72.2229 5.08067C72.3931 1.64365 75.139 -0.0959446 77.8806 0.00461248C78.7264 0.0352575 79.8658 0.0154161 81.523 0.244578V4.14532C79.6663 3.71349 78.7956 3.72055 77.8377 3.8396C76.7661 3.97194 76.285 4.52605 76.3074 5.11796C76.3182 5.41797 76.6177 5.74686 76.9875 5.89406" fill="#666666"/>
<path d="M18.8977 6.22481H23.3539L23.3527 0.304199H27.4915V16.2196H23.3539V9.83011H18.8977L18.8971 16.2196H14.7539V0.304199H18.8971L18.8977 6.22481Z" fill="#666666"/>
<path d="M35.532 0.304199H31.3906V16.2196H35.532V0.304199Z" fill="#666666"/>
<path d="M54.0366 0.304199H49.8945V16.2196H54.0366V0.304199Z" fill="#666666"/>
<path d="M43.5704 12.6061H47.8405V16.2184L39.4277 16.2196V0.304199H43.5704V12.6061Z" fill="#666666"/>
<path d="M0 3.80783V0.289576C4.5847 0.220495 4.76971 0.159724 6.28596 0.198784C8.61477 0.25758 10.0198 0.923044 11.0306 1.94596C12.0037 2.9319 12.7767 4.43548 12.7408 6.61782C12.719 7.87436 11.9429 12.4969 6.32305 12.7854C5.66475 12.8441 4.19888 12.7923 3.23798 12.8148L4.14258 9.20508C6.36969 9.39062 8.13494 8.68807 8.22698 6.58063C8.32993 4.21473 6.23215 3.46356 4.14071 3.83401L0 3.80783Z" fill="#666666"/>
<path d="M4.14455 16.2171L0 16.2165V3.33105L4.14071 3.35734L4.14455 16.2171Z" fill="#666666"/>
</g>
<defs>
<clipPath id="clip0_200_202">
<rect width="83.105" height="16.6046" fill="white"/>
</clipPath>
</defs>
</svg>
