<svg width="126" height="20" viewBox="0 0 126 20" fill="none" xmlns="http://www.w3.org/2000/svg">
<g clip-path="url(#clip0_200_224)">
<path d="M9.29857 1.06611C8.90006 0.73402 8.43513 0.401928 7.90379 0.269091C7.2091 0.0926623 6.49514 0.00341797 5.7784 0.00341797L0 0.00341797V15.2796H2.98883V9.96617H5.64556C6.44258 9.96617 7.17318 9.96617 7.83737 9.7005C8.36871 9.7005 8.83364 9.36841 9.29857 9.03632C9.69708 8.57139 9.96276 7.97362 10.162 7.37586C10.5021 5.82235 10.5021 4.21366 10.162 2.66015C9.96276 1.99597 9.69708 1.53104 9.29857 1.06611ZM7.30602 6.24674C7.30602 6.57884 7.04035 6.84451 6.90751 7.11018C6.77467 7.30944 6.509 7.37586 6.30974 7.44228L5.31347 7.57511H2.98883V2.66015H5.31347L6.24333 2.72657C6.509 2.79299 6.70825 2.92583 6.90751 3.12508L7.2396 3.78927L7.37244 4.9848C7.37244 5.44972 7.37244 5.91465 7.2396 6.31316L7.30602 6.24674ZM19.7263 5.58256C19.2613 5.11763 18.7964 4.6527 18.1986 4.6527C17.4971 4.39228 16.7552 4.25738 16.0068 4.25419C15.2098 4.25419 14.4128 4.38703 13.7486 4.51987C13.0844 4.71912 12.6195 4.9848 12.2874 5.44972C11.8349 5.92714 11.5344 6.52817 11.424 7.1766C11.2247 8.10646 11.1583 9.03632 11.1583 9.89976L11.3575 12.5565C11.5294 13.171 11.7984 13.754 12.1546 14.2834C12.5531 14.7483 13.0844 14.9476 13.6822 15.2132C15.1648 15.5844 16.716 15.5844 18.1986 15.2132C18.7964 15.014 19.2613 14.7483 19.7263 14.2834C20.0583 13.752 20.3904 13.2207 20.3904 12.5565C20.7447 10.803 20.7447 8.99647 20.3904 7.24302C20.3904 6.57884 20.0583 6.11391 19.7263 5.58256ZM17.6673 11.6266C17.6673 12.0251 17.5344 12.3572 17.4016 12.7557L16.8038 13.2207H15.077C14.8113 13.0878 14.612 12.8886 14.4792 12.6229C14.3464 12.3572 14.2135 11.9587 14.2135 11.6266L14.1471 9.89976L14.2135 8.30571C14.2135 7.9072 14.3464 7.57511 14.4792 7.30944C14.612 7.11018 14.8113 6.91093 15.077 6.84451C15.6083 6.71167 16.2725 6.71167 16.8038 6.84451C17.0031 6.91093 17.2024 7.11018 17.4016 7.30944C17.5344 7.57511 17.6673 7.97362 17.6673 8.30571L17.7337 9.89976L17.6673 11.6266ZM22.7815 5.38331C22.1837 5.91465 21.9181 6.91093 21.9181 8.17288V15.2796H24.8405V8.10646C24.7076 7.70795 24.9069 7.37586 25.1061 7.11018C25.3718 6.91093 25.7703 6.84451 26.1024 6.84451H27.63V4.45345H25.7703C24.3755 4.45345 23.4457 4.71912 22.7815 5.38331ZM34.0726 9.03632L32.6114 8.83706L31.4159 8.37213C31.2166 8.17288 31.1502 7.9072 31.1502 7.57511C31.0174 7.30944 31.2166 6.97735 31.4159 6.84451C31.8144 6.64526 32.1465 6.57884 32.545 6.57884C32.9394 6.55346 33.3324 6.64594 33.6741 6.84451C33.9398 7.1766 34.0062 7.50869 34.0062 7.97362H36.5301C36.5301 6.71167 36.2644 5.7154 35.6667 5.18405C34.7401 4.57414 33.6543 4.25072 32.545 4.25419C31.1502 4.25419 30.0875 4.51987 29.3569 5.11763C28.9985 5.43252 28.712 5.82095 28.5172 6.25648C28.3224 6.69202 28.2237 7.16442 28.2278 7.64153C28.2278 8.70422 28.5599 9.43483 29.0912 10.0326C29.6226 10.5639 30.4196 10.896 31.0838 11.0289L32.545 11.2945C32.8771 11.2945 33.2756 11.4274 33.6741 11.6266C33.8069 11.8259 34.0062 12.0916 33.9398 12.3572C33.9398 12.7557 33.8069 13.0214 33.6741 13.2207C33.4749 13.3535 33.0763 13.4863 32.4122 13.4863C32.0801 13.5528 31.6151 13.3535 31.2166 13.2207C31.0174 13.0214 30.8845 12.6229 30.8845 12.0251H28.2278C28.2278 12.4901 28.3606 12.8886 28.4271 13.3535C28.5599 13.752 28.6927 14.2169 29.0248 14.4826C29.3569 14.8147 29.8218 15.014 30.3532 15.1468C31.6564 15.5126 33.0351 15.5126 34.3383 15.1468C35.0025 15.1468 35.401 14.9476 35.7995 14.549L36.5301 13.5528C36.5965 13.0878 36.7294 12.7557 36.7294 12.2244C36.7958 11.4274 36.5301 10.7632 36.0652 10.099C35.5338 9.56766 34.7368 9.16915 34.0726 9.03632ZM40.7145 7.30944L41.1794 6.84451L42.1092 6.77809L42.9063 6.84451L43.3712 7.11018C43.3712 7.37586 43.504 7.57511 43.6369 7.84079L43.7033 8.83706H46.4929C46.4929 8.17288 46.4264 7.50869 46.2272 6.84451C46.0943 6.31316 45.8287 5.84824 45.4966 5.38331C45.1428 4.99157 44.6803 4.7141 44.1682 4.58629C43.504 4.38703 42.8398 4.32061 42.1757 4.32061C41.4371 4.32181 40.7013 4.411 39.9839 4.58629C39.4525 4.78554 38.9876 5.05121 38.6555 5.51614C38.2152 6.01997 37.9374 6.64503 37.8585 7.30944C37.6592 8.17288 37.5264 9.03632 37.5264 9.96617C37.5264 10.8296 37.6592 11.6266 37.7256 12.4901C37.9249 13.1543 38.1906 13.752 38.5891 14.2169C38.9212 14.6155 39.3861 15.014 39.9174 15.2132C40.7145 15.3461 41.4451 15.4789 42.1757 15.4789C43.7033 15.5453 44.6996 15.2132 45.3637 14.4826C46.0279 13.8184 46.36 12.6229 46.4929 11.0953H43.8361L43.7033 12.158L43.4376 12.8886L42.9727 13.2871L42.1757 13.3535L41.2458 13.2871L40.7809 12.8222C40.648 12.4901 40.5152 12.158 40.5152 11.7595L40.4488 10.099L40.5152 8.37213C40.5152 7.97362 40.648 7.64153 40.7809 7.37586L40.7145 7.30944ZM53.1347 4.25419C51.9392 4.25419 51.1421 4.71912 50.6772 5.44972V0.00341797H47.7548V15.2796H50.6772V8.70423C50.6772 8.04004 50.7436 7.44228 51.0093 7.1766C51.275 6.91093 51.7399 6.71167 52.2048 6.84451L53.0019 6.91093C53.1347 6.91093 53.2675 7.11018 53.334 7.1766C53.5332 7.44228 53.5996 7.64153 53.5996 7.9072C53.7325 8.17288 53.7325 8.57139 53.7325 8.90348V15.2796H56.5884V8.30571C56.5884 6.97735 56.3228 5.98107 55.8578 5.38331C55.3265 4.6527 54.3966 4.25419 53.2011 4.25419H53.1347ZM67.0826 9.89976C67.0891 9.05115 67 8.2045 66.8169 7.37586C66.7505 6.71167 66.4848 6.18033 66.0863 5.64898C65.7259 5.1906 65.242 4.8449 64.6915 4.6527C63.969 4.38449 63.2039 4.24947 62.4333 4.25419C61.7691 4.25419 61.1049 4.38703 60.3079 4.6527C59.7765 4.85196 59.3116 5.18405 58.9795 5.64898C58.4482 6.11391 58.1825 6.71167 58.1161 7.37586C57.7353 9.08174 57.7353 10.8506 58.1161 12.5565C58.2077 13.1975 58.4847 13.7978 58.9131 14.2834C59.3116 14.7483 59.7765 14.9476 60.4407 15.2132C61.1049 15.3461 61.7691 15.4789 62.6325 15.4789C64.0273 15.4789 65.09 15.2132 65.6878 14.549C66.352 13.8849 66.7505 12.8886 66.8169 12.0251H64.2266C64.2266 12.3572 64.0273 12.8222 63.7616 13.0878C63.3631 13.2871 63.031 13.3535 62.6325 13.3535L61.8355 13.2871C61.5034 13.2207 61.3706 13.0878 61.2377 12.8222C61.0385 12.6229 60.9721 12.2908 60.9056 12.0251C60.7728 11.5602 60.7728 11.0953 60.7728 10.6968H67.0826V9.89976ZM60.7728 8.83706C60.7728 8.43855 60.9056 8.10646 60.9721 7.70795C61.0385 7.44228 61.1713 7.1766 61.3706 7.04377C61.437 6.91093 61.6362 6.84451 61.8355 6.71167L62.4997 6.64526L63.2967 6.71167C63.496 6.84451 63.6952 6.91093 63.7616 7.11018C63.9609 7.30944 64.0273 7.44228 64.0273 7.77437C64.1601 8.10646 64.1601 8.43855 64.1601 8.83706H60.8392H60.7728Z" fill="#666666"/>
<path d="M82.5566 1.53113C82.075 0.950092 81.4254 0.53245 80.6968 0.335596C79.7428 0.089976 78.7593 -0.0217915 77.7744 0.00350375H72.2617V15.2797H77.708C78.7043 15.2797 79.767 15.2133 80.6968 14.8148C81.4275 14.682 82.0916 14.1506 82.6894 13.5529C83.1543 12.8887 83.4864 12.0916 83.6193 11.1618C84.01 8.74212 84.01 6.27544 83.6193 3.85577C83.42 2.99233 83.0215 2.26173 82.5566 1.53113ZM80.564 10.4976C80.564 11.029 80.4312 11.5603 80.1655 12.0916C79.9662 12.4902 79.7006 12.623 79.3021 12.8222C78.7043 12.9551 78.2394 12.9551 77.7744 12.9551H75.3834V2.66024H77.7744L79.3021 2.79308C79.7006 2.99233 79.9662 3.19159 80.1655 3.52368C80.4312 3.98861 80.4976 4.51995 80.6304 4.98488L80.6968 7.5752L80.6304 10.4976H80.564ZM85.2797 15.2797H88.2021V4.45353H85.2797V15.2797ZM85.2797 2.66024H88.2021V0.00350375H85.2797V2.66024ZM96.3716 5.91474C96.1723 5.38339 95.7738 4.91846 95.2425 4.58637C94.7775 4.45353 94.3126 4.25428 93.7149 4.25428C93.0741 4.25755 92.441 4.39322 91.8551 4.65279C91.3902 4.85204 90.9253 5.11772 90.5268 5.58265C90.1687 6.04613 89.9395 6.59607 89.8626 7.17669C89.4774 8.88208 89.4774 10.6519 89.8626 12.3573C89.8626 13.0215 90.0618 13.5529 90.4603 14.0842C90.726 14.5491 91.191 14.8148 91.6559 15.0141C92.3201 15.2133 92.9178 15.2797 93.582 15.2797C94.0469 15.2797 94.5783 15.2133 95.0432 15.0141C95.5081 14.7484 95.9067 14.4827 96.1059 14.0178V15.9439C96.1059 16.2096 96.1059 16.6081 95.9731 16.8074L95.7074 17.4051C95.5489 17.5431 95.3696 17.6552 95.1761 17.7372H93.582L93.1171 17.4051C92.9846 17.2669 92.8728 17.1103 92.785 16.9402L92.7186 16.0767H89.929C89.929 16.6745 90.0618 17.2059 90.1947 17.7372C90.3939 18.2021 90.5268 18.6671 90.9253 18.9327C91.2959 19.2759 91.7567 19.5063 92.2536 19.5969C92.9842 19.8626 93.7149 19.929 94.379 19.929C95.9731 19.929 97.235 19.5969 97.9656 18.9327C98.6962 18.2686 99.0947 17.2059 99.0947 15.6118V4.51995H96.3052V5.98116L96.3716 5.91474ZM96.1059 11.4939L95.7738 12.4902C95.641 12.7558 95.4417 12.9551 95.2425 13.0215L94.3126 13.0879L93.4492 13.0215C93.1835 12.9551 92.9842 12.7558 92.9178 12.4902C92.7186 12.2245 92.5857 11.826 92.5857 11.4939L92.5193 9.767L92.5857 8.17296C92.5857 7.84087 92.7186 7.50878 92.9178 7.30952C92.9842 7.11027 93.1835 6.91101 93.4492 6.8446C93.7148 6.71176 94.0469 6.71176 94.3126 6.71176C94.7111 6.71176 94.9768 6.71176 95.2425 6.8446C95.4417 6.91101 95.641 7.11027 95.7738 7.30952L96.1059 8.17296L96.1723 9.767L96.1059 11.4939ZM100.689 2.66024H103.678V0.00350375H100.689V2.66024ZM100.689 15.2797H103.678V4.45353H100.689V15.2797ZM108.858 1.99605H106.002V4.51995H104.674V6.91101H105.936V11.6267C105.936 13.0879 106.202 14.0178 106.799 14.5491C107.331 15.2133 108.393 15.479 109.655 15.479H111.449V13.2872H110.253C109.855 13.2872 109.522 13.1543 109.124 12.8887C108.925 12.6894 108.858 12.3573 108.858 11.826V6.91101H111.515V4.45353H108.858V1.99605ZM120.216 5.58265C119.863 5.1611 119.404 4.84033 118.887 4.65279C117.537 4.30409 116.12 4.30409 114.769 4.65279C114.273 4.7434 113.812 4.9738 113.441 5.31697L112.711 6.44609C112.511 6.97743 112.445 7.5752 112.445 8.10654H115.102C115.102 7.44236 115.234 7.11027 115.434 6.91101C115.832 6.71176 116.164 6.64534 116.563 6.64534C117.094 6.64534 117.493 6.71176 117.692 6.97743C117.891 7.37594 117.958 7.84087 117.958 8.3058V8.77073L116.563 9.0364L114.57 9.43491C114.105 9.63417 113.64 9.83342 113.242 10.1655C112.91 10.4976 112.578 10.7633 112.445 11.1618C112.246 11.5603 112.179 12.0916 112.246 12.5566C112.246 13.5529 112.511 14.2835 113.175 14.7484C113.84 15.2797 114.703 15.4126 115.633 15.4126C116.164 15.4126 116.762 15.4126 117.293 15.0805C117.664 14.8901 117.966 14.5881 118.157 14.217V15.2797H120.946V8.17296C120.946 7.70803 120.88 7.17669 120.747 6.71176C120.681 6.31325 120.481 5.91474 120.216 5.58265ZM117.958 11.8924C117.958 12.2909 117.891 12.7558 117.493 13.0879C117.227 13.3536 116.762 13.4864 116.364 13.4864C115.5 13.4864 115.035 13.0879 115.035 12.2909C115.035 11.8924 115.234 11.5603 115.5 11.361C115.995 11.0886 116.535 10.9085 117.094 10.8297L117.958 10.6304V11.9588V11.8924ZM122.607 0.00350375V15.2797H125.463V0.00350375H122.54H122.607Z" fill="#666666"/>
</g>
<defs>
<clipPath id="clip0_200_224">
<rect width="125.531" height="19.9255" fill="white"/>
</clipPath>
</defs>
</svg>
